<?xml version="1.0" encoding="UTF-8" standalone="no"?>
<svg
   xmlns:dc="http://purl.org/dc/elements/1.1/"
   xmlns:cc="http://creativecommons.org/ns#"
   xmlns:rdf="http://www.w3.org/1999/02/22-rdf-syntax-ns#"
   xmlns:svg="http://www.w3.org/2000/svg"
   xmlns="http://www.w3.org/2000/svg"
   xmlns:sodipodi="http://sodipodi.sourceforge.net/DTD/sodipodi-0.dtd"
   xmlns:inkscape="http://www.inkscape.org/namespaces/inkscape"
   width="878"
   height="660"
   viewBox="0 0 878 660"
   fill="none"
   id="svg4136"
   version="1.1"
   inkscape:version="0.91 r13725"
   sodipodi:docname="home-background.svg">
  <metadata
     id="metadata4361">
    <rdf:RDF>
      <cc:Work
         rdf:about="">
        <dc:format>image/svg+xml</dc:format>
        <dc:type
           rdf:resource="http://purl.org/dc/dcmitype/StillImage" />
      </cc:Work>
    </rdf:RDF>
  </metadata>
  <sodipodi:namedview
     pagecolor="#ffffff"
     bordercolor="#666666"
     borderopacity="1"
     objecttolerance="10"
     gridtolerance="10"
     guidetolerance="10"
     inkscape:pageopacity="0"
     inkscape:pageshadow="2"
     inkscape:window-width="1366"
     inkscape:window-height="705"
     id="namedview4359"
     showgrid="false"
     inkscape:zoom="0.71212122"
     inkscape:cx="428.98094"
     inkscape:cy="335.69938"
     inkscape:window-x="-8"
     inkscape:window-y="-8"
     inkscape:window-maximized="1"
     inkscape:current-layer="svg4136" />
  <path
     d="M477 465C351.079 465 249 475.297 249 488C249 500.703 351.079 511 477 511C602.921 511 705 500.703 705 488C705 475.297 602.921 465 477 465Z"
     fill="#F0F0F5"
     id="path4140" />
  <path
     style="opacity:1;fill:none;fill-opacity:1;fill-rule:nonzero;stroke:#000000;stroke-width:7.76363087;stroke-linecap:square;stroke-linejoin:miter;stroke-miterlimit:4;stroke-dasharray:none;stroke-dashoffset:0;stroke-opacity:1;paint-order:markers fill stroke"
     id="path4458"
     sodipodi:type="arc"
     sodipodi:cx="506.15076"
     sodipodi:cy="426.93704"
     sodipodi:rx="66.993813"
     sodipodi:ry="66.993813"
     sodipodi:start="2.1479244"
     sodipodi:end="2.1475578"
     sodipodi:open="true"
     d="m 469.59763,483.08007 a 66.993813,66.993813 0 0 1 -19.59325,-92.69101 66.993813,66.993813 0 0 1 92.68921,-19.60175 66.993813,66.993813 0 0 1 19.61025,92.68742 66.993813,66.993813 0 0 1 -92.68562,19.61874" />
  <path
     d="m 476.68885,472.18845 a 53.997166,53.997166 0 0 1 -15.7922,-74.70916 53.997166,53.997166 0 0 1 74.70771,-15.79906 53.997166,53.997166 0 0 1 15.80591,74.70627 53.997166,53.997166 0 0 1 -74.70482,15.81275"
     sodipodi:open="true"
     sodipodi:end="2.1475578"
     sodipodi:start="2.1479244"
     sodipodi:ry="53.997166"
     sodipodi:rx="53.997166"
     sodipodi:cy="426.93704"
     sodipodi:cx="506.15076"
     sodipodi:type="arc"
     id="path4454"
     style="opacity:1;fill:none;fill-opacity:1;fill-rule:nonzero;stroke:#d4d4d4;stroke-width:6.25750446;stroke-linecap:square;stroke-linejoin:miter;stroke-miterlimit:4;stroke-dasharray:none;stroke-dashoffset:0;stroke-opacity:1;paint-order:markers fill stroke" />
  <path
     d="m 498.93979,438.20631 a 13.183663,13.183663 0 0 1 -3.85574,-18.2406 13.183663,13.183663 0 0 1 18.24024,-3.85742 13.183663,13.183663 0 0 1 3.85909,18.23989 13.183663,13.183663 0 0 1 -18.23954,3.86076"
     sodipodi:open="true"
     sodipodi:end="2.1475578"
     sodipodi:start="2.1479244"
     sodipodi:ry="13.183663"
     sodipodi:rx="13.183663"
     sodipodi:cy="427.15796"
     sodipodi:cx="506.13306"
     sodipodi:type="arc"
     id="path4450"
     style="opacity:1;fill:#a5a5a5;fill-opacity:1;fill-rule:nonzero;stroke:none;stroke-width:12.02200031;stroke-linecap:square;stroke-linejoin:miter;stroke-miterlimit:4;stroke-dasharray:none;stroke-dashoffset:0;stroke-opacity:1;paint-order:markers fill stroke" />
  <path
     d="M868.075 660H1.2691C-9.70578 512.198 136.012 419.063 215.18 368.462C225.465 361.889 234.626 356.033 242.175 350.869C275.263 328.232 299.799 278.801 325.894 226.228C373.97 129.372 427.337 21.8545 549.226 51.5907C656.389 77.8024 817.447 189.332 878 356.181V633.297C874.996 642.129 871.691 651.031 868.075 660Z"
     id="path4138"
     clip-rule="evenodd"
     fill-rule="evenodd"
     fill="url(#paint0_linear)"
     opacity="0.5" />
  <path
     d="M683.38 398.817C683.38 398.817 651.032 491.056 647.566 491.056C644.1 491.056 574.782 512.963 636.013 485.291C636.013 485.291 642.945 384.981 653.343 380.369C663.74 375.758 683.38 398.817 683.38 398.817Z"
     fill="#965450"
     id="path4142" />
  <path
     d="M659.119 465.229C669.632 437.903 683.381 398.817 683.381 398.817C683.381 398.817 663.74 375.758 653.343 380.369C646.642 383.367 641.328 426.489 638.439 456.466C645.371 459.234 652.187 462.231 659.119 465.229Z"
     fill="#76413B"
     id="path4144" />
  <path
     d="M625.962 490.249C625.962 490.249 623.305 496.36 648.721 489.903L647.566 493.362C647.566 493.362 575.938 510.196 625.962 490.249Z"
     fill="#051F38"
     id="path4146" />
  <path
     d="M663.74 359.731C663.74 359.731 713.764 443.784 711.569 446.436C709.374 449.087 681.647 516.191 699.669 451.509C699.669 451.509 627.117 381.753 630.236 370.8C633.471 359.962 663.74 359.731 663.74 359.731Z"
     fill="#965450"
     id="path4148" />
  <path
     d="M697.128 462.347C697.128 462.347 700.132 468.342 711.454 444.706L713.418 447.819C713.302 447.819 680.261 513.539 697.128 462.347Z"
     fill="#051F38"
     id="path4150" />
  <path
     d="M692.854 409.771C679.452 386.134 663.74 359.731 663.74 359.731C663.74 359.731 633.471 359.962 630.236 370.8C628.157 377.833 657.964 409.655 679.106 431.101C679.221 431.216 687.424 422.108 692.854 409.771Z"
     fill="#76413B"
     id="path4152" />
  <path
     d="M695.51 233.364C695.51 233.364 664.894 199.351 646.987 220.681C629.08 242.011 601.353 312.343 605.396 341.168C607.823 358.117 624.112 376.219 637.167 388.325L626.192 450.125C626.192 450.125 671.248 462.231 668.36 462.231C666.627 462.231 712.839 338.286 717.46 299.084C722.082 259.883 695.51 233.364 695.51 233.364Z"
     fill="#6633CC"
     id="path4154"
     style="fill:#422185;fill-opacity:1" />
  <path
     opacity="0.2"
     d="M672.059 240.974C680.608 240.858 689.966 239.705 698.168 236.362C696.551 234.402 695.511 233.364 695.511 233.364C695.511 233.364 664.896 199.351 646.989 220.681C644.216 224.025 641.212 228.406 638.208 233.71C648.26 239.244 660.968 241.204 672.059 240.974Z"
     fill="#352C38"
     id="path4156" />
  <path
     opacity="0.2"
     d="M626.193 257.461C613.485 286.401 602.741 322.374 605.398 341.053C607.708 357.886 623.883 375.873 636.937 387.979C641.559 356.618 649.992 313.035 655.076 287.9C642.483 280.752 632.085 270.49 626.193 257.461Z"
     fill="#352C38"
     id="path4158"
     style="fill:#1d181e;fill-opacity:1" />
  <path
     d="M607.131 165.337L588.646 201.08C588.646 201.08 556.298 183.209 551.676 183.209C547.055 183.209 525.105 183.785 535.502 188.397C535.502 188.397 530.881 191.279 536.08 192.432C536.08 192.432 531.459 196.468 537.235 197.044L550.521 196.468C550.521 196.468 577.093 220.681 590.379 224.139C603.665 227.598 625.038 182.632 625.038 182.632L607.131 165.337Z"
     fill="#965450"
     id="path4160" />
  <path
     d="M610.135 190.934C613.023 191.972 616.027 193.01 619.031 194.047C622.728 187.591 625.038 182.517 625.038 182.517L607.131 165.223L596.964 184.823C601.008 187.36 605.514 189.32 610.135 190.934Z"
     fill="#76413B"
     id="path4162" />
  <path
     d="M630.236 148.043C630.236 148.043 612.907 145.161 606.552 154.385C600.198 163.608 597.31 178.597 597.31 178.597L622.149 190.704L630.236 148.043Z"
     fill="#34CB79"
     id="path4164"
     style="fill:#2cad67;fill-opacity:1" />
  <path
     opacity="0.1"
     d="M620.648 180.673C614.294 175.715 607.015 169.489 602.279 161.994C598.813 170.065 597.195 178.482 597.195 178.482L622.034 190.588L623.536 182.748C622.612 182.172 621.572 181.48 620.648 180.673Z"
     fill="#161826"
     id="path4166" />
  <path
     d="m -362.12471,214.5872 c 0.693,1.845 -0.346,3.92 -2.195,4.612 l -13.632,4.958 c -1.849,0.692 -3.928,-0.346 -4.622,-2.191 l -5.429,-15.104 c -0.694,-1.845 0.346,-3.92 2.195,-4.612 l 13.632,-4.958 c 1.849,-0.691 3.928,0.346 4.621,2.191 l 5.43,15.104 z"
     id="path4168"
     inkscape:connector-curvature="0"
     style="fill:#23173b" />
  <path
     d="m -351.14971,203.2882 -42.746,15.335 c -7.509,2.651 -11.321,10.953 -8.664,18.447 l 13.17,36.55 c 2.657,7.494 10.975,11.299 18.485,8.647 l 42.746,-15.334 c 7.509,-2.652 11.322,-10.954 8.665,-18.448 l -13.171,-36.55 c -2.772,-7.494 -10.975,-11.414 -18.485,-8.647 z m 27.497,48.541 c 1.039,2.997 -0.463,6.341 -3.466,7.379 l -18.37,-50.732 c 3.004,-1.037 6.355,0.462 7.394,3.459 l 14.442,39.894 z"
     id="path4170"
     inkscape:connector-curvature="0"
     style="fill:#322153" />
  <path
     d="m -364.89771,199.2522 c 0.578,1.615 -0.231,3.459 -1.848,4.036 l -19.409,7.033 c -1.618,0.577 -3.466,-0.23 -4.044,-1.845 l -1.617,-4.496 c -0.578,-1.614 0.231,-3.459 1.848,-4.036 l 19.409,-7.033 c 1.618,-0.576 3.466,0.231 4.044,1.845 l 1.617,4.496 z"
     id="path4172"
     inkscape:connector-curvature="0"
     style="fill:#6633cc" />
  <path
     d="M533.191 185.515C533.191 185.515 540.47 182.979 541.741 184.477C542.896 185.861 535.618 187.936 535.964 188.052C536.195 188.167 543.82 186.438 544.513 188.052C545.207 189.666 536.426 192.548 536.426 192.548C536.426 192.548 544.744 190.242 545.322 191.972C545.9 193.701 536.657 196.238 536.657 196.238L536.195 192.433L535.618 188.052L533.191 185.515Z"
     id="path4174"
     fill="#965450" />
  <path
     d="M543.474 183.555C543.474 183.555 537.813 179.75 537.813 178.482C537.697 177.098 552.832 183.44 552.832 183.44L543.474 183.555Z"
     id="path4176"
     fill="#965450" />
  <path
     d="M655.075 145.161C653.92 147.236 659.581 98.9261 659.581 98.9261L633.356 116.567C633.356 116.567 635.666 147.467 632.778 147.582C631.623 147.582 627.117 149.312 622.149 151.156C623.305 156.921 625.615 158.189 627.579 163.724C642.252 163.609 658.195 163.263 667.206 149.888C662.007 148.159 656.577 142.278 655.075 145.161Z"
     fill="#76413B"
     id="path4178" />
  <path
     d="M630.236 148.043L629.081 144.008L657.964 137.666L659.119 144.584C659.119 144.584 693.778 156.114 698.399 182.056C703.02 207.998 700.71 224.717 695.511 233.364C695.511 233.364 655.075 239.129 637.746 230.482C620.416 221.834 602.509 157.267 611.752 151.502C620.994 145.737 630.236 148.043 630.236 148.043Z"
     fill="#34CB79"
     id="path4180"
     style="fill:#2db26a;fill-opacity:1" />
  <path
     opacity="0.1"
     d="M668.015 219.874C654.151 219.067 637.168 217.453 625.615 208.921C623.42 207.307 621.456 205.577 619.608 203.617C624.807 216.415 631.276 227.253 637.746 230.482C655.076 239.129 695.511 233.364 695.511 233.364C697.822 229.559 699.555 224.14 700.363 216.992C689.966 220.105 679.106 220.566 668.015 219.874Z"
     fill="#161826"
     id="path4182" />
  <path
     d="M666.628 199.927L696.088 197.621C696.088 197.621 688.579 249.505 679.914 267.377C671.25 285.248 631.392 355.58 646.988 316.378C646.988 316.378 626.771 346.933 644.1 315.802C644.1 315.802 625.038 340.591 641.789 314.073C641.789 314.073 622.149 336.556 642.945 304.849C642.945 304.849 627.348 312.343 644.678 299.66L661.43 255.847L666.628 199.927Z"
     fill="#965450"
     id="path4184" />
  <path
     d="M695.395 201.772C695.858 199.12 696.089 197.506 696.089 197.506L666.628 199.812L666.397 202.81C675.986 202.81 685.691 202.349 695.395 201.772Z"
     fill="#76413B"
     id="path4186" />
  <path
     d="M635.782 67.9108C635.782 67.9108 650.455 59.3787 671.943 73.4451C686.153 82.7843 685.46 112.647 654.729 132.247C618.222 155.538 635.782 67.9108 635.782 67.9108Z"
     fill="#051F38"
     id="path4188" />
  <path
     d="M656.116 83.822C656.116 83.822 639.595 71.0238 625.5 77.25C607.709 85.3209 609.557 104.114 609.21 120.141C608.748 141.471 625.616 145.507 630.699 145.737C638.208 146.198 668.824 144.354 656.116 83.822Z"
     fill="#965450"
     id="path4190" />
  <path
     d="M657.733 103.769C657.733 103.769 658.426 100.54 663.972 103.077C671.019 106.42 667.207 123.254 659.35 122.793C651.379 122.447 657.733 103.769 657.733 103.769Z"
     fill="#965450"
     id="path4192" />
  <path
     d="M657.732 103.769C657.732 103.769 658.657 115.298 655.999 115.414C653.227 115.529 650.338 94.5447 657.963 94.5447C665.588 94.7753 657.732 103.769 657.732 103.769Z"
     fill="#051F38"
     id="path4194" />
  <path
     d="M657.733 103.769C657.733 103.769 652.072 78.1724 618.453 82.4384C618.453 82.4384 623.305 72.8686 633.934 68.372C648.375 62.2612 669.979 86.8198 663.971 103.077C663.971 103.077 661.199 103.423 657.733 103.769Z"
     fill="#34CB79"
     id="path4196"
     style="fill:#f2f2f2" />
  <path
     d="M671.943 80.1324C671.943 80.1324 670.094 49.5783 677.488 49.5783C684.882 49.5783 676.91 75.2899 676.91 75.2899C676.91 75.2899 683.034 38.5097 700.825 44.044C718.617 49.5783 687.886 75.2899 687.886 75.2899C687.886 75.2899 701.98 62.3765 706.948 66.7578C711.8 71.0238 686.73 79.6712 686.73 79.6712C686.73 79.6712 705.793 74.1369 708.219 83.3608C710.645 92.4693 671.365 91.2011 671.943 80.1324Z"
     fill="#051F38"
     id="path4198" />
  <path
     d="M610.134 97.8889C610.134 97.8889 610.134 97.6583 610.365 97.1971C610.596 96.7359 610.827 96.1594 611.405 95.5829C611.983 95.0064 612.676 94.3146 613.6 93.8534C613.831 93.7381 614.062 93.6228 614.409 93.5075C614.64 93.3922 614.987 93.2769 615.218 93.2769C615.564 93.2769 615.795 93.1616 616.142 93.1616H617.066C617.644 93.1616 618.221 93.3922 618.799 93.6228C619.377 93.8534 619.839 94.084 620.301 94.4299C620.763 94.7758 621.11 95.1217 621.456 95.4676C621.803 95.8135 622.034 96.1594 622.149 96.5053C622.265 96.6206 622.38 96.8512 622.38 96.9665C622.496 97.0818 622.496 97.3124 622.611 97.4277C622.727 97.7736 622.843 98.0042 622.843 98.2348C622.958 98.6959 622.958 98.9265 622.958 98.9265C622.958 98.9265 622.727 98.8112 622.265 98.696C622.034 98.5807 621.803 98.4653 621.572 98.3501C621.341 98.2348 620.994 98.1195 620.647 97.8889C620.301 97.7736 620.07 97.543 619.723 97.4277C619.377 97.3124 619.03 97.1971 618.683 97.0818C618.337 96.9665 617.99 96.8512 617.644 96.7359C617.297 96.7359 616.951 96.6206 616.604 96.6206H616.142C616.026 96.6206 615.795 96.6206 615.564 96.6206C615.218 96.6206 614.871 96.7359 614.524 96.7359C614.178 96.8512 613.831 96.8512 613.485 96.9665C613.138 97.0818 612.791 97.0818 612.445 97.1971C611.752 97.4277 611.174 97.543 610.827 97.6583C610.481 97.8889 610.134 97.8889 610.134 97.8889Z"
     fill="#051F38"
     id="path4200" />
  <path
     d="M619.03 129.595C619.03 129.595 637.977 130.172 639.247 129.941C640.403 129.711 628.619 138.935 619.03 129.595Z"
     fill="white"
     id="path4202" />
  <path
     d="M620.301 108.496C620.301 108.496 620.301 108.726 620.185 109.188C620.07 109.649 619.954 110.225 619.723 111.032C619.608 111.378 619.492 111.839 619.261 112.185C619.145 112.416 619.03 112.647 618.914 112.762C618.799 112.992 618.568 113.223 618.452 113.338C618.106 113.684 617.759 114.145 617.181 114.376C617.066 114.491 616.95 114.491 616.719 114.607L616.373 114.722C616.142 114.837 615.795 114.837 615.449 114.837C614.871 114.837 614.178 114.722 613.716 114.261C613.253 113.915 612.907 113.454 612.676 112.877C612.445 112.416 612.329 111.955 612.214 111.494C612.098 111.032 612.098 110.571 612.098 110.225C612.098 109.418 612.098 108.842 612.214 108.381C612.329 107.919 612.445 107.689 612.445 107.689C612.445 107.689 612.445 108.726 612.791 110.225C612.907 110.917 613.138 111.839 613.6 112.531C613.831 112.877 614.062 113.223 614.409 113.454C614.755 113.684 615.102 113.8 615.449 113.8C615.68 113.8 615.795 113.8 616.026 113.684L616.373 113.569C616.373 113.569 616.488 113.454 616.604 113.454C616.95 113.338 617.297 112.992 617.644 112.762C617.99 112.416 618.221 112.07 618.452 111.724C618.683 111.378 618.914 111.032 619.03 110.686C619.377 109.995 619.608 109.418 619.839 109.072C620.185 108.726 620.301 108.496 620.301 108.496Z"
     fill="#1F2733"
     id="path4204" />
  <path
     d="M639.363 109.995C639.363 109.995 639.363 110.225 639.248 110.686C639.132 111.148 639.017 111.724 638.786 112.531C638.67 112.877 638.555 113.338 638.323 113.684C638.208 113.915 638.092 114.145 637.977 114.261C637.861 114.491 637.63 114.722 637.515 114.837C637.168 115.183 636.822 115.644 636.244 115.875C636.128 115.99 636.013 115.99 635.782 116.106L635.435 116.221C635.204 116.336 634.858 116.336 634.511 116.336C633.933 116.336 633.24 116.221 632.778 115.76C632.316 115.414 631.969 114.953 631.738 114.376C631.507 113.915 631.392 113.454 631.276 112.992C631.161 112.531 631.161 112.07 631.161 111.724C631.161 110.917 631.161 110.341 631.276 109.879C631.392 109.418 631.507 109.188 631.507 109.188C631.507 109.188 631.507 110.225 631.854 111.724C631.969 112.416 632.2 113.338 632.663 114.03C632.894 114.376 633.125 114.722 633.471 114.953C633.818 115.183 634.164 115.298 634.511 115.298C634.742 115.298 634.858 115.298 635.089 115.183L635.435 115.068C635.435 115.068 635.551 114.953 635.666 114.953C636.013 114.837 636.359 114.491 636.706 114.261C637.053 113.915 637.284 113.569 637.515 113.223C637.746 112.877 637.977 112.531 638.092 112.185C638.439 111.494 638.67 110.917 638.901 110.571C639.248 110.225 639.363 109.995 639.363 109.995Z"
     fill="#1F2733"
     id="path4206" />
  <path
     d="M660.39 119.565C660.736 119.103 660.967 118.757 661.198 118.296C661.429 117.835 661.545 117.374 661.66 116.913C661.66 116.682 661.66 116.451 661.66 116.221C661.66 116.106 661.545 115.99 661.545 115.99C661.545 115.875 661.429 115.76 661.314 115.76C661.198 115.644 661.198 115.644 661.083 115.529L660.852 115.298C660.736 115.183 660.621 115.183 660.505 115.183L660.159 115.068L659.927 114.953V114.722C659.581 113.454 659.465 112.301 659.35 111.032C659.234 110.456 659.234 109.764 659.35 109.188C659.35 108.496 659.465 107.919 659.696 107.228C659.812 106.882 660.043 106.536 660.39 106.305C660.736 106.075 661.198 105.844 661.545 105.959C662.007 105.959 662.238 106.075 662.585 106.19C662.931 106.305 663.278 106.421 663.509 106.651C663.74 106.882 664.087 107.112 664.202 107.343C664.433 107.574 664.549 107.919 664.664 108.15C664.895 108.726 665.011 109.418 664.895 109.995C664.78 109.418 664.664 108.842 664.318 108.265C664.202 108.035 663.971 107.804 663.74 107.573C663.509 107.343 663.278 107.228 663.047 107.112C662.816 106.997 662.585 106.882 662.238 106.882C662.007 106.882 661.66 106.766 661.429 106.766C660.967 106.766 660.736 107.112 660.621 107.573C660.274 108.611 660.39 109.764 660.39 110.917C660.505 112.07 660.621 113.338 660.852 114.491L660.621 114.146L660.967 114.376C661.083 114.491 661.198 114.491 661.314 114.607L661.66 114.837C661.776 114.953 661.891 115.068 662.007 115.183C662.123 115.299 662.238 115.414 662.238 115.644C662.354 115.76 662.354 115.99 662.354 116.106C662.469 116.451 662.354 116.682 662.354 117.028C662.238 117.604 661.891 118.066 661.545 118.527C661.198 118.873 660.736 119.334 660.39 119.565Z"
     fill="#76413B"
     id="path4208" />
  <path
     d="M622.034 124.407C621.456 124.522 620.994 124.522 620.532 124.522C620.07 124.522 619.608 124.407 619.261 124.292C618.799 124.176 618.452 123.946 618.106 123.831C617.875 123.715 617.759 123.6 617.528 123.485C617.297 123.369 617.182 123.254 616.951 123.139L616.257 122.562L616.373 122.101C617.528 118.757 618.683 115.529 619.839 112.301C620.994 109.072 622.265 105.729 623.536 102.5C622.727 105.844 621.803 109.303 620.994 112.647C620.07 115.99 619.146 119.334 618.221 122.678L617.759 121.64C617.99 121.64 618.221 121.755 618.452 121.755C618.683 121.755 618.915 121.87 619.03 121.986C619.377 122.101 619.839 122.332 620.185 122.562C620.532 122.793 620.879 123.139 621.225 123.485C621.456 123.6 621.803 123.946 622.034 124.407Z"
     fill="#76413B"
     id="path4210" />
  <path
     d="M628.85 96.5048C628.85 96.5048 628.966 96.1589 629.312 95.813C629.543 95.5824 629.659 95.3518 630.005 95.0059C630.352 94.7753 630.583 94.4294 631.045 94.1988C631.392 93.9682 631.854 93.6223 632.431 93.3917C632.894 93.1611 633.471 92.9305 634.049 92.6999C634.627 92.5846 635.32 92.354 636.013 92.354C636.36 92.354 636.706 92.354 637.053 92.354L638.092 92.4693C638.786 92.4693 639.479 92.8152 640.056 92.9305C640.634 93.1611 641.212 93.507 641.789 93.7376C642.367 94.0835 642.829 94.4294 643.176 94.7753C643.638 95.1212 643.984 95.5824 644.216 95.9283C644.562 96.2742 644.793 96.6201 645.024 96.966C645.255 97.3119 645.371 97.6578 645.486 97.8884C645.717 98.3496 645.833 98.6955 645.833 98.6955C645.833 98.6955 645.486 98.5802 645.024 98.3496C644.793 98.2343 644.447 98.119 644.1 97.8884C643.753 97.6578 643.407 97.5425 642.945 97.4272C642.598 97.3119 642.136 97.0813 641.674 96.8507C641.212 96.7354 640.75 96.5048 640.288 96.3895C639.825 96.2742 639.363 96.1589 638.901 96.0436C638.439 96.0436 637.977 95.813 637.399 95.813L636.706 95.6977H636.013C635.551 95.6977 634.973 95.6977 634.511 95.6977C634.049 95.6977 633.587 95.6977 633.125 95.813C632.663 95.813 632.2 95.9283 631.738 95.9283C630.93 96.0436 630.121 96.1589 629.659 96.2742C629.197 96.5048 628.85 96.5048 628.85 96.5048Z"
     fill="#051F38"
     id="path4212" />
  <path
     d="m -205.77385,548.39947 c 0,4.151 -3.35,7.61 -7.509,7.725 -4.159,0 -7.625,-3.343 -7.741,-7.494 l -0.346,-24.443 c 0,-4.151 3.35,-7.61 7.509,-7.725 4.159,0 7.625,3.343 7.74,7.494 l 0.347,24.443 z"
     id="path4214"
     inkscape:connector-curvature="0"
     style="fill:#091e1d" />
  <path
     d="m -312.17685,549.66947 c 0,4.15 -3.35,7.609 -7.509,7.725 -4.159,0 -7.625,-3.344 -7.741,-7.495 l -0.346,-24.443 c 0,-4.151 3.35,-7.61 7.509,-7.725 4.159,0 7.625,3.344 7.741,7.494 l 0.346,24.444 z"
     id="path4216"
     inkscape:connector-curvature="0"
     style="fill:#091e1d" />
  <path
     d="m -214.32285,530.98947 c 0.115,9.455 -7.51,17.18 -16.983,17.295 l -71.166,0.807 c -9.474,0.116 -17.214,-7.494 -17.33,-16.949 l -7.625,-161.648 c -0.115,-9.454 7.51,-17.179 16.983,-17.295 l 82.604,-1.037 c 9.473,-0.116 17.214,7.494 17.329,16.948 l -3.812,161.879 z"
     id="path4218"
     inkscape:connector-curvature="0"
     style="fill:#34cb79" />
  <path
     d="m -210.97285,385.36747 0.347,-16.026 c -0.116,-9.454 -7.856,-17.064 -17.33,-16.949 l -82.604,1.038 c -9.473,0.115 -17.098,7.84 -16.982,17.295 l 0.808,16.026 115.761,-1.384 z"
     id="path4220"
     inkscape:connector-curvature="0"
     style="opacity:0.1;fill:#161826" />
  <path
     d="m -196.87785,365.30647 c 0,2.651 -2.08,4.727 -4.737,4.842 l -134.939,1.614 c -2.657,0 -4.736,-2.075 -4.852,-4.727 l -0.231,-17.064 c 0,-2.652 2.079,-4.727 4.737,-4.843 l 134.938,-1.614 c 2.658,0 4.737,2.076 4.853,4.727 l 0.231,17.065 z"
     id="path4222"
     inkscape:connector-curvature="0"
     style="fill:#34cb79" />
  <path
     d="m -268.50685,412.69347 15.712,-9.454 -3.812,9.8 -11.9,-0.346 z"
     id="path4224"
     inkscape:connector-curvature="0"
     style="fill:#ffffff" />
  <path
     d="m -274.39785,397.82047 c 0,0 1.271,0 3.235,2.997 1.964,2.998 6.354,11.069 6.354,11.069 l 7.971,-3.574 1.849,-3.113 c 0,0 -3.466,-6.918 -6.239,-7.379 l -13.17,0 z"
     id="path4226"
     inkscape:connector-curvature="0"
     style="fill:#ffffff" />
  <path
     d="m -278.78885,399.89547 c 0,0 2.426,-2.652 4.39,-1.268 1.964,1.384 5.43,7.149 5.43,7.149 l -5.661,9.915 -10.166,-5.649 6.007,-10.147 z"
     id="path4228"
     inkscape:connector-curvature="0"
     style="fill:#ffffff" />
  <path
     d="m -261.34285,425.03047 0.808,18.217 -6.816,-7.955 6.008,-10.262 z"
     id="path4230"
     inkscape:connector-curvature="0"
     style="fill:#ffffff" />
  <path
     d="m -245.39985,426.87547 c 0,0 -0.578,1.153 -4.16,1.499 -3.581,0.346 -12.823,0.346 -12.823,0.346 l -0.694,8.762 1.849,3.113 c 0,0 7.74,0.346 9.473,-1.96 l 6.355,-11.76 z"
     id="path4232"
     inkscape:connector-curvature="0"
     style="fill:#ffffff" />
  <path
     d="m -245.28485,422.03247 c 0,0 1.271,3.344 -0.924,4.497 -2.08,1.038 -8.896,1.268 -8.896,1.268 l -6.123,-9.685 9.82,-6.341 6.123,10.261 z"
     id="path4234"
     inkscape:connector-curvature="0"
     style="fill:#ffffff" />
  <path
     d="m -275.20885,424.80047 -16.174,-8.533 10.398,-1.844 5.776,10.377 z"
     id="path4236"
     inkscape:connector-curvature="0"
     style="fill:#ffffff" />
  <path
     d="m -284.79585,437.59847 c 0,0 -0.693,-1.038 0.809,-4.266 1.501,-3.229 6.123,-11.184 6.123,-11.184 l -7.163,-4.958 -3.582,0.115 c 0,0 -4.159,6.572 -3.119,9.109 l 6.932,11.184 z"
     id="path4238"
     inkscape:connector-curvature="0"
     style="fill:#ffffff" />
  <path
     d="m -280.75285,440.13447 c 0,0 -3.581,-0.692 -3.35,-2.998 0.116,-2.421 3.35,-8.301 3.35,-8.301 l 11.438,-0.346 0.462,11.645 -11.9,0 z"
     id="path4240"
     inkscape:connector-curvature="0"
     style="fill:#ffffff" />
  <path
     d="M302.247 445.167C302.247 445.167 299.706 485.868 297.511 486.675C289.077 489.557 225.42 505.699 285.611 478.604L283.994 448.972L302.247 445.167Z"
     fill="#051F38"
     id="path4242" />
  <path
     d="M299.59 476.759C301.092 464.422 302.247 445.167 302.247 445.167L283.994 448.972L285.496 475.376C290.001 476.644 295.2 476.759 299.59 476.759Z"
     fill="#041523"
     id="path4244" />
  <path
     d="M260.079 492.786C258.231 497.282 291.503 488.75 297.511 486.675C297.626 486.56 297.857 486.329 298.088 485.752C290.579 487.828 267.82 493.016 260.079 492.786Z"
     fill="white"
     id="path4246" />
  <path
     d="M341.181 442.977C341.181 442.977 344.532 483.677 346.842 484.369C355.391 487.136 419.279 502.01 358.511 476.067L359.55 446.436L341.181 442.977Z"
     fill="#051F38"
     id="path4248" />
  <path
     d="M344.532 474.453C342.799 462.232 341.181 442.977 341.181 442.977L359.55 446.436L358.626 472.839C354.12 474.223 348.922 474.338 344.532 474.453Z"
     fill="#041523"
     id="path4250" />
  <path
     d="m -109.90887,332.5114 c 1.964,4.496 -31.539,-3.459 -37.547,-5.419 -0.231,0 -0.346,-0.346 -0.577,-0.923 7.509,2.076 30.384,6.803 38.124,6.342 z"
     id="path4252"
     inkscape:connector-curvature="0"
     style="fill:#ffffff" />
  <path
     d="M352.387 223.218C352.387 223.218 369.023 357.31 365.673 465.806C365.673 465.806 345.802 471.34 340.603 467.305C336.097 441.593 336.675 391.554 329.974 354.427C323.62 319.377 321.079 290.667 321.079 290.667L318.999 288.361C318.999 288.361 305.366 457.85 302.363 470.764C285.149 474.799 279.719 470.072 279.719 470.072C279.719 470.072 271.863 258.038 276.715 223.794C282.954 179.059 352.387 223.218 352.387 223.218Z"
     fill="#34CB79"
     id="path4254"
     style="fill:#2fb76d;fill-opacity:1" />
  <path
     opacity="0.1"
     d="M355.39 251.004C353.657 233.709 352.27 223.333 352.27 223.333C352.27 223.333 282.953 179.173 276.598 223.909C276.021 228.06 275.674 234.862 275.328 243.51C280.526 246.392 345.454 255.616 355.39 251.004Z"
     fill="#161826"
     id="path4256" />
  <path
     opacity="0.1"
     d="M319.808 286.978C320.616 296.086 324.775 325.488 329.974 354.427C336.675 391.669 336.097 441.593 340.603 467.305C345.802 471.34 365.673 465.806 365.673 465.806C367.637 399.048 362.207 322.605 357.586 273.719C346.611 280.636 332.631 283.98 319.808 286.978Z"
     fill="#161826"
     id="path4258" />
  <path
     d="M325.7 105.959C325.815 91.8929 326.855 73.3298 326.855 73.3298L299.128 65.7201C299.128 65.7201 300.052 90.8552 300.861 106.19C288.268 110.456 273.942 118.527 273.942 118.527L326.277 131.786L344.878 113.8C344.878 113.8 335.52 109.072 325.7 105.959Z"
     fill="#FFB39F"
     id="path4260" />
  <path
     d="M325.7 105.959C325.815 91.8929 326.855 73.3298 326.855 73.3298L299.128 65.7201C299.128 65.7201 300.052 90.8552 300.861 106.19C288.268 110.456 273.942 118.527 273.942 118.527L326.277 131.786L351.001 110.571C351.001 110.571 335.635 104.806 325.7 105.959Z"
     fill="#E09B8D"
     id="path4262" />
  <path
     d="M296.702 39.0862C296.702 39.0862 303.98 15.5653 323.158 19.2549C342.336 22.9444 345.109 47.9642 347.535 64.7978C349.961 81.7466 344.531 96.966 329.512 98.8108C316.457 100.425 293.698 97.8884 296.702 39.0862Z"
     fill="#FFB39F"
     id="path4264" />
  <path
     d="M297.626 58.8022C297.626 58.8022 296.471 55.6892 291.734 59.1481C285.726 63.5295 291.849 79.6712 299.128 77.9418C306.406 76.2123 297.626 58.8022 297.626 58.8022Z"
     fill="#FFB39F"
     id="path4266" />
  <path
     d="M290.925 25.5963C291.387 25.481 300.399 24.7892 294.391 25.3657C299.936 31.3612 299.359 32.8601 306.984 34.2436C311.027 46.6959 303.056 54.1903 303.056 54.1903L305.251 69.1791L299.474 69.7556C299.474 69.7556 299.59 59.3787 295.2 58.4563C290.81 57.5339 289.539 62.8377 289.539 62.8377C280.412 51.3078 271.169 28.7093 290.925 25.5963Z"
     fill="#051F38"
     id="path4268" />
  <path
     d="M343.26 17.1795C346.957 8.07089 340.719 0 340.719 0C341.758 3.34366 341.296 6.45671 340.256 8.99328C339.563 6.45671 338.292 3.68955 335.982 0.922387C335.982 0.922387 336.675 10.1463 324.082 8.99328C311.489 7.84029 289.423 9.56977 288.499 29.0552C287.459 48.5407 306.291 34.3589 306.291 34.3589C306.291 34.3589 343.838 44.8511 349.268 14.6429L343.26 17.1795Z"
     fill="#051F38"
     id="path4270" />
  <path
     d="M325.469 50.8476C325.469 50.8476 325.122 50.8476 324.66 50.7323C324.082 50.617 323.389 50.5017 322.581 50.3864C322.118 50.2711 321.772 50.2711 321.31 50.2711C320.848 50.1558 320.386 50.1558 319.923 50.1558C319.461 50.1558 318.999 50.1558 318.421 50.1558C318.19 50.1558 317.959 50.1558 317.728 50.1558L317.035 50.2711C316.573 50.2711 316.111 50.3864 315.533 50.5017C315.071 50.617 314.609 50.7323 314.147 50.8476C313.685 50.9629 313.223 51.1935 312.761 51.3088C312.298 51.4241 311.952 51.6547 311.49 51.77C311.143 51.8853 310.681 52.0006 310.45 52.2312C310.103 52.3465 309.872 52.4618 309.641 52.5771C309.179 52.8077 308.833 52.923 308.833 52.923C308.833 52.923 308.948 52.5771 309.179 52.1159C309.295 51.8853 309.41 51.5394 309.641 51.1935C309.872 50.8476 310.103 50.5017 310.45 50.1558C310.797 49.8099 311.028 49.3487 311.49 49.0028C311.952 48.6569 312.414 48.311 312.992 47.9651C313.569 47.7345 314.147 47.3886 314.725 47.158C315.418 46.9274 315.995 46.8121 316.689 46.6968L317.728 46.5815C318.075 46.5815 318.422 46.5815 318.768 46.6968C319.115 46.6968 319.461 46.8121 319.692 46.8121C320.039 46.9274 320.27 46.9274 320.617 47.0427C321.194 47.2733 321.772 47.3886 322.234 47.7345C322.696 47.9651 323.158 48.311 323.62 48.5416C323.967 48.7722 324.314 49.1181 324.66 49.3487C324.891 49.5793 325.122 49.9252 325.353 50.0405C325.238 50.5017 325.469 50.8476 325.469 50.8476Z"
     fill="#051F38"
     id="path4272" />
  <path
     d="M344.993 50.2701C344.993 50.2701 344.762 50.1548 344.3 50.0395C343.838 49.9242 343.26 49.6936 342.682 49.463C342.336 49.3477 341.989 49.2325 341.643 49.1172C341.296 49.0019 340.949 48.8865 340.603 48.8865C340.256 48.8865 339.91 48.7713 339.563 48.656C339.448 48.656 339.216 48.656 339.101 48.5407H338.639C338.292 48.4254 337.946 48.656 337.599 48.5407C337.252 48.656 336.906 48.656 336.559 48.7713C336.213 48.8866 335.866 49.0019 335.52 49.1172C335.173 49.2325 334.826 49.3477 334.595 49.463C334.249 49.5783 333.902 49.6936 333.671 49.8089C333.44 49.9242 333.209 50.0395 332.978 50.0395C332.516 50.1548 332.285 50.2701 332.285 50.2701C332.285 50.2701 332.285 50.0395 332.516 49.5783C332.631 49.3477 332.631 49.1171 332.862 48.7713C332.978 48.4254 333.209 48.1948 333.44 47.8489C333.671 47.503 333.902 47.1571 334.249 46.8112C334.595 46.4653 335.057 46.2347 335.404 45.8888C335.866 45.6582 336.444 45.4276 336.906 45.197C337.484 45.0817 338.061 44.9664 338.639 44.9664C338.985 44.9664 339.216 44.9664 339.563 44.9664C339.91 44.9664 340.141 45.0817 340.372 45.197C340.603 45.197 340.949 45.3123 341.18 45.4276C341.412 45.5429 341.643 45.6582 341.874 45.7735C342.798 46.35 343.491 46.9265 343.953 47.6183C344.415 48.3101 344.646 48.8866 344.877 49.3477C344.993 50.0395 344.993 50.2701 344.993 50.2701Z"
     fill="#051F38"
     id="path4274" />
  <path
     d="M330.783 51.5384C331.476 53.0373 332.17 54.6515 332.863 56.1504C333.209 56.9574 333.44 57.6492 333.787 58.4563L334.711 60.7623L335.635 63.0683C335.982 63.8754 336.213 64.5671 336.56 65.3742L337.022 66.5272C337.137 66.8731 337.368 67.3343 337.484 67.6802C337.831 68.372 338.177 69.0638 338.524 69.8709L338.87 70.7933L338.177 71.1392C337.137 71.6004 336.098 72.1768 334.942 72.638C333.903 73.0992 332.747 73.5604 331.592 73.9063C332.516 73.0992 333.44 72.4074 334.365 71.7157C335.289 71.0239 336.329 70.3321 337.253 69.6403L336.906 70.9086C336.444 70.2168 335.982 69.4097 335.52 68.7179C335.058 68.0261 334.711 67.219 334.365 66.4119L333.787 65.2589L333.325 64.106C333.094 63.2989 332.747 62.4918 332.516 61.6847L331.823 59.2634C331.592 58.4563 331.476 57.6492 331.245 56.8421C331.13 54.9974 330.899 53.2679 330.783 51.5384Z"
     fill="#DD9078"
     id="path4276" />
  <path
     d="M297.279 74.5981C296.817 74.3675 296.355 74.0216 296.009 73.5604C295.662 73.2145 295.2 72.7533 294.969 72.1769C294.853 71.9463 294.738 71.6004 294.738 71.2545C294.738 71.1392 294.738 70.9086 294.738 70.7933C294.738 70.678 294.853 70.4474 294.853 70.3321C294.969 69.9862 295.2 69.7556 295.431 69.525C295.546 69.4097 295.662 69.2944 295.777 69.1791L296.124 68.9485L295.893 69.2944C295.893 68.0261 295.893 66.7578 295.777 65.6048C295.662 64.3366 295.546 63.0683 295.084 62.0306C294.969 61.8 294.853 61.5694 294.622 61.4541C294.507 61.3388 294.276 61.2235 294.045 61.2235C293.929 61.2235 293.813 61.2235 293.698 61.3388C293.582 61.3388 293.351 61.4541 293.236 61.4541C293.005 61.5694 292.774 61.6847 292.543 61.9153C292.312 62.1459 292.08 62.2612 291.965 62.4918C291.849 62.7224 291.618 62.953 291.503 63.2989C291.272 63.8754 291.156 64.4519 291.156 65.1436C290.925 64.5671 290.925 63.8754 291.041 63.1836C291.041 62.8377 291.156 62.4918 291.387 62.2612C291.503 61.9153 291.734 61.6847 291.965 61.4541L292.312 61.1082L292.774 60.7623C292.889 60.647 293.12 60.647 293.236 60.5317C293.351 60.4164 293.582 60.4164 293.813 60.3011C294.276 60.1858 294.738 60.3011 295.084 60.647C295.431 60.8776 295.662 61.2235 295.777 61.5694C296.124 62.2612 296.24 62.8377 296.471 63.5295C296.586 64.2213 296.702 64.7977 296.702 65.4895C296.817 66.7578 296.817 68.0261 296.702 69.4097V69.6403L296.471 69.7556C296.24 69.8709 296.009 69.9862 295.893 70.2168C295.777 70.3321 295.546 70.5627 295.431 70.678C295.315 70.7933 295.315 70.9086 295.315 71.0239C295.315 71.1392 295.2 71.2545 295.2 71.3698C295.2 71.6004 295.2 71.831 295.2 72.0615C295.315 72.5227 295.546 72.9839 295.893 73.4451C296.586 73.9063 296.933 74.2522 297.279 74.5981Z"
     fill="#DD9078"
     id="path4278" />
  <path
     d="M315.417 61.8C315.417 61.8 315.533 62.0306 315.649 62.4917C315.764 62.7223 315.764 62.9529 315.88 63.1835C315.995 63.4141 316.111 63.76 316.342 64.1059C316.457 64.4518 316.804 64.6824 316.919 65.0283C317.035 65.1436 317.15 65.2589 317.381 65.4895C317.497 65.6048 317.613 65.7201 317.844 65.8354C318.19 66.066 318.537 66.1813 318.883 66.2966C319.114 66.2966 319.23 66.4119 319.461 66.4119C319.692 66.4119 319.808 66.4119 320.039 66.2966L320.616 66.066L321.194 65.7201C321.541 65.4895 321.772 65.1436 322.003 64.7977C322.234 64.4518 322.349 64.1059 322.58 63.76C322.696 63.4141 322.811 63.0682 322.811 62.607C322.811 62.2611 322.811 61.9152 322.927 61.6847C322.927 61.3388 322.927 61.1082 322.927 60.8776C322.927 60.4164 322.927 60.1858 322.927 60.1858C322.927 60.1858 323.042 60.4164 323.158 60.8776C323.274 61.1082 323.274 61.3388 323.389 61.6847C323.389 62.0305 323.505 62.3764 323.505 62.7223C323.505 63.0682 323.505 63.5294 323.389 63.9906C323.274 64.4518 323.158 64.913 322.927 65.3742C322.696 65.8354 322.349 66.2966 321.887 66.6425L321.194 67.1037C320.963 67.219 320.616 67.3343 320.385 67.4496C320.154 67.4496 319.808 67.5649 319.461 67.5649C319.23 67.5649 318.883 67.4496 318.652 67.4496C318.075 67.3343 317.613 66.9884 317.15 66.6425C316.688 66.2966 316.457 65.8354 316.226 65.4895C315.995 65.0283 315.764 64.6824 315.649 64.3365C315.533 63.9906 315.417 63.6447 315.417 63.2988C315.417 62.9529 315.417 62.7223 315.417 62.4917C315.417 62.0306 315.417 61.8 315.417 61.8Z"
     fill="#1F2733"
     id="path4280" />
  <path
     d="M336.329 58.341C336.329 58.341 336.444 58.5716 336.56 59.0328C336.675 59.2634 336.675 59.494 336.791 59.7246C336.906 59.9552 337.022 60.3011 337.253 60.647C337.368 60.9929 337.715 61.2235 337.831 61.5694C337.946 61.6847 338.062 61.8 338.293 62.0306C338.408 62.1459 338.524 62.2612 338.755 62.3765C339.101 62.6071 339.448 62.7224 339.795 62.8377C340.026 62.8377 340.141 62.953 340.372 62.953C340.603 62.953 340.719 62.953 340.95 62.8377L341.527 62.6071L342.105 62.2612C342.452 62.0306 342.683 61.6847 342.914 61.3388C343.145 60.9929 343.26 60.647 343.491 60.3011C343.607 59.9552 343.723 59.6093 343.723 59.1481C343.723 58.8022 343.723 58.4563 343.838 58.2257C343.838 57.8798 343.838 57.6492 343.838 57.4186C343.838 56.9574 343.838 56.7269 343.838 56.7269C343.838 56.7269 343.954 56.9574 344.069 57.4186C344.185 57.6492 344.185 57.8798 344.3 58.2257C344.3 58.5716 344.416 58.9175 344.416 59.2634C344.416 59.6093 344.416 60.0705 344.3 60.5317C344.185 60.9929 344.069 61.4541 343.838 61.9153C343.607 62.3765 343.26 62.8377 342.798 63.1836L342.105 63.6448C341.874 63.7601 341.527 63.8754 341.296 63.9906C341.065 63.9906 340.719 64.106 340.372 64.106C340.141 64.106 339.795 63.9906 339.563 63.9906C338.986 63.8754 338.524 63.5295 338.062 63.1836C337.599 62.8377 337.368 62.3765 337.137 62.0306C336.906 61.5694 336.675 61.2235 336.56 60.8776C336.444 60.5317 336.329 60.1858 336.329 59.8399C336.329 59.494 336.329 59.2634 336.329 59.0328C336.329 58.5716 336.329 58.341 336.329 58.341Z"
     fill="#1F2733"
     id="path4282" />
  <path
     d="M317.237 78.1034C317.237 78.1034 317.121 78.1034 317.237 78.2187C317.352 78.334 317.583 78.4493 317.815 78.5646C318.277 78.9105 319.085 79.2564 320.01 79.7176C320.934 80.1788 322.089 80.64 323.244 80.9858C323.822 81.2164 324.515 81.3317 325.093 81.447C325.671 81.5623 326.364 81.6776 327.057 81.7929C328.328 81.9082 329.599 82.0235 330.869 81.9082C332.14 81.7929 333.18 81.5623 334.22 81.2164C335.144 80.8705 335.953 80.64 336.53 80.4094C337.108 80.1788 337.455 80.0635 337.455 80.0635C337.455 80.0635 337.224 80.4094 336.761 80.7552C336.299 81.2164 335.606 81.7929 334.682 82.3694C333.758 82.9459 332.487 83.5224 331.1 83.753C329.714 84.0989 328.212 84.0989 326.71 83.9836C326.017 83.8683 325.208 83.753 324.515 83.5224C323.822 83.2918 323.129 83.0612 322.551 82.7153C321.28 82.1388 320.241 81.447 319.432 80.7552C318.623 80.0635 317.93 79.3717 317.583 78.7952C317.352 78.5646 317.237 78.334 317.237 78.1034C317.121 78.1034 317.121 78.2187 317.237 78.1034Z"
     fill="#DD9078"
     id="path4284" />
  <path
     d="M335.289 105.613C335.289 105.613 364.865 102.5 368.677 125.099C372.49 147.813 372.143 153.923 372.143 153.923L343.261 149.657L335.289 105.613Z"
     fill="#6633CC"
     id="path4286"
     style="fill:#422185;fill-opacity:1" />
  <path
     d="M360.242 123.83C358.509 109.417 343.837 106.304 335.288 105.612C331.475 110.916 326.161 114.721 318.883 114.952C310.564 115.182 302.939 112.3 298.896 105.958C285.957 107.457 273.133 111.147 270.244 119.909C264.121 138.357 269.436 239.82 269.436 239.82C269.436 239.82 321.193 248.698 363.708 240.627C363.593 240.742 362.553 143.084 360.242 123.83Z"
     id="path4288"
     fill="#6633CC"
     style="fill:#512d99;fill-opacity:1" />
  <path
     opacity="0.2"
     d="M267.242 169.258C267.473 202.695 269.437 239.936 269.437 239.936C269.437 239.936 321.194 248.814 363.709 240.743C363.709 240.743 362.9 166.606 361.167 134.784C329.859 146.429 298.55 157.959 267.242 169.258Z"
     fill="#352C38"
     id="path4290" />
  <path
     d="M299.127 196.007C299.127 196.007 297.972 192.664 303.286 190.473C308.601 188.282 363.362 173.985 366.828 174.447C370.293 174.908 412.693 179.981 413.386 182.287C414.079 184.593 362.668 201.196 362.668 201.196L299.127 196.007Z"
     fill="#E1EDFF"
     id="path4292" />
  <path
     d="M365.557 205.577C365.557 205.577 305.597 205.347 300.976 199.928C296.355 194.509 296.239 190.588 322.465 195.2C348.69 199.812 363.824 199.12 363.824 199.12C363.824 199.12 411.885 176.753 413.502 182.172C415.004 187.706 420.087 186.322 365.557 205.577Z"
     fill="#C0D5FF"
     id="path4294" />
  <path
     d="M413.387 182.287C411.885 176.868 363.709 199.236 363.709 199.236C363.709 199.236 363.593 199.236 363.247 199.236C364.286 201.311 365.095 203.271 366.019 205.462C420.087 186.322 415.004 187.706 413.387 182.287Z"
     fill="#B1C5E8"
     id="path4296" />
  <path
     d="M297.394 183.67C297.394 183.67 296.238 180.327 301.553 178.136C306.867 175.945 361.628 161.648 365.094 162.11C368.56 162.571 410.959 167.644 411.653 169.95C412.346 172.256 360.935 188.859 360.935 188.859L297.394 183.67Z"
     fill="#E1EDFF"
     id="path4298" />
  <path
     d="M363.824 193.356C363.824 193.356 303.864 193.125 299.243 187.706C294.622 182.287 294.506 178.367 320.731 182.979C346.957 187.591 362.091 186.899 362.091 186.899C362.091 186.899 410.151 164.531 411.769 169.95C413.155 175.369 418.354 173.985 363.824 193.356Z"
     fill="#C0D5FF"
     id="path4300" />
  <path
     d="M411.654 170.065C410.152 164.646 361.976 187.014 361.976 187.014C361.976 187.014 361.86 187.014 361.514 187.014C362.553 189.09 363.362 191.05 364.286 193.24C418.239 173.985 413.155 175.369 411.654 170.065Z"
     fill="#B1C5E8"
     id="path4302" />
  <path
     d="M297.163 173.639C297.163 173.639 296.123 170.757 301.206 168.797C306.29 166.837 359.318 154.269 362.668 154.73C366.019 155.192 407.032 159.688 407.725 161.648C408.418 163.608 358.625 178.367 358.625 178.367L297.163 173.639Z"
     fill="#E1EDFF"
     id="path4304" />
  <path
     d="M361.398 182.172C361.398 182.172 303.402 181.941 298.897 177.214C294.391 172.486 294.391 169.027 319.692 173.063C344.993 177.098 359.665 176.522 359.665 176.522C359.665 176.522 406.224 156.806 407.726 161.648C409.228 166.376 414.195 165.107 361.398 182.172Z"
     fill="#C0D5FF"
     id="path4306" />
  <path
     d="M407.726 161.648C406.224 156.921 359.665 176.522 359.665 176.522C359.665 176.522 359.55 176.522 359.203 176.522C360.127 178.251 361.052 180.096 361.86 181.941C414.195 165.107 409.228 166.376 407.726 161.648Z"
     fill="#B1C5E8"
     id="path4308" />
  <path
     d="M298.78 160.15C298.78 160.15 297.856 157.267 303.055 155.422C308.254 153.693 361.629 143.085 364.979 143.662C368.329 144.123 409.111 150.234 409.689 152.194C410.267 154.154 360.011 166.952 360.011 166.952L298.78 160.15Z"
     fill="white"
     id="path4310" />
  <path
     d="M362.669 171.102C362.669 171.102 304.673 168.681 300.399 163.838C296.124 158.88 296.124 155.537 321.309 160.494C346.495 165.452 361.167 165.452 361.167 165.452C361.167 165.452 408.419 147.581 409.69 152.308C411.076 157.035 416.044 155.998 362.669 171.102Z"
     fill="#C0D5FF"
     id="path4312" />
  <path
     d="M409.69 152.309C408.419 147.467 361.167 165.453 361.167 165.453C361.167 165.453 361.052 165.453 360.705 165.453C361.629 167.298 362.438 169.143 363.131 170.988C415.928 155.999 410.961 157.036 409.69 152.309Z"
     fill="#B1C5E8"
     id="path4314" />
  <path
     d="M268.628 162.34L297.164 155.422C297.164 155.422 303.287 196.93 304.904 199.236C306.522 201.542 354.236 203.848 354.236 203.848L368.099 204.655C368.099 204.655 309.525 229.213 292.658 219.298C275.56 209.151 268.628 162.34 268.628 162.34Z"
     fill="#FFB39F"
     id="path4316" />
  <path
     d="M271.401 167.298C280.181 164.646 288.73 161.418 297.741 159.458C297.395 156.921 297.164 155.422 297.164 155.422L268.628 162.34C268.628 162.34 268.975 164.416 269.552 167.875C270.245 167.644 270.823 167.413 271.401 167.298Z"
     fill="#E09B8D"
     id="path4318" />
  <path
     d="M362.785 208.46C362.785 208.46 384.504 202.695 384.504 198.313C384.504 193.932 376.648 178.136 382.194 199.236C382.194 199.236 370.641 170.642 379.883 200.619C379.883 200.619 370.872 177.329 376.995 201.196C376.995 201.196 367.752 185.054 374.453 202.349L366.135 205.462L346.148 205.231L335.52 215.608L362.785 208.46Z"
     fill="#FFB39F"
     id="path4320" />
  <path
     d="M413.618 187.36C413.618 187.36 402.065 158.766 411.307 188.744C411.307 188.744 402.296 165.453 408.419 189.32C408.419 189.32 399.176 173.178 405.068 190.588L398.714 193.586C401.025 193.817 404.029 193.701 406.455 192.894C413.849 191.395 415.928 188.859 415.928 186.553C415.928 182.172 408.072 166.376 413.618 187.36Z"
     fill="#FFB39F"
     id="path4322" />
  <path
     d="m -51.219872,333.5484 c 0,4.151 -3.35,7.61 -7.509,7.725 -4.16,0 -7.625,-3.343 -7.741,-7.494 l -0.347,-24.443 c 0,-4.151 3.351,-7.61 7.51,-7.725 4.159,0 7.625,3.343 7.74,7.494 l 0.347,24.443 z"
     id="path4324"
     inkscape:connector-curvature="0"
     style="fill:#091e1d" />
  <path
     d="m -157.62287,334.8184 c 0,4.15 -3.35,7.609 -7.509,7.725 -4.159,0 -7.625,-3.344 -7.741,-7.495 l -0.346,-24.443 c 0,-4.151 3.35,-7.61 7.509,-7.725 4.159,0 7.625,3.344 7.741,7.494 l 0.346,24.444 z"
     id="path4326"
     inkscape:connector-curvature="0"
     style="fill:#091e1d" />
  <path
     d="m -59.768872,316.1384 c 0.116,9.455 -7.509,17.18 -16.983,17.295 l -71.165998,0.807 c -9.473,0.116 -17.214,-7.494 -17.329,-16.949 l -7.625,-161.648 c -0.116,-9.454 7.509,-17.179 16.982,-17.295 l 82.603998,-1.037 c 9.474,-0.116 17.214,7.494 17.33,16.948 l -3.813,161.879 z"
     id="path4328"
     inkscape:connector-curvature="0"
     style="fill:#322153" />
  <path
     d="m -56.418872,170.5164 0.347,-16.026 c -0.115,-9.454 -7.856,-17.064 -17.329,-16.949 l -82.603998,1.038 c -9.474,0.115 -17.099,7.84 -16.983,17.295 l 0.809,16.026 115.759998,-1.384 z"
     id="path4330"
     inkscape:connector-curvature="0"
     style="fill:#1c0c3b" />
  <path
     d="m -42.323872,150.4554 c 0,2.651 -2.079,4.727 -4.737,4.842 l -134.937998,1.614 c -2.658,0 -4.737,-2.075 -4.853,-4.727 l -0.231,-17.064 c 0,-2.652 2.08,-4.727 4.737,-4.843 l 134.938998,-1.614 c 2.657,0 4.737,2.076 4.852,4.727 l 0.231,17.065 z"
     id="path4332"
     inkscape:connector-curvature="0"
     style="fill:#322153" />
  <path
     d="m -113.95187,197.8424 15.711998,-9.454 -3.812998,9.8 -11.899,-0.346 z"
     id="path4334"
     inkscape:connector-curvature="0"
     style="fill:#ffffff" />
  <path
     d="m -119.84387,182.9694 c 0,0 1.27,0 3.234,2.997 1.964,2.998 6.355,11.069 6.355,11.069 l 7.971,-3.574 1.849,-3.113 c 0,0 -3.466,-6.918 -6.239,-7.379 l -13.17,0 z"
     id="path4336"
     inkscape:connector-curvature="0"
     style="fill:#ffffff" />
  <path
     d="m -124.23387,185.0444 c 0,0 2.426,-2.652 4.39,-1.268 1.964,1.384 5.43,7.149 5.43,7.149 l -5.661,9.915 -10.167,-5.649 6.008,-10.147 z"
     id="path4338"
     inkscape:connector-curvature="0"
     style="fill:#ffffff" />
  <path
     d="m -106.78887,210.1794 0.808,18.217 -6.816,-7.955 6.008,-10.262 z"
     id="path4340"
     inkscape:connector-curvature="0"
     style="fill:#ffffff" />
  <path
     d="m -90.846872,212.0244 c 0,0 -0.577,1.153 -4.159,1.499 -3.581,0.346 -12.822998,0.346 -12.822998,0.346 l -0.694,8.762 1.849,3.114 c 0,0 7.739998,0.345 9.472998,-1.961 l 6.354,-11.76 z"
     id="path4342"
     inkscape:connector-curvature="0"
     style="fill:#ffffff" />
  <path
     d="m -90.730872,207.1814 c 0,0 1.271,3.344 -0.924,4.497 -2.08,1.038 -8.895998,1.268 -8.895998,1.268 l -6.123,-9.685 9.819998,-6.341 6.123,10.261 z"
     id="path4344"
     inkscape:connector-curvature="0"
     style="fill:#ffffff" />
  <path
     d="m -120.53787,209.9494 -16.175,-8.532 10.283,-1.845 5.892,10.377 z"
     id="path4346"
     inkscape:connector-curvature="0"
     style="fill:#ffffff" />
  <path
     d="m -130.24187,222.7474 c 0,0 -0.693,-1.038 0.809,-4.266 1.502,-3.229 6.123,-11.184 6.123,-11.184 l -7.163,-4.958 -3.581,0.115 c 0,0 -4.159,6.572 -3.12,9.109 l 6.932,11.184 z"
     id="path4348"
     inkscape:connector-curvature="0"
     style="fill:#ffffff" />
  <path
     d="m -126.08287,225.2834 c 0,0 -3.581,-0.692 -3.35,-2.998 0.115,-2.421 3.35,-8.301 3.35,-8.301 l 11.438,-0.346 0.462,11.645 -11.9,0 z"
     id="path4350"
     inkscape:connector-curvature="0"
     style="fill:#ffffff" />
  <defs
     id="defs4352">
    <linearGradient
       id="paint0_linear"
       x1="369.5"
       y1="153.5"
       x2="868"
       y2="652"
       gradientUnits="userSpaceOnUse">
      <stop
         stop-color="white"
         id="stop4355" />
      <stop
         offset="1"
         stop-color="white"
         stop-opacity="0"
         id="stop4357" />
    </linearGradient>
  </defs>
  <rect
     style="opacity:1;fill:#e1e1e6;fill-opacity:1;fill-rule:nonzero;stroke:#b7b7b7;stroke-width:9.27907181;stroke-linecap:square;stroke-linejoin:miter;stroke-miterlimit:4;stroke-dasharray:none;stroke-dashoffset:0;stroke-opacity:1;paint-order:markers fill stroke"
     id="rect4422"
     width="1.3383341"
     height="53.105396"
     x="398.05124"
     y="279.24869"
     ry="0.87777507" />
  <rect
     ry="0.25632197"
     y="450.90518"
     x="135.56088"
     height="15.507482"
     width="3.0490165"
     id="rect4424"
     style="opacity:1;fill:#e1e1e6;fill-opacity:1;fill-rule:nonzero;stroke:#b7b7b7;stroke-width:7.56838942;stroke-linecap:square;stroke-linejoin:miter;stroke-miterlimit:4;stroke-dasharray:none;stroke-dashoffset:0;stroke-opacity:1;paint-order:markers fill stroke"
     transform="matrix(0.78136638,-0.62407257,0.62407257,0.78136638,0,0)" />
  <rect
     transform="matrix(-0.32305632,-0.94637974,0.94637974,-0.32305632,0,0)"
     style="opacity:1;fill:#e1e1e6;fill-opacity:1;fill-rule:nonzero;stroke:#b7b7b7;stroke-width:7.56838942;stroke-linecap:square;stroke-linejoin:miter;stroke-miterlimit:4;stroke-dasharray:none;stroke-dashoffset:0;stroke-opacity:1;paint-order:markers fill stroke"
     id="rect4426"
     width="3.0490165"
     height="15.507482"
     x="-380.40921"
     y="266.29059"
     ry="0.25632197" />
  <rect
     ry="0.43765795"
     y="-256.53082"
     x="384.11487"
     height="26.47831"
     width="2.2057853"
     id="rect4430"
     style="opacity:1;fill:#e1e1e6;fill-opacity:1;fill-rule:nonzero;stroke:#613a1a;stroke-width:8.41162014;stroke-linecap:square;stroke-linejoin:miter;stroke-miterlimit:4;stroke-dasharray:none;stroke-dashoffset:0;stroke-opacity:1;paint-order:markers fill stroke"
     transform="matrix(0.34603335,0.93822221,-0.93822221,0.34603335,0,0)" />
  <rect
     style="opacity:1;fill:#e1e1e6;fill-opacity:1;fill-rule:nonzero;stroke:#b7b7b7;stroke-width:9.92516994;stroke-linecap:square;stroke-linejoin:miter;stroke-miterlimit:4;stroke-dasharray:none;stroke-dashoffset:0;stroke-opacity:1;paint-order:markers fill stroke"
     id="rect4434"
     width="0.69223559"
     height="117.46706"
     x="587.62585"
     y="336.68137"
     ry="1.9416043" />
  <rect
     style="opacity:1;fill:#673611;fill-opacity:1;fill-rule:nonzero;stroke:none;stroke-width:12.02200031;stroke-linecap:square;stroke-linejoin:miter;stroke-miterlimit:4;stroke-dasharray:none;stroke-dashoffset:0;stroke-opacity:1;paint-order:markers fill stroke"
     id="rect4436"
     width="98.726746"
     height="13.366083"
     x="507.56052"
     y="452.18564"
     ry="0" />
  <path
     d="m 419.643,438.82062 a 14.429293,14.429293 0 0 1 -4.22005,-19.96402 14.429293,14.429293 0 0 1 19.96364,-4.22187 14.429293,14.429293 0 0 1 4.2237,19.96324 14.429293,14.429293 0 0 1 -19.96286,4.22553"
     sodipodi:open="true"
     sodipodi:end="2.1475578"
     sodipodi:start="2.1479244"
     sodipodi:ry="14.429293"
     sodipodi:rx="14.429293"
     sodipodi:cy="426.72839"
     sodipodi:cx="427.5159"
     sodipodi:type="arc"
     id="path4440"
     style="opacity:1;fill:#484445;fill-opacity:1;fill-rule:nonzero;stroke:none;stroke-width:12.02200031;stroke-linecap:square;stroke-linejoin:miter;stroke-miterlimit:4;stroke-dasharray:none;stroke-dashoffset:0;stroke-opacity:1;paint-order:markers fill stroke" />
  <path
     style="opacity:1;fill:#a5a5a5;fill-opacity:1;fill-rule:nonzero;stroke:none;stroke-width:12.02200031;stroke-linecap:square;stroke-linejoin:miter;stroke-miterlimit:4;stroke-dasharray:none;stroke-dashoffset:0;stroke-opacity:1;paint-order:markers fill stroke"
     id="path4438"
     sodipodi:type="arc"
     sodipodi:cx="427.5159"
     sodipodi:cy="426.72839"
     sodipodi:rx="10.176449"
     sodipodi:ry="10.176449"
     sodipodi:start="2.1479244"
     sodipodi:end="2.1475578"
     sodipodi:open="true"
     d="m 421.96343,435.25659 a 10.176449,10.176449 0 0 1 -2.97624,-14.07988 10.176449,10.176449 0 0 1 14.07961,-2.97753 10.176449,10.176449 0 0 1 2.97883,14.07934 10.176449,10.176449 0 0 1 -14.07907,2.98011" />
  <path
     style="opacity:1;fill:#484445;fill-opacity:1;fill-rule:nonzero;stroke:none;stroke-width:12.02200031;stroke-linecap:square;stroke-linejoin:miter;stroke-miterlimit:4;stroke-dasharray:none;stroke-dashoffset:0;stroke-opacity:1;paint-order:markers fill stroke"
     id="path4442"
     sodipodi:type="arc"
     sodipodi:cx="525.63507"
     sodipodi:cy="483.23044"
     sodipodi:rx="14.429293"
     sodipodi:ry="14.429293"
     sodipodi:start="2.1479244"
     sodipodi:end="2.1475578"
     sodipodi:open="true"
     d="m 517.76217,495.32266 a 14.429293,14.429293 0 0 1 -4.22005,-19.96402 14.429293,14.429293 0 0 1 19.96364,-4.22187 14.429293,14.429293 0 0 1 4.2237,19.96325 14.429293,14.429293 0 0 1 -19.96286,4.22553" />
  <path
     d="m 520.66271,490.86763 a 9.1132374,9.1132374 0 0 1 -2.66529,-12.60885 9.1132374,9.1132374 0 0 1 12.60861,-2.66645 9.1132374,9.1132374 0 0 1 2.6676,12.60837 9.1132374,9.1132374 0 0 1 -12.60812,2.66876"
     sodipodi:open="true"
     sodipodi:end="2.1475578"
     sodipodi:start="2.1479244"
     sodipodi:ry="9.1132374"
     sodipodi:rx="9.1132374"
     sodipodi:cy="483.23044"
     sodipodi:cx="525.63507"
     sodipodi:type="arc"
     id="path4444"
     style="opacity:1;fill:#a5a5a5;fill-opacity:1;fill-rule:nonzero;stroke:none;stroke-width:12.02200031;stroke-linecap:square;stroke-linejoin:miter;stroke-miterlimit:4;stroke-dasharray:none;stroke-dashoffset:0;stroke-opacity:1;paint-order:markers fill stroke" />
  <path
     d="m 582.16238,495.32266 a 14.429293,14.429293 0 0 1 -4.22005,-19.96402 14.429293,14.429293 0 0 1 19.96363,-4.22187 14.429293,14.429293 0 0 1 4.22371,19.96325 14.429293,14.429293 0 0 1 -19.96286,4.22553"
     sodipodi:open="true"
     sodipodi:end="2.1475578"
     sodipodi:start="2.1479244"
     sodipodi:ry="14.429293"
     sodipodi:rx="14.429293"
     sodipodi:cy="483.23044"
     sodipodi:cx="590.03528"
     sodipodi:type="arc"
     id="path4446"
     style="opacity:1;fill:#484445;fill-opacity:1;fill-rule:nonzero;stroke:none;stroke-width:12.02200031;stroke-linecap:square;stroke-linejoin:miter;stroke-miterlimit:4;stroke-dasharray:none;stroke-dashoffset:0;stroke-opacity:1;paint-order:markers fill stroke" />
  <path
     style="opacity:1;fill:#a5a5a5;fill-opacity:1;fill-rule:nonzero;stroke:none;stroke-width:12.02200031;stroke-linecap:square;stroke-linejoin:miter;stroke-miterlimit:4;stroke-dasharray:none;stroke-dashoffset:0;stroke-opacity:1;paint-order:markers fill stroke"
     id="path4448"
     sodipodi:type="arc"
     sodipodi:cx="590.03528"
     sodipodi:cy="483.23044"
     sodipodi:rx="9.1132374"
     sodipodi:ry="9.1132374"
     sodipodi:start="2.1479244"
     sodipodi:end="2.1475578"
     sodipodi:open="true"
     d="m 585.06292,490.86763 a 9.1132374,9.1132374 0 0 1 -2.66529,-12.60885 9.1132374,9.1132374 0 0 1 12.60861,-2.66645 9.1132374,9.1132374 0 0 1 2.6676,12.60837 9.1132374,9.1132374 0 0 1 -12.60812,2.66876" />
  <rect
     y="426.94562"
     x="548.60107"
     height="14.149658"
     width="11.15314"
     id="rect4482"
     style="opacity:1;fill:#ffca92;fill-opacity:1;fill-rule:nonzero;stroke:none;stroke-width:7.42199993;stroke-linecap:square;stroke-linejoin:miter;stroke-miterlimit:4;stroke-dasharray:none;stroke-dashoffset:0;stroke-opacity:1;paint-order:markers fill stroke" />
  <path
     sodipodi:nodetypes="cccc"
     inkscape:connector-curvature="0"
     id="path4476"
     d="m 547.96592,439.99579 c 18.58784,0.10328 33.14906,-0.28998 41.64178,12.32817 l -41.64178,0 z"
     style="opacity:1;fill:#4d4d4d;fill-opacity:1;fill-rule:nonzero;stroke:none;stroke-width:7.42199993;stroke-linecap:square;stroke-linejoin:miter;stroke-miterlimit:4;stroke-dasharray:none;stroke-dashoffset:0;stroke-opacity:1;paint-order:markers fill stroke" />
  <rect
     style="opacity:1;fill:#ffca92;fill-opacity:1;fill-rule:nonzero;stroke:none;stroke-width:7.42199993;stroke-linecap:square;stroke-linejoin:miter;stroke-miterlimit:4;stroke-dasharray:none;stroke-dashoffset:0;stroke-opacity:1;paint-order:markers fill stroke"
     id="rect4480"
     width="11.15314"
     height="14.149658"
     x="518.76062"
     y="427.99881" />
  <path
     style="opacity:1;fill:#333333;fill-opacity:1;fill-rule:nonzero;stroke:none;stroke-width:7.42199993;stroke-linecap:square;stroke-linejoin:miter;stroke-miterlimit:4;stroke-dasharray:none;stroke-dashoffset:0;stroke-opacity:1;paint-order:markers fill stroke"
     d="m 517.2825,440.12862 c 18.58784,0.10328 25.75216,-2.48165 41.64179,12.32816 l -41.64179,0 z"
     id="rect4473"
     inkscape:connector-curvature="0"
     sodipodi:nodetypes="cccc" />
  <path
     id="path4540"
     d="m 466.82766,232.98028 c 0.115,-14.0661 1.155,-32.6292 1.155,-32.6292 l -27.727,-7.6097 c 0,0 0.924,25.1351 1.733,40.4699 -12.593,4.266 -26.919,12.337 -26.919,12.337 l 52.335,13.259 20.91629,-20.77617 c 0,0 -11.55829,-6.20383 -21.49329,-5.05083 z"
     inkscape:connector-curvature="0"
     style="fill:#e09b8d"
     sodipodi:nodetypes="cccccccc" />
  <path
     sodipodi:nodetypes="cccscccc"
     inkscape:connector-curvature="0"
     id="path4542"
     d="m 479.98275,314.75643 c -10.9537,-14.43956 -9.44411,-46.66369 -7.20491,-61.78684 6.05343,-9.20329 7.25997,-23.14987 20.20676,-7.01162 2.8206,4.26178 1.10332,10.61549 1.2174,25.56355 0.0965,12.64436 -0.70064,20.33777 1.04971,25.69371 1.63868,4.32687 15.66983,5.35912 21.11877,5.41851 l -0.13497,12.71214 c 0,0 -33.25016,2.54804 -36.25276,-0.58945 z"
     style="opacity:1;fill:#170f27;fill-opacity:1;fill-rule:nonzero;stroke:none;stroke-width:7.42199993;stroke-linecap:square;stroke-linejoin:miter;stroke-miterlimit:4;stroke-dasharray:none;stroke-dashoffset:0;stroke-opacity:1;paint-order:markers fill stroke" />
  <path
     id="path4536"
     d="m 494.66753,252.57307 c -1.733,-15.1692 -10.405,-18.44553 -18.954,-19.17384 -3.813,5.58228 -9.127,9.58692 -16.405,9.83004 -8.319,0.24207 -15.944,-2.79114 -19.987,-9.46589 -12.939,1.57765 -25.763,5.46125 -28.652,14.68297 -6.123,19.4159 -0.808,96.73327 -0.808,96.73327 0,0 45.757,9.3438 88.272,0.84934 0.23606,-1.91112 -1.155,-73.19169 -3.466,-93.45589 z"
     inkscape:connector-curvature="0"
     style="fill:#322153;fill-opacity:1"
     sodipodi:nodetypes="cccccccc" />
  <rect
     style="opacity:1;fill:#a8a857;fill-opacity:1;fill-rule:nonzero;stroke:none;stroke-width:0.52200001;stroke-linecap:square;stroke-linejoin:miter;stroke-miterlimit:4;stroke-dasharray:none;stroke-dashoffset:0;stroke-opacity:1;paint-order:markers fill stroke"
     id="rect4376"
     width="175.70728"
     height="15.036263"
     x="406.77545"
     y="314.60828"
     ry="7.5181313" />
  <path
     id="path4538"
     d="m 407.66753,297.54155 c 0.21554,33.91837 2.04814,47.35 2.04814,47.35 0,0 48.29414,9.00581 87.96463,0.81861 0,0 -0.75487,-50.8588 -2.37192,-83.13893 -29.21331,11.81265 -58.42755,23.50865 -87.64085,34.97032 z"
     inkscape:connector-curvature="0"
     style="opacity:0.2;fill:#1e1920;fill-opacity:1"
     sodipodi:nodetypes="ccccc" />
  <rect
     style="opacity:1;fill:#a8a857;fill-opacity:1;fill-rule:nonzero;stroke:none;stroke-width:0.52200001;stroke-linecap:square;stroke-linejoin:miter;stroke-miterlimit:4;stroke-dasharray:none;stroke-dashoffset:0;stroke-opacity:1;paint-order:markers fill stroke"
     id="rect4374"
     width="189.45456"
     height="43.389816"
     x="401.62021"
     y="345.53958" />
  <rect
     ry="1.9416043"
     y="336.37759"
     x="511.68219"
     height="117.46706"
     width="0.69223559"
     id="rect4432"
     style="opacity:1;fill:#e1e1e6;fill-opacity:1;fill-rule:nonzero;stroke:#b7b7b7;stroke-width:9.92516994;stroke-linecap:square;stroke-linejoin:miter;stroke-miterlimit:4;stroke-dasharray:none;stroke-dashoffset:0;stroke-opacity:1;paint-order:markers fill stroke" />
  <rect
     style="opacity:1;fill:none;fill-opacity:0.5955056;fill-rule:nonzero;stroke:#b7b7b7;stroke-width:9.58089352;stroke-linecap:square;stroke-linejoin:miter;stroke-miterlimit:4;stroke-dasharray:none;stroke-dashoffset:0;stroke-opacity:1;paint-order:markers fill stroke"
     id="rect4378"
     width="190.20094"
     height="63.26115"
     x="398.27747"
     y="329.31125"
     ry="6.2880855"
     rx="0" />
  <path
     style="opacity:1;fill:#352459;fill-opacity:1;fill-rule:nonzero;stroke:none;stroke-width:7.42199993;stroke-linecap:square;stroke-linejoin:miter;stroke-miterlimit:4;stroke-dasharray:none;stroke-dashoffset:0;stroke-opacity:1;paint-order:markers fill stroke"
     d="m 416.55966,314.64788 c -10.05597,-14.58766 -8.6701,-47.14229 -6.61442,-62.42056 0.44614,-4.76392 6.11985,-17.35887 17.13529,-10.88732 0.37138,0.66066 3.28727,2.14883 3.69437,3.58025 0.65233,2.29365 3.74762,5.58299 4.08025,26.04928 0.20759,12.77272 -0.8711,20.54637 0.73579,25.95724 1.50438,4.37125 31.40498,5.41408 36.40735,5.47408 l -0.12391,12.84252 c 0,0 -52.55819,2.57417 -55.31472,-0.59549 z"
     id="path4486"
     inkscape:connector-curvature="0"
     sodipodi:nodetypes="cccsscccc" />
  <path
     style="opacity:1;fill:#ffca92;fill-opacity:1;fill-rule:nonzero;stroke:none;stroke-width:7.42199993;stroke-linecap:square;stroke-linejoin:miter;stroke-miterlimit:4;stroke-dasharray:none;stroke-dashoffset:0;stroke-opacity:1;paint-order:markers fill stroke"
     d="m 507.26446,318.51799 c -0.26739,-0.26229 -1.642,-0.59306 -3.05467,-0.73504 -1.41267,-0.14199 -3.10131,-0.44453 -3.75249,-0.67231 -1.92399,-0.67303 -3.78875,-0.87368 -3.78875,-0.40771 0,0.7074 -2.90943,0.49756 -6.86714,-0.4953 -4.20719,-1.05545 -5.84835,-1.13687 -8.47841,-0.42058 -1.44039,0.39227 -2.43294,0.34898 -4.49915,-0.19627 -1.45809,-0.38476 -3.18385,-0.66469 -3.83504,-0.62204 -0.85472,0.056 -1.17301,-0.14853 -1.14452,-0.73541 0.0218,-0.44712 0.0749,-2.58981 0.1184,-4.76154 l 0.079,-3.94861 3.30836,0 c 1.8196,0 4.21717,0.19986 5.32794,0.4441 1.11076,0.24426 3.83107,0.69094 6.04512,0.99264 4.18715,0.57054 9.79666,2.29499 11.83987,3.63974 0.6512,0.42859 2.19629,1.29049 3.43356,1.91533 1.23727,0.62484 2.24958,1.26785 2.24958,1.42892 0,0.16106 0.63936,0.55261 1.42078,0.8701 0.78144,0.31749 1.42079,0.72738 1.42079,0.91087 0,0.18349 0.53642,0.57335 1.19205,0.86636 1.04989,0.46923 1.12102,0.64431 0.59647,1.4682 -0.67607,1.06186 -0.92453,1.13254 -1.61167,0.45855 z"
     id="path4488"
     inkscape:connector-curvature="0" />
  <path
     id="path4514"
     d="m 437.81161,165.61355 c 0,0 9.19012,-23.01245 29.47913,-18.1006 20.28903,4.91174 21.75819,30.06443 23.34586,47.02335 1.58078,17.07391 -5.13652,31.91813 -21.30875,32.79727 -14.05805,0.7748 -38.24568,-3.21557 -31.51624,-61.72002 z"
     inkscape:connector-curvature="0"
     style="fill:#ffb39f" />
  <path
     id="path4516"
     d="m 437.53554,185.34837 c 0,0 -0.96675,-3.17651 -5.90215,-0.007 -6.25928,4.01423 -1.11265,20.49324 6.25675,19.20228 7.36841,-1.29112 -0.3546,-19.19517 -0.3546,-19.19517 z"
     inkscape:connector-curvature="0"
     style="fill:#ffb39f" />
  <path
     id="path4518"
     d="m 432.83252,151.80113 c 0.46807,-0.0875 9.50531,-0.23903 3.47359,-0.0229 5.17649,6.31641 4.51088,7.77811 12.03948,9.61518 3.29101,12.67181 -5.11395,19.67606 -5.11395,19.67606 l 1.29462,15.09325 -5.80114,0.22995 c 0,0 0.73642,-10.35138 -3.59055,-11.53469 -4.32698,-1.18331 -5.91291,4.03498 -5.91291,4.03498 -8.42108,-12.05513 -16.29596,-35.16598 3.61086,-37.09184 z"
     inkscape:connector-curvature="0"
     style="fill:#653817;fill-opacity:1" />
  <path
     id="path4520"
     d="m 471.43965,137.48151 c -14.09804,-1.99975 -39.02551,-1.76071 -41.23039,17.62755 -2.33538,19.38052 19.69862,6.49347 19.69862,6.49347 0,0 41.78801,16.51489 49.70341,-13.27323 -14.78104,-2.85734 -16.27529,-7.85286 -28.17164,-10.84779 z"
     inkscape:connector-curvature="0"
     style="fill:#653817;fill-opacity:1"
     sodipodi:nodetypes="ccccc" />
  <path
     id="path4522"
     d="m 465.93928,176.9427 c 0,0 -0.34041,0.0674 -0.81599,0.0439 -0.58939,-9.5e-4 -1.29159,0.0205 -2.10661,0.0641 -0.47656,-0.0236 -0.816,0.0439 -1.26921,0.13354 -0.47559,-0.0235 -0.92881,0.0662 -1.38301,0.15605 -0.45321,0.0897 -0.90644,0.17932 -1.47344,0.29149 -0.22662,0.0448 -0.45322,0.0897 -0.67983,0.13448 l -0.65745,0.24759 c -0.45322,0.0897 -0.88406,0.29242 -1.4287,0.5177 -0.43083,0.20277 -0.86168,0.40553 -1.29252,0.6083 -0.43084,0.20275 -0.83931,0.51863 -1.27015,0.72139 -0.43182,0.20296 -0.72649,0.49632 -1.15734,0.69908 -0.31802,0.18046 -0.74887,0.38322 -0.93073,0.65426 -0.31802,0.18045 -0.52226,0.33839 -0.72649,0.49632 -0.40847,0.31587 -0.72551,0.49613 -0.72551,0.49613 0,0 0.0457,-0.36164 0.18279,-0.8589 0.069,-0.24873 0.11471,-0.61037 0.27421,-0.99452 0.15948,-0.38416 0.31898,-0.76831 0.59225,-1.17497 0.27328,-0.40667 0.41038,-0.90393 0.79647,-1.3329 0.3861,-0.42899 0.77219,-0.85796 1.27207,-1.30946 0.52128,-0.33818 1.02117,-0.78968 1.54343,-1.12807 0.63507,-0.3607 1.17873,-0.58578 1.83717,-0.83356 l 0.99687,-0.31474 c 0.3404,-0.0674 0.6808,-0.13468 1.0426,-0.0887 0.34041,-0.0674 0.7022,-0.0214 0.92881,-0.0662 0.36278,0.0458 0.58939,9.5e-4 0.95216,0.0467 0.61078,0.11423 1.20017,0.11518 1.72052,0.36485 0.49796,0.13656 1.0183,0.38623 1.51628,0.52278 0.38514,0.15888 0.79268,0.43086 1.17685,0.58994 0.27136,0.18139 0.56509,0.47589 0.81408,0.54416 -0.0234,0.47475 0.27042,0.76925 0.27042,0.76925 z"
     inkscape:connector-curvature="0"
     style="fill:#653817;fill-opacity:1" />
  <path
     id="path4524"
     d="m 484.45597,181.01785 c 0,0 -0.18764,-0.17734 -0.59635,-0.42166 -0.40871,-0.24432 -0.89501,-0.63263 -1.38129,-1.02093 -0.2977,-0.21068 -0.59639,-0.42156 -0.89408,-0.63224 -0.29866,-0.21097 -0.59728,-0.42204 -0.92841,-0.52237 -0.33209,-0.10064 -0.62981,-0.31122 -0.92847,-0.52219 -0.11006,-0.0333 -0.33209,-0.10064 -0.40871,-0.24432 l -0.44215,-0.13397 c -0.29866,-0.21097 -0.69666,-0.0906 -0.99531,-0.30159 -0.36553,0.01 -0.69666,-0.0906 -1.06219,-0.0809 -0.36457,0.01 -0.73009,0.0198 -1.09466,0.0298 -0.36553,0.01 -0.73102,0.0193 -0.98553,0.0627 -0.36457,0.01 -0.73009,0.0198 -0.98461,0.0631 -0.25451,0.0434 -0.50902,0.0867 -0.73009,0.0198 -0.47559,-0.0235 -0.7301,0.0198 -0.7301,0.0198 0,0 0.0669,-0.22068 0.42169,-0.59508 0.17693,-0.18734 0.24381,-0.40803 0.56516,-0.67198 0.21132,-0.29741 0.49926,-0.45111 0.82064,-0.71516 0.32139,-0.26404 0.64277,-0.52809 1.07516,-0.75851 0.43144,-0.2307 0.94046,-0.31742 1.37286,-0.54783 0.50902,-0.0867 1.12906,-0.13979 1.63807,-0.2265 0.5866,0.0573 1.17225,0.11421 1.72541,0.28185 0.33113,0.10029 0.55221,0.16733 0.88429,0.26795 0.33209,0.10064 0.51973,0.27796 0.70737,0.45529 0.22107,0.067 0.51877,0.27768 0.70641,0.45501 0.18859,0.17763 0.37623,0.35495 0.56387,0.53228 0.71711,0.81968 1.21317,1.57238 1.4547,2.36843 0.24153,0.79604 0.29542,1.41476 0.38278,1.92303 -0.0896,0.69571 -0.15647,0.91641 -0.15647,0.91641 z"
     inkscape:connector-curvature="0"
     style="fill:#653817;fill-opacity:1" />
  <path
     id="path4526"
     d="m 471.06762,180.08063 c 0.60211,1.53767 1.19832,3.19048 1.80044,4.72815 0.29711,0.82625 0.48632,1.53063 0.78443,2.35703 l 0.78443,2.35714 0.78443,2.35713 c 0.2981,0.82641 0.48732,1.53069 0.78543,2.3571 l 0.39221,1.17857 c 0.0941,0.35215 0.29711,0.82634 0.39222,1.17856 0.305,0.71132 0.60901,1.42257 0.90711,2.24898 l 0.29022,0.94144 -0.71245,0.30384 c -1.06572,0.39817 -4.24738,0.2908 -5.42889,0.68204 -1.06472,0.39823 -2.24624,0.78947 -3.41986,1.06567 0.97062,-0.7504 1.93434,-1.38569 2.89905,-2.02083 0.96373,-0.6353 4.15328,-0.64306 5.117,-1.27836 l -0.42223,1.24527 c -0.4198,-0.71819 -0.8327,-1.55147 -1.2525,-2.26967 -0.4198,-0.71819 -0.71791,-1.5446 -1.01502,-2.37095 l -0.508,-1.1855 -0.39222,-1.17847 c -0.18232,-0.81947 -0.48042,-1.64588 -0.66274,-2.46535 l -0.54695,-2.45841 c -0.18231,-0.81948 -0.24983,-1.63207 -0.43215,-2.45154 -0.004,-1.84827 -0.13161,-3.58849 -0.14396,-5.32184 z"
     inkscape:connector-curvature="0"
     style="fill:#dd9078"
     sodipodi:nodetypes="ccccccccccccccccscccsccc" />
  <path
     id="path4528"
     d="m 436.24443,201.09524 c -0.44738,-0.25782 -0.88787,-0.63073 -1.20566,-1.1118 -0.32569,-0.36604 -0.75928,-0.85404 -0.9554,-1.44323 -0.102,-0.23712 -0.1961,-0.58928 -0.17542,-0.93456 0.007,-0.11509 0.0207,-0.34528 0.0276,-0.46037 0.007,-0.1151 0.13548,-0.33841 0.14238,-0.4535 0.13648,-0.33834 0.38085,-0.55472 0.62523,-0.77109 0.12169,-0.10821 0.24438,-0.21637 0.36607,-0.32458 l 0.36017,-0.20944 -0.25127,0.33147 c 0.0759,-1.26603 0.15171,-2.53206 0.10487,-3.68994 -0.0389,-1.2728 -0.0789,-2.54577 -0.47799,-3.60924 -0.101,-0.23707 -0.203,-0.47419 -0.42669,-0.6031 -0.1079,-0.12198 -0.33159,-0.25089 -0.56218,-0.2647 -0.11579,-0.007 -0.23158,-0.0139 -0.35327,0.0943 -0.1158,-0.007 -0.35328,0.0943 -0.46807,0.0875 -0.23748,0.10128 -0.47497,0.20256 -0.71934,0.41893 -0.24438,0.21637 -0.48286,0.31759 -0.61145,0.5409 -0.12958,0.22325 -0.37396,0.43962 -0.50944,0.77802 -0.26507,0.56165 -0.41534,1.13018 -0.45671,1.82065 -0.19611,-0.58929 -0.15474,-1.27975 0.002,-1.96337 0.0207,-0.34528 0.15617,-0.68369 0.40055,-0.90006 0.13648,-0.33834 0.38086,-0.55471 0.62523,-0.77108 l 0.36707,-0.32453 0.48186,-0.31765 c 0.12169,-0.10822 0.35228,-0.0944 0.47497,-0.20256 0.12169,-0.10821 0.35227,-0.0944 0.58975,-0.19568 0.46907,-0.0874 0.92335,0.0553 1.24804,0.4213 0.33259,0.25094 0.54249,0.61004 0.63659,0.9622 0.30501,0.71131 0.38632,1.29372 0.57553,1.9981 0.0734,0.69744 0.15474,1.27974 0.11336,1.9703 0.0389,1.27291 -0.0369,2.53894 -0.23446,3.91319 l -0.0138,0.23018 -0.23748,0.10128 c -0.23748,0.10128 -0.47497,0.20256 -0.60455,0.42581 -0.12269,0.10815 -0.36707,0.32452 -0.48876,0.43274 -0.12269,0.10815 -0.12958,0.22325 -0.13648,0.33834 -0.007,0.1151 -0.12858,0.22331 -0.13548,0.3384 -0.0138,0.23019 -0.0276,0.46038 -0.0414,0.69047 0.0872,0.46725 0.29022,0.94144 0.60901,1.42257 0.66418,0.50182 0.98987,0.86785 1.31456,1.23383 z"
     inkscape:connector-curvature="0"
     style="fill:#dd9078" />
  <path
     id="path4530"
     d="m 455.1172,189.37473 c 0,0 0.10676,0.15773 0.20448,0.46618 0.10576,0.15768 0.0967,0.30847 0.20349,0.46619 0.10575,0.15767 0.208,0.39079 0.42503,0.63079 0.10124,0.23306 0.43859,0.40461 0.53983,0.63768 0.11127,0.0823 0.22155,0.16461 0.4431,0.32921 0.11128,0.0823 0.22255,0.16467 0.44862,0.25388 0.33635,0.17148 0.67821,0.26763 1.01907,0.36372 0.23059,0.0138 0.34186,0.0961 0.57245,0.10993 0.23059,0.0138 0.34638,0.0208 0.58148,-0.0408 l 0.585,-0.11628 0.59052,-0.19161 c 0.35541,-0.13004 0.59955,-0.34241 0.84369,-0.55478 0.24414,-0.21237 0.37249,-0.43168 0.61662,-0.64405 0.12935,-0.21924 0.2577,-0.43855 0.27576,-0.74013 0.0136,-0.22619 0.0271,-0.45238 0.15193,-0.59616 0.0136,-0.22618 0.0226,-0.37698 0.0316,-0.52777 0.0181,-0.30158 0.0271,-0.45237 0.0271,-0.45237 0,0 0.10576,0.15766 0.20348,0.46618 0.10676,0.15773 0.0977,0.30853 0.19896,0.54159 -0.0135,0.22612 0.0887,0.45924 0.0751,0.68543 -0.0136,0.22619 -0.0316,0.52777 -0.16548,0.82241 -0.13286,0.2947 -0.26672,0.58935 -0.51538,0.87711 -0.24866,0.28777 -0.6131,0.56859 -1.08783,0.76714 l -0.70983,0.26015 c -0.2351,0.0616 -0.586,0.11622 -0.8211,0.1778 -0.23059,-0.0138 -0.58048,0.0408 -0.92686,0.0201 -0.23059,-0.0138 -0.57245,-0.10994 -0.80304,-0.12375 -0.57145,-0.10988 -1.01907,-0.36373 -1.46769,-0.61761 -0.44762,-0.25381 -0.66014,-0.56921 -0.87717,-0.80921 -0.21252,-0.31539 -0.42955,-0.5554 -0.53079,-0.78847 -0.10224,-0.23312 -0.20449,-0.46624 -0.19093,-0.69242 0.0136,-0.22619 0.0226,-0.37698 0.0316,-0.52778 0.0181,-0.30151 0.0271,-0.4523 0.0271,-0.4523 z"
     inkscape:connector-curvature="0"
     style="fill:#1f2733" />
  <path
     id="path4532"
     d="m 476.1993,187.16171 c 0,0 0.1051,0.16862 0.20151,0.49904 0.1051,0.16862 0.0954,0.33036 0.20151,0.49904 0.10511,0.16863 0.20636,0.41817 0.42241,0.6746 0.10026,0.24949 0.43695,0.43199 0.5382,0.68154 0.10995,0.0877 0.2209,0.17555 0.4418,0.35111 0.10995,0.0877 0.22089,0.17556 0.44663,0.27025 0.33569,0.18243 0.67723,0.28406 1.01876,0.38569 0.23059,0.0138 0.34053,0.10154 0.57112,0.11536 0.23059,0.0138 0.34638,0.0207 0.58181,-0.0463 l 0.58566,-0.12724 0.5915,-0.20803 c 0.35607,-0.141 0.60119,-0.36979 0.84632,-0.59859 0.24512,-0.2288 0.37445,-0.46453 0.61957,-0.69333 0.13033,-0.23567 0.26066,-0.47135 0.28004,-0.79484 0.0145,-0.2426 0.0291,-0.48522 0.15356,-0.64008 0.0145,-0.24261 0.0242,-0.40435 0.0339,-0.56609 0.0194,-0.32349 0.0291,-0.48516 0.0291,-0.48516 0,0 0.10611,0.16861 0.20152,0.49897 0.1061,0.16868 0.0964,0.33042 0.19667,0.57991 -0.0145,0.24262 0.0867,0.49216 0.0722,0.73478 -0.0145,0.24261 -0.0339,0.56609 -0.16909,0.88264 -0.13417,0.3166 -0.26935,0.63315 -0.51932,0.94282 -0.24996,0.30967 -0.61572,0.6124 -1.09143,0.82738 l -0.71114,0.28204 c -0.23544,0.067 -0.58666,0.12717 -0.82209,0.19415 -0.23058,-0.0138 -0.58082,0.0464 -0.92719,0.0257 -0.23059,-0.0138 -0.57112,-0.11546 -0.80271,-0.12934 -0.57112,-0.11526 -1.01776,-0.38555 -1.46439,-0.6558 -0.44764,-0.27029 -0.65884,-0.6076 -0.87489,-0.86403 -0.21121,-0.33729 -0.42726,-0.59373 -0.52752,-0.84322 -0.10125,-0.24954 -0.20151,-0.49903 -0.18698,-0.74165 0.0145,-0.24261 0.0242,-0.40435 0.0339,-0.56609 0.0194,-0.32348 0.0291,-0.48523 0.0291,-0.48523 z"
     inkscape:connector-curvature="0"
     style="fill:#1f2733" />
  <path
     id="path4534"
     d="m 457.09779,207.58242 c 0,0 -0.12784,0.003 -0.003,0.0985 0.12404,0.0964 0.37592,0.19076 0.62891,0.28509 0.50106,0.28716 1.38347,0.56822 2.39214,0.94563 1.00754,0.37741 2.2697,0.75077 3.53457,1.0256 0.63162,0.18666 1.3927,0.27287 2.02705,0.3611 0.63435,0.0882 1.39543,0.17445 2.15652,0.26064 1.39815,0.076 2.79629,0.15201 4.19876,0.0312 1.40357,-0.12092 2.55526,-0.3361 3.70964,-0.64977 1.02655,-0.31162 1.92363,-0.52268 2.56499,-0.72972 0.64249,-0.20708 1.02766,-0.31164 1.02766,-0.31164 0,0 -0.26274,0.29938 -0.78117,0.60279 -0.52007,0.40188 -1.29742,0.90628 -2.3294,1.41476 -1.03197,0.50849 -2.44639,1.02311 -3.98052,1.24443 -1.53574,0.31977 -3.1912,0.3463 -4.84395,0.27437 -0.76109,-0.0862 -1.65003,-0.17037 -2.40841,-0.355 -0.75837,-0.18465 -1.51676,-0.36928 -2.14566,-0.65439 -1.38729,-0.46975 -2.51617,-1.04201 -3.39155,-1.61833 -0.87539,-0.57624 -1.6229,-1.15462 -1.9918,-1.64067 -0.24917,-0.19279 -0.3705,-0.38763 -0.36507,-0.5845 -0.12785,0.003 -0.13056,0.10054 0,0 z"
     inkscape:connector-curvature="0"
     style="fill:#dd9078" />
  <path
     inkscape:connector-curvature="0"
     id="path4544"
     d="m 546.08123,317.42456 c -0.22472,-0.22471 -1.37991,-0.50811 -2.56711,-0.62976 -1.18719,-0.12164 -2.60629,-0.38085 -3.15354,-0.576 -1.6169,-0.57663 -3.18401,-0.74855 -3.18401,-0.34932 0,0.60608 -2.44504,0.4263 -5.77103,-0.42435 -3.53569,-0.90427 -4.91488,-0.97402 -7.12514,-0.36034 -1.21049,0.33609 -2.04461,0.29899 -3.78103,-0.16815 -1.22534,-0.32966 -2.67565,-0.56949 -3.2229,-0.53295 -0.7183,0.048 -0.98578,-0.12726 -0.96184,-0.63007 0.0183,-0.38308 0.063,-2.21886 0.0995,-4.07952 l 0.0664,-3.38302 2.7803,0 c 1.52916,0 3.54404,0.17122 4.47752,0.38048 0.93346,0.20927 3.21958,0.59198 5.08024,0.85046 3.51881,0.48882 8.23297,1.96627 9.95005,3.1184 0.54724,0.36721 1.84572,1.10565 2.8855,1.64099 1.03979,0.53534 1.89052,1.08625 1.89052,1.22423 0,0.138 0.5373,0.47346 1.194,0.74548 0.65671,0.27202 1.19401,0.62319 1.19401,0.7804 0,0.15721 0.4508,0.49124 1.00178,0.74227 0.88232,0.40202 0.94209,0.55202 0.50126,1.2579 -0.56815,0.90976 -0.77696,0.97033 -1.35442,0.39287 z"
     style="opacity:1;fill:#ffca92;fill-opacity:1;fill-rule:nonzero;stroke:none;stroke-width:7.42199993;stroke-linecap:square;stroke-linejoin:miter;stroke-miterlimit:4;stroke-dasharray:none;stroke-dashoffset:0;stroke-opacity:1;paint-order:markers fill stroke" />
  <path
     style="opacity:1;fill:#653817;fill-opacity:1;fill-rule:nonzero;stroke:none;stroke-width:1;stroke-linecap:square;stroke-linejoin:miter;stroke-miterlimit:4;stroke-dasharray:none;stroke-dashoffset:0;stroke-opacity:1;paint-order:markers fill stroke"
     id="path4564"
     sodipodi:type="arc"
     sodipodi:cx="459.18121"
     sodipodi:cy="197.40547"
     sodipodi:rx="0.99295849"
     sodipodi:ry="0.99295849"
     sodipodi:start="2.1479244"
     sodipodi:end="2.1475578"
     sodipodi:open="true"
     d="m 458.63944,198.2376 a 0.99295849,0.99295849 0 0 1 -0.29041,-1.37383 0.99295849,0.99295849 0 0 1 1.37381,-0.29053 0.99295849,0.99295849 0 0 1 0.29065,1.37378 0.99295849,0.99295849 0 0 1 -1.37375,0.29078" />
  <path
     d="m 461.7058,197.83837 a 0.77574885,0.77574885 0 0 1 -0.22688,-1.07331 0.77574885,0.77574885 0 0 1 1.07328,-0.22698 0.77574885,0.77574885 0 0 1 0.22708,1.07327 0.77574885,0.77574885 0 0 1 -1.07325,0.22717"
     sodipodi:open="true"
     sodipodi:end="2.1475578"
     sodipodi:start="2.1479244"
     sodipodi:ry="0.77574885"
     sodipodi:rx="0.77574885"
     sodipodi:cy="197.18826"
     sodipodi:cx="462.12906"
     sodipodi:type="arc"
     id="path4566"
     style="opacity:1;fill:#653817;fill-opacity:1;fill-rule:nonzero;stroke:none;stroke-width:1;stroke-linecap:square;stroke-linejoin:miter;stroke-miterlimit:4;stroke-dasharray:none;stroke-dashoffset:0;stroke-opacity:1;paint-order:markers fill stroke" />
  <path
     style="opacity:1;fill:#653817;fill-opacity:1;fill-rule:nonzero;stroke:none;stroke-width:1;stroke-linecap:square;stroke-linejoin:miter;stroke-miterlimit:4;stroke-dasharray:none;stroke-dashoffset:0;stroke-opacity:1;paint-order:markers fill stroke"
     id="path4568"
     sodipodi:type="arc"
     sodipodi:cx="461.01199"
     sodipodi:cy="199.11212"
     sodipodi:rx="0.65162903"
     sodipodi:ry="0.65162903"
     sodipodi:start="2.1479244"
     sodipodi:end="2.1475578"
     sodipodi:open="true"
     d="m 460.65645,199.65821 a 0.65162903,0.65162903 0 0 1 -0.19058,-0.90158 0.65162903,0.65162903 0 0 1 0.90156,-0.19066 0.65162903,0.65162903 0 0 1 0.19075,0.90154 0.65162903,0.65162903 0 0 1 -0.90153,0.19083" />
  <path
     d="m 480.26738,195.25196 a 0.65162903,0.65162903 0 0 1 -0.19057,-0.90158 0.65162903,0.65162903 0 0 1 0.90156,-0.19066 0.65162903,0.65162903 0 0 1 0.19074,0.90154 0.65162903,0.65162903 0 0 1 -0.90153,0.19083"
     sodipodi:open="true"
     sodipodi:end="2.1475578"
     sodipodi:start="2.1479244"
     sodipodi:ry="0.65162903"
     sodipodi:rx="0.65162903"
     sodipodi:cy="194.70587"
     sodipodi:cx="480.62292"
     sodipodi:type="arc"
     id="path4570"
     style="opacity:1;fill:#653817;fill-opacity:1;fill-rule:nonzero;stroke:none;stroke-width:1;stroke-linecap:square;stroke-linejoin:miter;stroke-miterlimit:4;stroke-dasharray:none;stroke-dashoffset:0;stroke-opacity:1;paint-order:markers fill stroke" />
  <path
     style="opacity:1;fill:#653817;fill-opacity:1;fill-rule:nonzero;stroke:none;stroke-width:1;stroke-linecap:square;stroke-linejoin:miter;stroke-miterlimit:4;stroke-dasharray:none;stroke-dashoffset:0;stroke-opacity:1;paint-order:markers fill stroke"
     id="path4572"
     sodipodi:type="arc"
     sodipodi:cx="481.30557"
     sodipodi:cy="197.12621"
     sodipodi:rx="0.96192855"
     sodipodi:ry="0.96192855"
     sodipodi:start="2.1479244"
     sodipodi:end="2.1475578"
     sodipodi:open="true"
     d="m 480.78073,197.93233 a 0.96192855,0.96192855 0 0 1 -0.28133,-1.3309 0.96192855,0.96192855 0 0 1 1.33087,-0.28145 0.96192855,0.96192855 0 0 1 0.28157,1.33085 0.96192855,0.96192855 0 0 1 -1.33082,0.2817" />
  <path
     d="m 482.72999,196.22983 a 0.74471891,0.74471891 0 0 1 -0.2178,-1.03038 0.74471891,0.74471891 0 0 1 1.03035,-0.2179 0.74471891,0.74471891 0 0 1 0.21799,1.03034 0.74471891,0.74471891 0 0 1 -1.03031,0.21809"
     sodipodi:open="true"
     sodipodi:end="2.1475578"
     sodipodi:start="2.1479244"
     sodipodi:ry="0.74471891"
     sodipodi:rx="0.74471891"
     sodipodi:cy="195.60573"
     sodipodi:cx="483.13632"
     sodipodi:type="arc"
     id="path4574"
     style="opacity:1;fill:#653817;fill-opacity:1;fill-rule:nonzero;stroke:none;stroke-width:1;stroke-linecap:square;stroke-linejoin:miter;stroke-miterlimit:4;stroke-dasharray:none;stroke-dashoffset:0;stroke-opacity:1;paint-order:markers fill stroke" />
  <rect
     style="opacity:1;fill:#bf0000;fill-opacity:1;fill-rule:nonzero;stroke:none;stroke-width:1;stroke-linecap:square;stroke-linejoin:miter;stroke-miterlimit:4;stroke-dasharray:none;stroke-dashoffset:0;stroke-opacity:1;paint-order:markers fill stroke"
     id="rect4576"
     width="5.5292554"
     height="12.287234"
     x="636.19318"
     y="-63.971992"
     transform="matrix(0.97835203,0.20694759,-0.20694759,0.97835203,0,0)" />
  <rect
     y="632.81415"
     x="55.063744"
     height="12.287234"
     width="5.5292554"
     id="rect4580"
     style="opacity:1;fill:#bf0000;fill-opacity:1;fill-rule:nonzero;stroke:none;stroke-width:1;stroke-linecap:square;stroke-linejoin:miter;stroke-miterlimit:4;stroke-dasharray:none;stroke-dashoffset:0;stroke-opacity:1;paint-order:markers fill stroke"
     transform="matrix(0.20694759,-0.97835203,0.97835203,0.20694759,0,0)" />
  <path
     style="opacity:1;fill:#000000;fill-opacity:1;fill-rule:nonzero;stroke:none;stroke-width:7.42199993;stroke-linecap:square;stroke-linejoin:miter;stroke-miterlimit:4;stroke-dasharray:none;stroke-dashoffset:0;stroke-opacity:1;paint-order:markers fill stroke"
     d="m 544.99179,431.88108 c 0.004,-0.28674 -9.78909,-56.08801 -9.86153,-56.19121 -0.12395,-0.17657 -5.17383,-0.72537 -5.32094,-0.57826 -0.0876,0.0877 1.09348,11.98656 2.62475,26.44201 1.53126,14.45545 2.73291,26.33698 2.67031,26.4034 -0.11977,0.12709 -16.76585,3.24025 -17.39986,3.25413 -0.29243,0.007 -0.36771,-8.31019 -0.36771,-40.62406 l 0,-40.6321 0.80897,0.14934 c 0.44493,0.0821 8.88206,1.38793 18.74916,2.90178 17.64021,2.70641 17.95939,2.76725 19.08727,3.63808 1.62378,1.25374 3.30168,4.19046 3.84365,6.72736 0.44863,2.09999 6.38736,64.05917 6.16267,64.29563 -0.13715,0.14433 -20.07821,4.42769 -20.63211,4.4318 -0.20225,0.002 -0.36633,-0.0966 -0.36463,-0.2179 z"
     id="path4478"
     inkscape:connector-curvature="0" />
  <path
     style="opacity:1;fill:none;fill-opacity:1;fill-rule:nonzero;stroke:#ffffff;stroke-width:6.25750446;stroke-linecap:square;stroke-linejoin:miter;stroke-miterlimit:4;stroke-dasharray:none;stroke-dashoffset:0;stroke-opacity:1;paint-order:markers fill stroke"
     id="path4452"
     sodipodi:type="arc"
     sodipodi:cx="427.16934"
     sodipodi:cy="426.93704"
     sodipodi:rx="53.997166"
     sodipodi:ry="53.997166"
     sodipodi:start="2.1479244"
     sodipodi:end="2.1475578"
     sodipodi:open="true"
     d="m 397.70744,472.18845 a 53.997166,53.997166 0 0 1 -15.79221,-74.70916 53.997166,53.997166 0 0 1 74.70772,-15.79906 53.997166,53.997166 0 0 1 15.8059,74.70627 53.997166,53.997166 0 0 1 -74.70482,15.81275" />
  <path
     d="m 390.61622,483.08007 a 66.993813,66.993813 0 0 1 -19.59326,-92.69101 66.993813,66.993813 0 0 1 92.68922,-19.60175 66.993813,66.993813 0 0 1 19.61024,92.68742 66.993813,66.993813 0 0 1 -92.68562,19.61874"
     sodipodi:open="true"
     sodipodi:end="2.1475578"
     sodipodi:start="2.1479244"
     sodipodi:ry="66.993813"
     sodipodi:rx="66.993813"
     sodipodi:cy="426.93704"
     sodipodi:cx="427.16934"
     sodipodi:type="arc"
     id="path4456"
     style="opacity:1;fill:none;fill-opacity:1;fill-rule:nonzero;stroke:#000000;stroke-width:7.76363087;stroke-linecap:square;stroke-linejoin:miter;stroke-miterlimit:4;stroke-dasharray:none;stroke-dashoffset:0;stroke-opacity:1;paint-order:markers fill stroke" />
</svg>
