<?xml version="1.0" encoding="UTF-8" standalone="no"?>
<svg
   xmlns:dc="http://purl.org/dc/elements/1.1/"
   xmlns:cc="http://creativecommons.org/ns#"
   xmlns:rdf="http://www.w3.org/1999/02/22-rdf-syntax-ns#"
   xmlns:svg="http://www.w3.org/2000/svg"
   xmlns="http://www.w3.org/2000/svg"
   xmlns:sodipodi="http://sodipodi.sourceforge.net/DTD/sodipodi-0.dtd"
   xmlns:inkscape="http://www.inkscape.org/namespaces/inkscape"
   width="182"
   height="44"
   viewBox="0 0 182 44"
   fill="none"
   id="svg4582"
   version="1.1"
   inkscape:version="0.91 r13725"
   sodipodi:docname="logo.svg">
  <metadata
     id="metadata4628">
    <rdf:RDF>
      <cc:Work
         rdf:about="">
        <dc:format>image/svg+xml</dc:format>
        <dc:type
           rdf:resource="http://purl.org/dc/dcmitype/StillImage" />
      </cc:Work>
    </rdf:RDF>
  </metadata>
  <defs
     id="defs4626" />
  <sodipodi:namedview
     pagecolor="#ffffff"
     bordercolor="#666666"
     borderopacity="1"
     objecttolerance="10"
     gridtolerance="10"
     guidetolerance="10"
     inkscape:pageopacity="0"
     inkscape:pageshadow="2"
     inkscape:window-width="1366"
     inkscape:window-height="705"
     id="namedview4624"
     showgrid="false"
     inkscape:zoom="2.2857143"
     inkscape:cx="139.80248"
     inkscape:cy="36.800181"
     inkscape:window-x="-8"
     inkscape:window-y="-8"
     inkscape:window-maximized="1"
     inkscape:current-layer="svg4582" />
  <path
     d="m 93.875,-15.6055 0,-22.176 14.976,0 0,4.192 -9.984,0 0,4.352 8.864,0 0,4.096 -8.864,0 0,5.344 10.72,0 0,4.192 -15.712,0 z"
     id="path4584"
     inkscape:connector-curvature="0"
     style="fill:#322153" />
  <path
     d="m 111.7862,-24.0215 c 0,-1.216 0.192,-2.3573 0.576,-3.424 0.4054,-1.088 0.9814,-2.0267 1.7281,-2.816 0.7466,-0.8107 1.6533,-1.4507 2.7199,-1.92 1.0667,-0.4693 2.2827,-0.704 3.6481,-0.704 0.8959,0 1.7177,0.0853 2.4637,0.256 0.747,0.1493 1.472,0.3733 2.176,0.672 l -0.992,3.808 c -0.448,-0.1707 -0.938,-0.32 -1.472,-0.448 -0.533,-0.128 -1.1304,-0.192 -1.7917,-0.192 -1.408,0 -2.464,0.4373 -3.1681,1.312 -0.6826,0.8747 -1.024,2.0267 -1.024,3.456 0,1.5147 0.3201,2.688 0.9601,3.52 0.6613,0.832 1.8026,1.248 3.424,1.248 0.576,0 1.1947,-0.0533 1.8557,-0.16 0.662,-0.1067 1.27,-0.2773 1.824,-0.512 l 0.672,3.904 c -0.554,0.2347 -1.248,0.4373 -2.08,0.608 -0.832,0.1707 -1.7491,0.256 -2.7517,0.256 -1.536,0 -2.8587,-0.224 -3.968,-0.672 -1.1094,-0.4693 -2.0267,-1.0987 -2.7521,-1.888 -0.704,-0.7893 -1.2266,-1.7173 -1.5679,-2.784 -0.32,-1.088 -0.4801,-2.2613 -0.4801,-3.52 z"
     id="path4586"
     inkscape:connector-curvature="0"
     style="fill:#322153" />
  <path
     d="m 143.518,-24.0535 c 0,1.3227 -0.192,2.5387 -0.576,3.648 -0.384,1.088 -0.939,2.0267 -1.664,2.816 -0.726,0.768 -1.6,1.3653 -2.624,1.792 -1.003,0.4267 -2.134,0.64 -3.392,0.64 -1.238,0 -2.368,-0.2133 -3.392,-0.64 -1.003,-0.4267 -1.867,-1.024 -2.592,-1.792 -0.726,-0.7893 -1.291,-1.728 -1.696,-2.816 -0.406,-1.1093 -0.608,-2.3253 -0.608,-3.648 0,-1.3227 0.202,-2.528 0.608,-3.616 0.426,-1.088 1.002,-2.016 1.728,-2.784 0.746,-0.768 1.621,-1.3653 2.624,-1.792 1.024,-0.4267 2.133,-0.64 3.328,-0.64 1.216,0 2.325,0.2133 3.328,0.64 1.024,0.4267 1.898,1.024 2.624,1.792 0.725,0.768 1.29,1.696 1.696,2.784 0.405,1.088 0.608,2.2933 0.608,3.616 z m -4.864,0 c 0,-1.472 -0.299,-2.624 -0.896,-3.456 -0.576,-0.8533 -1.408,-1.28 -2.496,-1.28 -1.088,0 -1.931,0.4267 -2.528,1.28 -0.598,0.832 -0.896,1.984 -0.896,3.456 0,1.472 0.298,2.6453 0.896,3.52 0.597,0.8533 1.44,1.28 2.528,1.28 1.088,0 1.92,-0.4267 2.496,-1.28 0.597,-0.8747 0.896,-2.048 0.896,-3.52 z"
     id="path4588"
     inkscape:connector-curvature="0"
     style="fill:#322153" />
  <path
     d="m 153.931,-15.2855 c -1.386,-0.0213 -2.517,-0.1707 -3.392,-0.448 -0.853,-0.2773 -1.536,-0.6613 -2.048,-1.152 -0.49,-0.512 -0.832,-1.12 -1.024,-1.824 -0.17,-0.7253 -0.256,-1.536 -0.256,-2.432 l 0,-18.528 4.768,-0.768 0,18.336 c 0,0.4267 0.032,0.8107 0.096,1.152 0.064,0.3413 0.182,0.6293 0.352,0.864 0.192,0.2347 0.459,0.4267 0.8,0.576 0.342,0.1493 0.8,0.2453 1.376,0.288 l -0.672,3.936 z"
     id="path4590"
     inkscape:connector-curvature="0"
     style="fill:#322153" />
  <path
     d="m 156.536,-23.8935 c 0,-1.4933 0.224,-2.7947 0.672,-3.904 0.47,-1.1307 1.078,-2.0693 1.824,-2.816 0.747,-0.7467 1.6,-1.312 2.56,-1.696 0.982,-0.384 1.984,-0.576 3.008,-0.576 2.39,0 4.278,0.736 5.664,2.208 1.387,1.4507 2.08,3.5947 2.08,6.432 0,0.2773 -0.01,0.5867 -0.032,0.928 -0.021,0.32 -0.042,0.608 -0.064,0.864 l -10.816,0 c 0.107,0.9813 0.566,1.76 1.376,2.336 0.811,0.576 1.899,0.864 3.264,0.864 0.875,0 1.728,-0.0747 2.56,-0.224 0.854,-0.1707 1.547,-0.3733 2.08,-0.608 l 0.64,3.872 c -0.256,0.128 -0.597,0.256 -1.024,0.384 -0.426,0.128 -0.906,0.2347 -1.44,0.32 -0.512,0.1067 -1.066,0.192 -1.664,0.256 -0.597,0.064 -1.194,0.096 -1.792,0.096 -1.514,0 -2.837,-0.224 -3.968,-0.672 -1.109,-0.448 -2.037,-1.056 -2.784,-1.824 -0.725,-0.7893 -1.269,-1.7173 -1.632,-2.784 -0.341,-1.0667 -0.512,-2.2187 -0.512,-3.456 z m 11.2,-1.824 c -0.021,-0.4053 -0.096,-0.8 -0.224,-1.184 -0.106,-0.384 -0.288,-0.7253 -0.544,-1.024 -0.234,-0.2987 -0.544,-0.544 -0.928,-0.736 -0.362,-0.192 -0.821,-0.288 -1.376,-0.288 -0.533,0 -0.992,0.096 -1.376,0.288 -0.384,0.1707 -0.704,0.4053 -0.96,0.704 -0.256,0.2987 -0.458,0.6507 -0.608,1.056 -0.128,0.384 -0.224,0.7787 -0.288,1.184 l 6.304,0 z"
     id="path4592"
     inkscape:connector-curvature="0"
     style="fill:#322153" />
  <path
     d="m 175.864,-36.6295 4.768,-0.768 0,4.96 5.728,0 0,3.968 -5.728,0 0,5.92 c 0,1.0027 0.17,1.8027 0.512,2.4 0.362,0.5973 1.077,0.896 2.144,0.896 0.512,0 1.034,-0.0427 1.568,-0.128 0.554,-0.1067 1.056,-0.2453 1.504,-0.416 l 0.672,3.712 c -0.576,0.2347 -1.216,0.4373 -1.92,0.608 -0.704,0.1707 -1.568,0.256 -2.592,0.256 -1.302,0 -2.379,-0.1707 -3.232,-0.512 -0.854,-0.3627 -1.536,-0.8533 -2.048,-1.472 -0.512,-0.64 -0.875,-1.408 -1.088,-2.304 -0.192,-0.896 -0.288,-1.888 -0.288,-2.976 l 0,-14.144 z"
     id="path4594"
     inkscape:connector-curvature="0"
     style="fill:#322153" />
  <path
     d="m 196.049,-18.9335 c 0.47,0 0.918,-0.0107 1.345,-0.032 0.426,-0.0213 0.767,-0.0533 1.024,-0.096 l 0,-3.616 c -0.192,-0.0427 -0.481,-0.0853 -0.865,-0.128 -0.384,-0.0427 -0.736,-0.064 -1.056,-0.064 -0.448,0 -0.874,0.032 -1.28,0.096 -0.384,0.0427 -0.725,0.1387 -1.024,0.288 -0.298,0.1493 -0.533,0.352 -0.703,0.608 -0.171,0.256 -0.257,0.576 -0.257,0.96 0,0.7467 0.246,1.2693 0.736,1.568 0.512,0.2773 1.206,0.416 2.08,0.416 z m -0.384,-13.952 c 1.408,0 2.582,0.16 3.521,0.48 0.938,0.32 1.685,0.7787 2.239,1.376 0.576,0.5973 0.982,1.3227 1.217,2.176 0.234,0.8533 0.351,1.8027 0.351,2.848 l 0,9.92 c -0.682,0.1493 -1.631,0.32 -2.847,0.512 -1.217,0.2133 -2.689,0.32 -4.417,0.32 -1.087,0 -2.079,-0.096 -2.975,-0.288 -0.875,-0.192 -1.633,-0.5013 -2.273,-0.928 -0.64,-0.448 -1.13,-1.024 -1.472,-1.728 -0.341,-0.704 -0.512,-1.568 -0.512,-2.592 0,-0.9813 0.192,-1.8133 0.577,-2.496 0.405,-0.6827 0.938,-1.2267 1.6,-1.632 0.661,-0.4053 1.418,-0.6933 2.272,-0.864 0.853,-0.192 1.738,-0.288 2.656,-0.288 0.618,0 1.162,0.032 1.631,0.096 0.491,0.0427 0.886,0.1067 1.185,0.192 l 0,-0.448 c 0,-0.8107 -0.246,-1.4613 -0.736,-1.952 -0.491,-0.4907 -1.344,-0.736 -2.561,-0.736 -0.81,0 -1.61,0.064 -2.4,0.192 -0.789,0.1067 -1.472,0.2667 -2.047,0.48 l -0.609,-3.84 c 0.278,-0.0853 0.619,-0.1707 1.025,-0.256 0.426,-0.1067 0.885,-0.192 1.375,-0.256 0.491,-0.0853 1.003,-0.1493 1.537,-0.192 0.554,-0.064 1.109,-0.096 1.663,-0.096 z"
     id="path4596"
     inkscape:connector-curvature="0"
     style="fill:#322153" />
  <path
     d="m -134.5455,-2.52538 -4.5749,8.73648 c -0.29542,0.564 -0.10089,1.2693 0.4375,1.5864 l 7.1635,4.2197 c 0.5459,0.3215 1.2398,0.1238 1.5502,-0.4418 l 8.7562,-15.9497553 -10.3344,0 c -1.2509,0 -2.4015,0.7095283 -2.9981,1.8489753 z"
     id="path4598"
     inkscape:connector-curvature="0"
     style="fill:#29a361" />
  <path
     d="m -121.2135,-4.375 -8.7558,15.95 c -0.311,0.5654 -1.0045,0.7636 -1.5501,0.4423 l -1.8698,-1.101 c 0.4559,0.0761 0.9301,-0.141 1.1715,-0.5814 l 8.077,-14.7099 2.9272,0 z"
     id="path4600"
     inkscape:connector-curvature="0"
     style="fill:#248f55" />
  <path
     d="m -111.6326,4.08422 -3.1554,-6.51021 c -0.5789,-1.194436 -1.7585,-1.9483653 -3.0482,-1.9483653 l -9.1233,0 7.0048,12.3159553 c -0.0229,0.0107 -0.046,0.0214 -0.069,0.0321 -0.4406,0.2055 -0.4226,0.8606 0.0285,1.0401 l 6.0487,2.4072 c 0.2803,0.1116 0.5948,-0.0335 0.7024,-0.3239 l 2.3317,-6.29257 c 0.1724,-0.46547 -0.2803,-0.91462 -0.7202,-0.72031 z"
     id="path4602"
     inkscape:connector-curvature="0"
     style="fill:#34cb79" />
  <path
     d="m -110.9124,4.80399 -2.3324,6.29251 c -0.1071,0.2912 -0.4221,0.4364 -0.7021,0.3243 l -1.8302,-0.7287 2.1818,-5.88811 c 0.124,-0.33393 -0.0741,-0.65911 -0.3583,-0.74441 -0.2707,-0.08132 -0.5018,-0.26504 -0.6283,-0.526 l -2.8891,-5.95983 c -0.5786,-1.194044 -1.7578,-1.94875 -3.048,-1.94875 l 2.6829,0 c 1.2893,0 2.4685,0.754706 3.048,1.94875 l 3.1552,6.5107 c 0.4405,-0.19421 0.8925,0.25416 0.7205,0.71954 z"
     id="path4604"
     inkscape:connector-curvature="0"
     style="fill:#2fb86e" />
  <path
     d="m -117.7281,29.1843 c -0.085,-0.3615 -0.535,-0.5163 -0.8096,-0.2318 l -4.7276,4.8993 c -0.1886,0.1955 -0.1886,0.5123 0,0.7077 l 4.7458,4.9181 c 0.2728,0.2827 0.7182,0.1318 0.8078,-0.2235 l 6.979,0 c 1.2849,0 2.4608,-0.7482 3.0421,-1.9357 l 3.9822,-8.1342 -14.0197,0 0,10e-5 z"
     id="path4606"
     inkscape:connector-curvature="0"
     style="fill:#29a361" />
  <path
     d="m -111.8367,29.1844 2.2629,3.5485 c 0.5116,0.8022 0.5682,1.8274 0.1483,2.6849 l -0.9307,1.9007 c -0.5804,1.1871 -1.7568,1.9358 -3.0413,1.9358 l 2.6647,0 c 1.2845,0 2.4608,-0.7487 3.0423,-1.9358 l 3.9819,-8.134 -8.1281,0 0,-10e-5 z"
     id="path4608"
     inkscape:connector-curvature="0"
     style="fill:#248f55" />
  <path
     d="m -127.2521,38.3189 0,-8.6583 c 0,-0.6507 -0.5091,-1.1784 -1.1371,-1.1784 l -18.73043,0 4.82025,9.1709 c 0.59747,1.1368 1.74657,1.8442 2.9956,1.8442 l 10.91458,0 c 0.6279,0 1.1371,-0.5275 1.1371,-1.1784 z"
     id="path4610"
     inkscape:connector-curvature="0"
     style="fill:#29a361" />
  <path
     d="m -139.176,28.483 -4.15969,7.1993 -3.78394,-7.1993 7.94363,0 z"
     id="path4612"
     inkscape:connector-curvature="0"
     style="fill:#248f55" />
  <path
     d="m -127.2525,29.6608 0,8.6586 c 0,0.6506 -0.509,1.178 -1.1367,1.178 l -2.9834,0 c 0.6278,0 1.1368,-0.5274 1.1368,-1.178 l 0,-8.6586 c 0,-0.6506 -0.509,-1.178 -1.1368,-1.178 l 2.9834,0 c 0.6277,-10e-5 1.1367,0.5274 1.1367,1.178 z"
     id="path4614"
     inkscape:connector-curvature="0"
     style="fill:#248f55" />
  <path
     d="m -136.4028,20.8316 -0.8411,-6.5599 c -0.0416,-0.3241 -0.3288,-0.5518 -0.6415,-0.5088 l -6.35426,0.875 c -0.4785,0.0659 -0.65682,0.6691 -0.32907,1.0047 l -4.01025,5.9901 c -0.73528,1.0983 -0.8099,2.5323 -0.19294,3.7061 l 4.36397,8.3029 7.08585,-12.266 c 0.002,0.0019 0.005,0.0039 0.007,0.0059 0.4044,0.3181 0.9786,-0.0284 0.9118,-0.55 z"
     id="path4616"
     inkscape:connector-curvature="0"
     style="fill:#34cb79" />
  <path
     d="m -137.315,21.3816 c -0.002,-0.0021 -0.005,-0.004 -0.007,-0.006 l -7.08609,12.2657 -1.45734,-2.7725 5.7675,-9.9852 0.15993,-0.277 c 0.0875,-0.1514 0.25838,-0.2168 0.42553,-0.1832 8.5e-4,2e-4 0.002,3e-4 0.003,5e-4 0.35563,0.0657 0.72033,-0.2413 0.66573,-0.6627 l -0.73886,-5.765 1.69686,-0.2332 c 0.313,-0.043 0.6008,0.1852 0.6423,0.5084 l 0.8412,6.5608 c 0.0668,0.5213 -0.5079,0.8676 -0.9125,0.5494 z"
     id="path4618"
     inkscape:connector-curvature="0"
     style="fill:#2fb86e" />
  <path
     d="m -101.7916,21.1819 -5.4856,-8.2372 c -0.3364,-0.5053 -0.991,-0.6582 -1.5041,-0.3513 l -7.1488,4.2751 c -0.5674,0.3393 -0.7415,1.104 -0.3803,1.6704 l 10.0778,15.8012 4.6757,-9.5508 c 0.5659,-1.156 0.4759,-2.5404 -0.2347,-3.6074 z"
     id="path4620"
     inkscape:connector-curvature="0"
     style="fill:#34cb79" />
  <path
     d="m -101.557,24.7895 -4.6764,9.5503 -1.5684,-2.4602 3.4711,-7.0902 c 0.5659,-1.156 0.4761,-2.5402 -0.2347,-3.6072 l -5.2915,-7.9449 1.0758,-0.6436 c 0.5129,-0.3073 1.1677,-0.1542 1.5038,0.3513 l 5.4857,8.2373 c 0.7107,1.067 0.8005,2.4512 0.2346,3.6072 z"
     id="path4622"
     inkscape:connector-curvature="0"
     style="fill:#2fb86e" />
  <rect
     style="opacity:1;fill:#d40000;fill-opacity:1;fill-rule:nonzero;stroke:none;stroke-width:1;stroke-linecap:square;stroke-linejoin:miter;stroke-miterlimit:4;stroke-dasharray:none;stroke-dashoffset:0;stroke-opacity:1;paint-order:markers fill stroke"
     id="rect5183"
     width="10.430024"
     height="30.487766"
     x="19.833839"
     y="6.8916521" />
  <rect
     y="-40.292736"
     x="16.920523"
     height="30.487766"
     width="10.430024"
     id="rect5185"
     style="opacity:1;fill:#d40000;fill-opacity:1;fill-rule:nonzero;stroke:none;stroke-width:1;stroke-linecap:square;stroke-linejoin:miter;stroke-miterlimit:4;stroke-dasharray:none;stroke-dashoffset:0;stroke-opacity:1;paint-order:markers fill stroke"
     transform="matrix(0,1,-1,0,0,0)" />
  <path
     style="opacity:1;fill:none;fill-opacity:1;fill-rule:nonzero;stroke:#800000;stroke-width:2.34791923;stroke-linecap:square;stroke-linejoin:miter;stroke-miterlimit:4;stroke-dasharray:none;stroke-dashoffset:0;stroke-opacity:1;paint-order:markers fill stroke"
     id="path5187"
     sodipodi:type="arc"
     sodipodi:cx="25.048849"
     sodipodi:cy="22.135532"
     sodipodi:rx="20.538185"
     sodipodi:ry="20.538185"
     sodipodi:start="2.1479244"
     sodipodi:end="2.1475578"
     sodipodi:open="true"
     d="M 13.842816,39.347211 A 20.538185,20.538185 0 0 1 7.8361436,10.931077 20.538185,20.538185 0 0 1 36.251727,4.9218 20.538185,20.538185 0 0 1 42.263608,33.336832 20.538185,20.538185 0 0 1 13.849127,39.351318" />
  <rect
     style="opacity:0.578;fill:#aa0000;fill-opacity:1;fill-rule:nonzero;stroke:#800000;stroke-width:2.12511635;stroke-linecap:square;stroke-linejoin:miter;stroke-miterlimit:4;stroke-dasharray:none;stroke-dashoffset:0;stroke-opacity:1;paint-order:markers fill stroke"
     id="rect5189"
     width="10.884222"
     height="0.84990537"
     x="28.345955"
     y="25.438084" />
  <rect
     y="-29.202116"
     x="25.470705"
     height="0.85152519"
     width="10.846965"
     id="rect5191"
     style="opacity:0.58499995;fill:#aa0000;fill-opacity:1;fill-rule:nonzero;stroke:#800000;stroke-width:2.12349653;stroke-linecap:square;stroke-linejoin:miter;stroke-miterlimit:4;stroke-dasharray:none;stroke-dashoffset:0;stroke-opacity:1;paint-order:markers fill stroke"
     transform="matrix(0,1,-1,0,0,0)" />
  <text
     xml:space="preserve"
     style="font-style:normal;font-variant:normal;font-weight:normal;font-stretch:normal;font-size:30.01548386px;line-height:125%;font-family:'Engravers MT';-inkscape-font-specification:'Engravers MT';letter-spacing:0px;word-spacing:0px;fill:#322153;fill-opacity:1;stroke:none;stroke-width:1px;stroke-linecap:butt;stroke-linejoin:miter;stroke-opacity:1"
     x="71.552673"
     y="38.038731"
     id="text5193"
     sodipodi:linespacing="125%"><tspan
       sodipodi:role="line"
       id="tspan5195"
       x="71.552673"
       y="38.038731"
       style="font-style:normal;font-variant:normal;font-weight:normal;font-stretch:normal;font-family:'Futura Hv BT';-inkscape-font-specification:'Futura Hv BT';fill:#322153;fill-opacity:1">SGSP</tspan></text>
</svg>
