<?xml version="1.0" encoding="UTF-8" standalone="no"?>
<svg
   xmlns:dc="http://purl.org/dc/elements/1.1/"
   xmlns:cc="http://creativecommons.org/ns#"
   xmlns:rdf="http://www.w3.org/1999/02/22-rdf-syntax-ns#"
   xmlns:svg="http://www.w3.org/2000/svg"
   xmlns="http://www.w3.org/2000/svg"
   xmlns:sodipodi="http://sodipodi.sourceforge.net/DTD/sodipodi-0.dtd"
   xmlns:inkscape="http://www.inkscape.org/namespaces/inkscape"
   width="64"
   height="64"
   viewBox="0 0 64 64"
   fill="none"
   id="svg3336"
   version="1.1"
   inkscape:version="0.91 r13725"
   sodipodi:docname="cardiologia.svg">
  <metadata
     id="metadata3356">
    <rdf:RDF>
      <cc:Work
         rdf:about="">
        <dc:format>image/svg+xml</dc:format>
        <dc:type
           rdf:resource="http://purl.org/dc/dcmitype/StillImage" />
        <dc:title />
      </cc:Work>
    </rdf:RDF>
  </metadata>
  <defs
     id="defs3354" />
  <sodipodi:namedview
     pagecolor="#ffffff"
     bordercolor="#666666"
     borderopacity="1"
     objecttolerance="10"
     gridtolerance="10"
     guidetolerance="10"
     inkscape:pageopacity="0"
     inkscape:pageshadow="2"
     inkscape:window-width="1366"
     inkscape:window-height="705"
     id="namedview3352"
     showgrid="false"
     inkscape:zoom="0.32455096"
     inkscape:cx="-22.745106"
     inkscape:cy="371.43345"
     inkscape:window-x="-8"
     inkscape:window-y="-8"
     inkscape:window-maximized="1"
     inkscape:current-layer="svg3336" />
  <path
     style="opacity:1;fill:#76dca5;fill-opacity:1;fill-rule:nonzero;stroke:none;stroke-width:1.51181102;stroke-linecap:square;stroke-linejoin:miter;stroke-miterlimit:4;stroke-dasharray:none;stroke-dashoffset:0;stroke-opacity:1;paint-order:markers fill stroke"
     d="m 31.542277,33.336444 c -0.59678,-2.112681 -1.26201,-4.439702 -1.6511,-5.775628 -0.22986,-0.789217 -0.45868,-1.624298 -0.50848,-1.855734 -0.0498,-0.231439 -0.33705,-0.667302 -0.63833,-0.968584 -0.48983,-0.489831 -0.624319,-0.547788 -1.271131,-0.547788 -1.023234,0 -1.406527,0.382265 -2.560458,2.553608 -0.532825,1.002624 -1.346272,2.533249 -1.807657,3.401387 -0.461384,0.868138 -1.002042,1.917436 -1.201474,2.331771 l -0.362589,0.753344 -9.440478,0 -9.4404761,0 -0.367379,-0.825086 C 1.5932929,30.832887 1.2051079,29.707266 0.90042891,28.366535 -0.72954309,21.193863 2.0260779,13.622497 7.8462479,9.2821729 10.175632,7.5450621 11.914624,6.6988847 14.703503,5.945503 c 1.70445,-0.4604375 1.857439,-0.4767788 4.490945,-0.4797087 2.518488,-0.00282 2.846742,0.027553 4.304815,0.3980919 2.824178,0.7177036 5.169274,1.8336629 7.354064,3.4995677 l 1.04033,0.7932551 0,12.038286 c 0,6.621056 -0.0221,12.038286 -0.049,12.038286 -0.027,0 -0.16303,-0.403577 -0.30236,-0.896837 z"
     id="path4216"
     inkscape:connector-curvature="0" />
  <path
     style="opacity:1;fill:#34cb79;fill-opacity:1;fill-rule:nonzero;stroke:none;stroke-width:1.51181102;stroke-linecap:square;stroke-linejoin:miter;stroke-miterlimit:4;stroke-dasharray:none;stroke-dashoffset:0;stroke-opacity:1;paint-order:markers fill stroke"
     d="m 33.110337,38.744263 c -0.0515,-0.231775 -0.29792,-1.067134 -0.54756,-1.856347 l -0.45388,-1.434938 -0.0389,-12.643579 -0.0389,-12.64358 0.65991,-0.5407421 c 2.13352,-1.7482578 4.39043,-2.8789238 7.36633,-3.6903879 1.60301,-0.4371055 1.7735,-0.4545015 4.5355,-0.4627931 2.83467,-0.00852 2.89189,-0.00261 4.66355,0.4823185 6.69196,1.8316137 11.66393,6.6930506 13.5126,13.2122106 1.21216,4.274538 0.79742,9.150996 -1.11667,13.129688 l -0.41419,0.860964 -11.79192,0.07175 c -11.65942,0.07095 -11.79647,0.0751 -12.19698,0.370093 -0.22278,0.164093 -1.00405,1.16496 -1.73615,2.224157 -0.7321,1.059191 -1.55114,2.244586 -1.82009,2.634201 l -0.48899,0.708399 -0.0937,-0.421407 z"
     id="path4218"
     inkscape:connector-curvature="0" />
  <path
     style="opacity:1;fill:#76dca5;fill-opacity:1;fill-rule:nonzero;stroke:none;stroke-width:1.51181102;stroke-linecap:square;stroke-linejoin:miter;stroke-miterlimit:4;stroke-dasharray:none;stroke-dashoffset:0;stroke-opacity:1;paint-order:markers fill stroke"
     d="m 30.730977,59.641218 c -0.28433,-0.05552 -0.83045,-0.284684 -1.2136,-0.509223 C 29.134237,58.907456 25.39567,55.557656 21.209465,51.687996 8.0760919,39.547712 7.2375989,38.771857 6.2320999,37.829485 l -0.621883,-0.582834 8.4602301,0 c 4.653127,0 8.669419,-0.04185 8.925091,-0.09298 0.608712,-0.121738 1.26166,-0.797224 1.795172,-1.857123 0.236763,-0.470371 0.813495,-1.576781 1.281627,-2.458687 l 0.85115,-1.603477 0.837772,2.89851 c 0.460768,1.59418 0.968038,3.382803 1.127258,3.974715 0.15922,0.59191 0.40888,1.463639 0.5548,1.937165 0.14592,0.473533 0.50682,1.700403 0.80198,2.726385 0.52458,1.823384 0.84243,2.418181 1.38407,2.590093 0.25207,0.08 0.26429,0.415004 0.26429,7.248903 l 0,7.165026 -0.32286,-0.01649 c -0.17758,-0.0091 -0.5555,-0.06191 -0.83982,-0.117471 z"
     id="path4220"
     inkscape:connector-curvature="0" />
  <path
     style="opacity:1;fill:#34cb79;fill-opacity:1;fill-rule:nonzero;stroke:none;stroke-width:1.51181102;stroke-linecap:square;stroke-linejoin:miter;stroke-miterlimit:4;stroke-dasharray:none;stroke-dashoffset:0;stroke-opacity:1;paint-order:markers fill stroke"
     d="m 32.037147,52.688534 0,-7.119235 0.46636,-2e-4 c 0.87984,-3.99e-4 1.36684,-0.411361 2.55056,-2.152188 0.61715,-0.907597 1.81354,-2.667189 2.65864,-3.910207 l 1.53656,-2.260026 9.46945,0 c 8.81731,0 9.45589,0.01642 9.27252,0.238901 -0.1739,0.210954 -9.03985,8.442159 -13.03478,12.101571 -1.64227,1.504345 -1.55611,1.424501 -3.96578,3.674956 -6.02077,5.622943 -6.81704,6.243775 -8.27194,6.44937 l -0.68159,0.09633 0,-7.119242 z"
     id="path4222"
     inkscape:connector-curvature="0" />
  <path
     style="opacity:1;fill:#322153;fill-opacity:1;fill-rule:nonzero;stroke:none;stroke-width:1.51181102;stroke-linecap:square;stroke-linejoin:miter;stroke-miterlimit:4;stroke-dasharray:none;stroke-dashoffset:0;stroke-opacity:1;paint-order:markers fill stroke"
     d="m 31.893657,40.379602 c 0,-2.775412 0.026,-5.019297 0.0579,-4.986411 0.0318,0.03285 0.29642,0.899228 0.588,1.92521 0.29158,1.025975 0.57226,1.910615 0.62374,1.965853 0.0955,0.102505 0.2498,-0.10893 2.51704,-3.449385 0.76299,-1.124152 1.46138,-1.997935 1.69235,-2.117378 0.33165,-0.171501 2.21684,-0.197618 12.03059,-0.166649 l 11.63731,0.03669 -0.59977,0.932711 c -0.32987,0.512988 -0.8877,1.27172 -1.23961,1.686056 l -0.63984,0.753345 -9.65444,0 -9.65443,0 -0.9058,1.327314 c -0.49819,0.730023 -1.23898,1.811607 -1.64621,2.403524 -0.40722,0.591912 -1.20729,1.76878 -1.77792,2.615257 -1.24251,1.843132 -1.55631,2.120038 -2.4025,2.120038 l -0.62637,0 0,-5.046198 z"
     id="path4224"
     inkscape:connector-curvature="0" />
  <path
     style="opacity:1;fill:#ded6ef;fill-opacity:1;fill-rule:nonzero;stroke:none;stroke-width:1.51181102;stroke-linecap:square;stroke-linejoin:miter;stroke-miterlimit:4;stroke-dasharray:none;stroke-dashoffset:0;stroke-opacity:1;paint-order:markers fill stroke"
     d="m 31.267127,44.93561 c -0.22369,-0.22368 -1.31717,-3.317828 -1.30799,-3.70112 0.001,-0.06651 -0.18902,-0.76662 -0.4236,-1.555833 -0.23457,-0.789218 -0.65868,-2.242091 -0.94249,-3.228612 -0.28379,-0.98652 -0.705269,-2.439399 -0.93661,-3.228612 -0.231341,-0.789218 -0.461246,-1.612515 -0.510898,-1.829549 -0.04968,-0.217034 -0.137989,-0.394607 -0.196298,-0.394607 -0.05833,0 -0.316704,0.403575 -0.574205,0.896838 -0.257506,0.49326 -0.855594,1.639418 -1.329093,2.547015 -0.473498,0.907597 -1.048754,1.843895 -1.27835,2.080658 l -0.417456,0.430485 -8.858049,0.04074 c -4.8719281,0.0224 -9.0029561,0.0048 -9.1800701,-0.03841 -0.177114,-0.0435 -0.306478,-0.126411 -0.287487,-0.184212 0.05806,-0.176667 -0.769745,-1.174346 -0.946633,-1.140903 -0.09118,0.01725 -0.168799,-0.0978 -0.172489,-0.255638 -0.0034,-0.161447 -0.08993,-0.268729 -0.196971,-0.24525 -0.117883,0.02584 -0.158561,-0.04088 -0.106931,-0.175437 0.04967,-0.129523 -0.04452,-0.30676 -0.233505,-0.439114 -0.17427,-0.122061 -0.300708,-0.252973 -0.28098,-0.290915 0.09424,-0.181202 0.01752,-0.352304 -0.143493,-0.320099 -0.09865,0.01972 -0.179367,-0.06102 -0.179367,-0.179366 0,-0.188761 1.157237,-0.219777 9.4066221,-0.252134 l 9.406623,-0.0369 0.310382,-0.608828 c 0.17071,-0.334851 0.687008,-1.319121 1.147335,-2.187257 0.460327,-0.868139 1.314252,-2.481613 1.897629,-3.5855 1.318676,-2.495282 1.4688,-2.656484 2.4739,-2.656484 0.791824,0 1.282494,0.226715 1.542614,0.71277 0.12476,0.233108 1.69016,5.52228 2.23101,7.538127 0.10588,0.39461 0.30964,1.104906 0.45282,1.578431 0.23404,0.774068 0.25616,1.371497 0.21914,5.919123 -0.0254,3.118678 -0.0942,5.058161 -0.17936,5.058161 -0.076,0 -0.2586,-0.120406 -0.40575,-0.267561 z"
     id="path4232"
     inkscape:connector-curvature="0" />
</svg>
