<?xml version="1.0" encoding="UTF-8" standalone="no"?>
<svg
   xmlns:dc="http://purl.org/dc/elements/1.1/"
   xmlns:cc="http://creativecommons.org/ns#"
   xmlns:rdf="http://www.w3.org/1999/02/22-rdf-syntax-ns#"
   xmlns:svg="http://www.w3.org/2000/svg"
   xmlns="http://www.w3.org/2000/svg"
   xmlns:sodipodi="http://sodipodi.sourceforge.net/DTD/sodipodi-0.dtd"
   xmlns:inkscape="http://www.inkscape.org/namespaces/inkscape"
   width="64"
   height="64"
   viewBox="0 0 64 64"
   fill="none"
   id="svg3336"
   version="1.1"
   inkscape:version="0.91 r13725"
   sodipodi:docname="clinico_geral.svg">
  <metadata
     id="metadata3356">
    <rdf:RDF>
      <cc:Work
         rdf:about="">
        <dc:format>image/svg+xml</dc:format>
        <dc:type
           rdf:resource="http://purl.org/dc/dcmitype/StillImage" />
        <dc:title></dc:title>
      </cc:Work>
    </rdf:RDF>
  </metadata>
  <defs
     id="defs3354" />
  <sodipodi:namedview
     pagecolor="#ffffff"
     bordercolor="#666666"
     borderopacity="1"
     objecttolerance="10"
     gridtolerance="10"
     guidetolerance="10"
     inkscape:pageopacity="0"
     inkscape:pageshadow="2"
     inkscape:window-width="1366"
     inkscape:window-height="705"
     id="namedview3352"
     showgrid="false"
     inkscape:zoom="5.1928154"
     inkscape:cx="43.943793"
     inkscape:cy="41.275536"
     inkscape:window-x="-8"
     inkscape:window-y="-8"
     inkscape:window-maximized="1"
     inkscape:current-layer="svg3336" />
  <path
     style="opacity:1;fill:#322153;fill-opacity:1;fill-rule:nonzero;stroke:none;stroke-width:1.51181102;stroke-linecap:square;stroke-linejoin:miter;stroke-miterlimit:4;stroke-dasharray:none;stroke-dashoffset:0;stroke-opacity:1;paint-order:markers fill stroke"
     d="m 29.338474,63.829106 c -0.530029,-0.03987 -1.397353,-0.155866 -1.927383,-0.257715 -2.438666,-0.468581 -4.079422,-0.828431 -4.43298,-0.972255 -0.212012,-0.08624 -0.819137,-0.30511 -1.349167,-0.486364 -1.618219,-0.553403 -2.033768,-0.73418 -4.119406,-1.792118 -1.659012,-0.84153 -4.046799,-2.310662 -4.457446,-2.742531 -0.053,-0.05572 -0.486667,-0.394881 -0.963694,-0.753653 C 11.259879,56.201361 8.4181493,53.403977 7.5174745,52.324879 5.725261,50.177632 4.1431938,47.550606 2.8492546,44.573274 2.2137264,43.110933 2.1463964,42.928695 1.7811446,41.682198 1.5947706,41.046159 1.3700287,40.308939 1.2817159,40.043926 0.62909935,38.085457 0.2280996,32.855738 0.48736527,29.684242 0.70046238,27.07754 1.0134473,24.971599 1.2822563,24.335755 c 0.089632,-0.212013 0.3173033,-0.949236 0.5059396,-1.638275 0.1886361,-0.689039 0.4150445,-1.335195 0.503132,-1.4359 0.088085,-0.100708 0.1601565,-0.305867 0.1601565,-0.455912 0,-0.286851 2.0964017,-4.687878 2.3121864,-4.854028 0.068843,-0.053 0.1833309,-0.226467 0.2544272,-0.385476 0.1485466,-0.332222 0.567544,-1.014269 0.7104239,-1.15643 0.053272,-0.053 0.4833623,-0.616763 0.9557579,-1.252799 1.4405223,-1.939523 3.6969282,-4.2364899 5.9640472,-6.0712544 1.859078,-1.504543 5.756802,-3.6939931 8.016924,-4.5033098 0.530031,-0.1897976 1.137156,-0.4176795 1.349169,-0.5064022 1.839678,-0.7698875 7.101618,-1.6208764 10.02239,-1.6208764 2.92077,0 8.182711,0.8509889 10.022389,1.6208764 0.212012,0.088723 0.819139,0.3144576 1.349168,0.5016328 2.111758,0.7457414 6.439609,3.19356 8.187757,4.6309661 1.653411,1.3595136 4.577109,4.3394125 5.552521,5.6592605 0.587574,0.795045 1.140617,1.474447 1.228995,1.509783 0.08837,0.03534 0.160682,0.142223 0.160682,0.237528 0,0.0953 0.331685,0.716886 0.73708,1.38129 0.805927,1.320833 2.346733,4.454287 2.346733,4.77242 0,0.10957 0.08165,0.349821 0.181438,0.533894 0.0998,0.184072 0.32552,0.85507 0.50162,1.491104 0.176101,0.636038 0.397794,1.373263 0.492654,1.638277 0.269624,0.753295 0.566253,2.773799 0.782353,5.329009 0.319396,3.776621 -0.233656,9.129562 -1.191828,11.53559 -0.08442,0.21201 -0.299536,0.862506 -0.478023,1.445535 -0.789466,2.578868 -3.213387,6.94766 -5.184403,9.344165 -1.102718,1.340778 -3.913648,4.146884 -4.837092,4.828812 -0.424029,0.313118 -0.814321,0.613167 -0.867323,0.666772 -0.435586,0.440541 -2.847553,1.917881 -4.48429,2.74665 -2.09708,1.061859 -2.521,1.246666 -4.092566,1.784115 -0.530029,0.181254 -1.137156,0.400123 -1.349166,0.486364 -0.212014,0.08625 -1.03597,0.28786 -1.831016,0.448036 -0.795043,0.160183 -1.907458,0.383998 -2.472029,0.497375 -1.103177,0.221542 -5.872492,0.40361 -7.45399,0.284559 z m 7.902269,-3.138087 c 1.715432,-0.316137 4.465582,-1.123745 4.80882,-1.412157 0.100708,-0.08462 0.314488,-0.153855 0.475073,-0.153855 0.160582,0 1.032241,-0.361378 1.937018,-0.803064 4.816268,-2.35119 8.782286,-5.789597 11.667431,-10.115276 1.0834,-1.624337 2.85557,-5.141673 3.096185,-6.145198 0.07544,-0.314602 0.201915,-0.65874 0.281063,-0.764746 0.07914,-0.106006 0.245579,-0.626399 0.369836,-1.156432 0.124265,-0.530026 0.313177,-1.310616 0.419806,-1.734645 0.10663,-0.424021 0.268846,-1.20461 0.360468,-1.734644 0.231996,-1.342026 0.232972,-7.6778 0.0015,-8.962328 -0.306433,-1.699403 -0.879404,-4.048272 -1.151912,-4.722087 -0.08576,-0.212013 -0.309742,-0.819138 -0.49778,-1.349168 C 57.424488,17.172979 52.655919,11.130756 48.612419,8.4648967 48.188398,8.1853391 47.798099,7.9124322 47.745097,7.8584378 47.263653,7.3679829 42.862675,5.2617093 41.288366,4.7682974 40.864342,4.6354017 40.34395,4.458952 40.131937,4.376186 39.731094,4.2197046 37.682829,3.7824458 35.714996,3.4332687 c -1.470557,-0.2609396 -5.885575,-0.2609396 -7.356133,0 -2.07041,0.3673797 -4.025529,0.7899372 -4.416941,0.9546301 -0.212012,0.089207 -0.633562,0.2163637 -0.936776,0.2825688 -1.032,0.2253335 -6.182229,2.6845624 -6.676387,3.1879702 -0.053,0.053995 -0.443298,0.3269013 -0.867319,0.6064589 -1.731231,1.141393 -4.68052,3.9009383 -5.9356341,5.5537643 -0.4450772,0.586112 -0.8618019,1.109022 -0.9260484,1.162026 -0.612222,0.505142 -3.4706949,5.871095 -3.751577,7.042682 -0.075225,0.313764 -0.1991984,0.657212 -0.2755003,0.763218 -0.076304,0.106005 -0.2855911,0.799863 -0.4650869,1.541905 -0.1794968,0.742043 -0.4187176,1.609366 -0.531604,1.927384 -0.2923245,0.823506 -0.4353019,8.397634 -0.1873777,9.926024 0.4090021,2.521379 0.8788849,4.461427 1.190384,4.914823 0.072825,0.106006 0.1899742,0.433558 0.2603223,0.727904 0.070342,0.294337 0.3425016,1.004318 0.6047907,1.577736 0.262287,0.573417 0.4768846,1.134868 0.4768846,1.247664 0,0.112804 0.069315,0.205088 0.1540195,0.205088 0.084708,0 0.259571,0.291899 0.3885785,0.64866 0.2575654,0.712293 2.0558752,3.459274 3.1194312,4.765037 1.3326976,1.636208 2.9282586,3.136611 5.7168196,5.375856 1.053524,0.845994 5.691187,3.280339 6.249361,3.280339 0.160585,0 0.374367,0.07144 0.475073,0.158678 0.100709,0.08727 0.703495,0.316327 1.339531,0.509013 0.636038,0.192687 1.373259,0.420203 1.638276,0.505591 0.265016,0.0854 1.128696,0.250226 1.919291,0.366283 0.790592,0.116058 1.483483,0.257062 1.539756,0.313331 0.177599,0.177598 7.570199,-0.06395 8.779833,-0.286884 z"
     id="path4245"
     inkscape:connector-curvature="0" />
  <path
     style="opacity:1;fill:#34cb79;fill-opacity:1;fill-rule:nonzero;stroke:none;stroke-width:1.51181102;stroke-linecap:square;stroke-linejoin:miter;stroke-miterlimit:4;stroke-dasharray:none;stroke-dashoffset:0;stroke-opacity:1;paint-order:markers fill stroke"
     d="m 30.398534,34.236486 c -0.908033,-0.550965 -4.40025,-4.103771 -4.631404,-4.71175 -0.12968,-0.341088 -0.107266,-0.668762 0.07541,-1.102512 0.149891,-0.355889 3.617798,-3.96606 8.191332,-8.527365 l 7.931394,-7.910185 0.596256,0.615178 0.596254,0.615179 -7.825161,7.804887 c -4.303838,4.292688 -7.825159,7.884709 -7.825159,7.982269 0,0.09755 0.818411,0.979969 1.81869,1.960908 1.53506,1.505378 1.873216,1.752483 2.168305,1.584495 0.19229,-0.109469 3.775538,-3.626385 7.962777,-7.815369 l 7.613162,-7.616336 0.575921,0.57572 0.575921,0.575719 -7.899976,7.913423 c -7.073161,7.085203 -8.559052,8.468292 -9.095017,8.465781 -0.08477,-3.95e-4 -0.457689,-0.18491 -0.82871,-0.410042 z"
     id="path4247"
     inkscape:connector-curvature="0" />
  <path
     style="opacity:1;fill:#34cb79;fill-opacity:1;fill-rule:nonzero;stroke:none;stroke-width:1.51181102;stroke-linecap:square;stroke-linejoin:miter;stroke-miterlimit:4;stroke-dasharray:none;stroke-dashoffset:0;stroke-opacity:1;paint-order:markers fill stroke"
     d="M 13.805896,46.428396 C 12.85365,46.09118 12.316165,45.766609 11.423789,44.989909 10.8568,44.496425 10.856374,44.494413 11.231049,44.077139 12.109362,43.09896 24.45632,30.883027 24.62642,30.823915 c 0.228072,-0.07926 4.808424,4.384137 4.808424,4.685648 0,0.260615 -9.49593,9.700161 -10.311499,10.250275 -1.459451,0.984421 -3.648383,1.259633 -5.317449,0.668558 z m 3.744717,-1.736561 c 0.773307,-0.365901 9.38197,-8.77577 9.374473,-9.157991 -0.0069,-0.352422 -1.926484,-2.235758 -2.278773,-2.235758 -0.441929,0 -11.084682,10.682967 -10.974699,11.01616 0.252675,0.765487 2.58035,0.992064 3.878999,0.377589 z"
     id="path4249"
     inkscape:connector-curvature="0" />
  <path
     style="opacity:1;fill:#34cb79;fill-opacity:1;fill-rule:nonzero;stroke:none;stroke-width:1.51181102;stroke-linecap:square;stroke-linejoin:miter;stroke-miterlimit:4;stroke-dasharray:none;stroke-dashoffset:0;stroke-opacity:1;paint-order:markers fill stroke"
     d="m 21.279318,47.435952 c -0.07272,-0.07276 -0.132221,-0.464696 -0.132221,-0.871051 l 0,-0.738829 4.251324,0 4.251323,0 -0.05927,0.819135 -0.05927,0.819136 -4.059835,0.05191 c -2.232911,0.02855 -4.119336,-0.0076 -4.192058,-0.08031 z"
     id="path4251"
     inkscape:connector-curvature="0" />
  <path
     style="opacity:1;fill:#34cb79;fill-opacity:1;fill-rule:nonzero;stroke:none;stroke-width:1.51181102;stroke-linecap:square;stroke-linejoin:miter;stroke-miterlimit:4;stroke-dasharray:none;stroke-dashoffset:0;stroke-opacity:1;paint-order:markers fill stroke"
     d="m 31.876195,47.432221 c -0.07067,-0.07063 -0.128492,-0.460965 -0.128492,-0.86732 l 0,-0.738829 4.143871,0 4.143873,0 0,0.867323 0,0.867321 -4.01538,0 c -2.20846,0 -4.073201,-0.05779 -4.143872,-0.128495 z"
     id="path4253"
     inkscape:connector-curvature="0" />
  <path
     style="opacity:1;fill:#34cb79;fill-opacity:1;fill-rule:nonzero;stroke:none;stroke-width:1.51181102;stroke-linecap:square;stroke-linejoin:miter;stroke-miterlimit:4;stroke-dasharray:none;stroke-dashoffset:0;stroke-opacity:1;paint-order:markers fill stroke"
     d="m 42.155568,46.697153 0,-0.871081 4.25132,0 4.251326,0 -0.05925,0.819135 -0.05924,0.819136 -4.192061,0.05198 -4.192055,0.05191 0,-0.871081 z"
     id="path4255"
     inkscape:connector-curvature="0" />
</svg>
