<?xml version="1.0" encoding="UTF-8" standalone="no"?>
<svg
   xmlns:dc="http://purl.org/dc/elements/1.1/"
   xmlns:cc="http://creativecommons.org/ns#"
   xmlns:rdf="http://www.w3.org/1999/02/22-rdf-syntax-ns#"
   xmlns:svg="http://www.w3.org/2000/svg"
   xmlns="http://www.w3.org/2000/svg"
   xmlns:sodipodi="http://sodipodi.sourceforge.net/DTD/sodipodi-0.dtd"
   xmlns:inkscape="http://www.inkscape.org/namespaces/inkscape"
   width="64"
   height="64"
   viewBox="0 0 64 64"
   fill="none"
   id="svg3336"
   version="1.1"
   inkscape:version="0.91 r13725"
   sodipodi:docname="geriatria.svg">
  <metadata
     id="metadata3356">
    <rdf:RDF>
      <cc:Work
         rdf:about="">
        <dc:format>image/svg+xml</dc:format>
        <dc:type
           rdf:resource="http://purl.org/dc/dcmitype/StillImage" />
        <dc:title></dc:title>
      </cc:Work>
    </rdf:RDF>
  </metadata>
  <defs
     id="defs3354" />
  <sodipodi:namedview
     pagecolor="#ffffff"
     bordercolor="#666666"
     borderopacity="1"
     objecttolerance="10"
     gridtolerance="10"
     guidetolerance="10"
     inkscape:pageopacity="0"
     inkscape:pageshadow="2"
     inkscape:window-width="1366"
     inkscape:window-height="705"
     id="namedview3352"
     showgrid="false"
     inkscape:zoom="3.671875"
     inkscape:cx="37.554535"
     inkscape:cy="13.363811"
     inkscape:window-x="-8"
     inkscape:window-y="-8"
     inkscape:window-maximized="1"
     inkscape:current-layer="svg3336" />
  <path
     style="opacity:1;fill:#322153;fill-opacity:1;fill-rule:nonzero;stroke:#34cb79;stroke-width:0.13920517;stroke-linecap:square;stroke-linejoin:miter;stroke-miterlimit:4;stroke-dasharray:none;stroke-dashoffset:0;stroke-opacity:1;paint-order:markers fill stroke"
     d="M 11.381204,62.946879 C 11.117022,62.835128 10.699407,62.446279 10.453171,62.082772 10.064191,61.50854 9.9839435,60.813233 9.8413485,56.781679 9.2741247,40.744638 9.0704501,37.556253 8.5876325,37.155548 8.410407,37.008464 8.265405,36.6921 8.265405,36.452516 c 0,-0.239587 -0.1044043,-0.43561 -0.2320088,-0.43561 -0.2996113,0 -0.3117705,-5.659563 -0.013344,-6.209379 0.2450975,-0.45156 0.7079492,-3.56142 0.8714309,-5.85507 0.059117,-0.829431 0.2034448,-1.607241 0.3207247,-1.728465 0.28556,-0.295164 0.2717763,-1.224084 -0.020848,-1.404935 -0.5052976,-0.312291 -1.0697875,0.18382 -1.6799867,1.476487 -0.3509132,0.743384 -0.6380235,1.556028 -0.6380235,1.805872 0,0.249844 -0.093455,0.553446 -0.2076787,0.674671 -0.1996348,0.211872 -0.3220955,1.250243 -0.6336042,5.372491 -0.1625367,2.150872 -0.5174296,2.697543 -1.7512156,2.697543 -0.528528,0 -0.8801127,-0.187054 -1.2718999,-0.676692 -0.5196185,-0.649395 -0.5415067,-0.836573 -0.5426133,-4.640173 -6.336e-4,-2.179914 0.077084,-4.041713 0.1726978,-4.137331 0.1643041,-0.164304 0.6310314,-1.808171 0.9112753,-3.209608 0.070174,-0.350914 0.2201376,-0.638025 0.3332596,-0.638025 0.1131211,0 0.2056757,-0.208808 0.2056757,-0.464017 0,-0.25521 0.1044043,-0.464017 0.2320088,-0.464017 0.1276045,0 0.2320078,-0.104163 0.2320078,-0.231472 0,-0.250814 1.5201626,-2.442213 2.0905107,-3.013587 0.1927455,-0.193091 0.8817565,-0.739946 1.5311353,-1.215232 l 1.1806914,-0.864157 0.5071702,0.539858 c 0.4719035,0.502318 2.0569445,1.378621 3.5757405,1.976877 0.356917,0.14059 1.17608,0.255618 1.82036,0.255618 1.303555,0 3.678928,-0.609834 3.678928,-0.944498 0,-0.11855 0.25231,-0.215545 0.560687,-0.215545 0.308379,0 0.595489,-0.07831 0.638025,-0.174006 0.04253,-0.0957 0.417078,-0.412359 0.832318,-0.703679 0.614782,-0.43131 0.844384,-0.481826 1.236399,-0.272025 1.052997,0.563547 3.145369,2.614321 3.36264,3.29579 0.0712,0.223308 0.226818,0.406015 0.345826,0.406015 0.119003,0 0.216373,0.156605 0.216373,0.348012 0,0.191408 0.104404,0.348013 0.232008,0.348013 0.127606,0 0.232009,0.151082 0.232009,0.335737 0,0.184655 0.26101,0.826628 0.580022,1.426607 0.319012,0.599978 0.580021,1.330169 0.580021,1.622644 0,0.292476 0.104404,0.5963 0.232008,0.675163 0.127606,0.07887 0.23201,0.842643 0.23201,1.697287 0,0.854645 0.103552,1.914962 0.230115,2.356263 0.155475,0.542115 0.148999,1.268176 -0.01997,2.238484 -0.255578,1.467658 -0.05058,2.40829 0.524838,2.40829 0.335768,0 1.063612,0.852781 1.484055,1.738803 0.284992,0.600575 0.327467,2.91154 0.276849,15.062629 -0.05611,13.469005 -0.08521,14.369063 -0.472411,14.610483 -0.319512,0.199214 -0.462679,0.178737 -0.634469,-0.09075 -0.133887,-0.210026 -0.234147,-5.867488 -0.252855,-14.268532 -0.01705,-7.656285 -0.09696,-14.222565 -0.177558,-14.591732 -0.219978,-1.007469 -0.7386,-1.226112 -1.759371,-0.741725 -0.470666,0.223345 -1.005664,0.348556 -1.188887,0.278248 -0.213145,-0.08179 -0.54131,0.201941 -0.91113,0.787772 -0.502233,0.795589 -0.663257,0.898555 -1.228448,0.785516 -0.540139,-0.108027 -0.697642,-0.02652 -0.928701,0.480601 -0.153038,0.335881 -0.27825,0.759209 -0.27825,0.940731 0,0.181521 -0.229562,0.724728 -0.510137,1.207127 -0.556209,0.956304 -0.593772,1.418852 -1.126328,13.869574 -0.503788,11.778123 -0.424389,10.913951 -1.057397,11.508632 -0.645378,0.6063 -1.827999,0.705709 -2.719497,0.228593 -0.705956,-0.377814 -0.778858,-1.027244 -1.057125,-9.417139 -0.199212,-6.006369 -0.574951,-9.251315 -1.052933,-9.093315 -0.149009,0.04926 -0.310721,1.285042 -0.403006,3.079736 -0.08477,1.648606 -0.266565,4.459122 -0.403979,6.245589 -0.137414,1.786466 -0.25128,4.344361 -0.253034,5.684211 -0.0028,2.178052 -0.05837,2.503626 -0.524055,3.073681 -0.563279,0.689504 -1.625193,0.980325 -2.393254,0.655429 z M 24.959923,29.913741 c -0.0055,-0.918019 -0.118464,-2.138942 -0.250902,-2.713164 -0.132437,-0.574221 -0.29519,-1.461654 -0.361672,-1.972073 -0.06649,-0.510419 -0.214585,-1.027218 -0.329121,-1.148443 -0.114534,-0.121224 -0.208244,-0.454375 -0.208244,-0.740336 0,-0.28596 -0.104404,-0.584452 -0.23201,-0.663316 -0.127604,-0.07887 -0.232007,-0.327836 -0.232007,-0.553272 0,-0.225435 -0.24534,-0.640367 -0.5452,-0.922071 -0.490554,-0.460851 -0.575636,-0.475513 -0.848865,-0.146293 -0.247421,0.298124 -0.250309,0.654078 -0.01559,1.9218 0.158441,0.855748 0.339754,2.286733 0.40292,3.179966 0.06317,0.893233 0.211116,1.723243 0.328781,1.844468 0.117665,0.121225 0.213937,0.810371 0.213937,1.531437 0,1.368968 0.361054,2.764877 0.792031,3.062158 0.142362,0.0982 0.479134,-0.08408 0.774028,-0.418953 0.440739,-0.500485 0.520446,-0.85267 0.511915,-2.261908 z"
     id="path4436"
     inkscape:connector-curvature="0" />
  <path
     style="opacity:1;fill:#34cb79;fill-opacity:1;fill-rule:nonzero;stroke:#34cb79;stroke-width:0.13920517;stroke-linecap:square;stroke-linejoin:miter;stroke-miterlimit:4;stroke-dasharray:none;stroke-dashoffset:0;stroke-opacity:1;paint-order:markers fill stroke"
     d="M 42.039069,62.996162 C 40.873218,62.693247 40.700867,61.971396 40.33369,55.853644 l -0.167097,-2.784103 -2.610097,-0.0656 -2.610098,-0.0656 0,-3.310125 c 0,-1.820569 0.09372,-3.409309 0.208266,-3.530534 0.184733,-0.195501 0.532485,-2.113143 0.881436,-4.860581 0.06483,-0.510419 0.211579,-1.027217 0.326113,-1.148442 0.114536,-0.121225 0.208246,-0.618561 0.208246,-1.10519 0,-0.486629 0.09141,-1.06607 0.203137,-1.287647 0.111725,-0.221578 0.383825,-1.02929 0.604665,-1.794919 0.220841,-0.765628 0.494844,-1.631873 0.608894,-1.924987 0.114051,-0.293116 0.207364,-1.148286 0.207364,-1.90038 0,-0.752093 0.104404,-1.431968 0.232009,-1.510831 0.127605,-0.07887 0.232009,-0.847175 0.232009,-1.707356 0,-0.860182 0.09726,-1.663151 0.216137,-1.784375 0.118877,-0.121225 0.329129,-1.10784 0.467227,-2.192481 0.138099,-1.084641 0.313437,-2.365027 0.38964,-2.845301 0.182562,-1.150608 -0.230379,-1.725774 -0.823503,-1.14702 -0.535898,0.522916 -1.430479,2.429678 -1.698843,3.621017 -0.117865,0.523229 -0.31364,2.256374 -0.435054,3.851433 -0.25566,3.358668 -0.464593,4.035731 -1.359803,4.406541 -0.529617,0.219373 -0.787684,0.200178 -1.372148,-0.10206 -0.424999,-0.219775 -0.719852,-0.554265 -0.719852,-0.816617 0,-0.244401 -0.104404,-0.508892 -0.232009,-0.587756 -0.291819,-0.180354 -0.314023,-7.128662 -0.02377,-7.435877 0.114534,-0.121224 0.257056,-0.638023 0.316716,-1.148442 0.212421,-1.817381 1.278804,-4.153644 2.753399,-6.032225 1.109247,-1.41314 1.30219,-1.601138 2.786452,-2.71501 l 0.835402,-0.626931 0.505988,0.538598 c 1.001261,1.065794 3.815213,2.223322 5.4049,2.223322 1.227856,0 3.56351,-0.581769 3.78692,-0.943251 0.07369,-0.119236 0.312843,-0.216792 0.531447,-0.216792 0.218605,0 0.783775,-0.318431 1.255936,-0.707626 1.023829,-0.843926 1.15586,-0.804764 3.167855,0.939633 1.390596,1.205646 3.332812,4.42389 3.661429,6.066976 0.07273,0.363701 0.211446,0.661275 0.308233,0.661275 0.214557,0 0.450317,2.1675 0.655853,6.029715 0.13972,2.625413 0.196791,2.905735 0.607544,2.984235 0.54533,0.10422 1.721015,1.318041 2.008165,2.073307 0.113626,0.29886 0.206594,7.061828 0.206594,15.028819 l 0,14.485436 -0.696025,0 -0.696026,0 0,-14.616545 c 0,-9.589689 -0.07979,-14.616543 -0.232008,-14.616543 -0.127606,0 -0.232009,-0.138964 -0.232009,-0.308808 0,-0.169845 -0.257861,-0.446812 -0.573027,-0.615482 -0.512288,-0.27417 -0.671603,-0.241439 -1.503082,0.308807 -0.51153,0.338516 -1.036698,0.615483 -1.167038,0.615483 -0.13034,0 -0.236983,0.192626 -0.236983,0.428058 0,0.619621 -0.738769,1.225556 -1.165341,0.955809 -0.188493,-0.119195 -0.47322,-0.218317 -0.632726,-0.220272 -0.344023,-0.0042 -0.392787,1.065587 -0.058,1.272496 0.127605,0.07885 0.23201,0.548681 0.23201,1.044038 0,0.495357 0.104403,0.965175 0.232007,1.044039 0.127605,0.07887 0.23201,0.416926 0.23201,0.751249 0,0.334321 0.09756,0.928482 0.216808,1.320357 0.797705,2.621493 1.196671,5.543176 1.324961,9.702832 l 0.105543,3.422129 -2.401315,0 c -1.558344,0 -2.49905,0.09773 -2.679726,0.278409 -0.187842,0.187844 -0.27841,1.254636 -0.27841,3.279373 0,1.650531 -0.121777,3.661873 -0.270616,4.469653 -0.243722,1.322725 -0.346596,1.504743 -1.035128,1.831474 -0.914834,0.434115 -1.854699,0.270128 -2.545985,-0.444225 -0.440396,-0.455091 -0.500762,-0.862224 -0.623514,-4.205251 -0.161634,-4.401869 -0.308951,-5.0656 -1.146378,-5.164921 -0.781104,-0.09264 -0.782012,-0.08872 -1.136365,4.916441 -0.218995,3.09326 -0.385405,4.254429 -0.654018,4.563571 -0.389439,0.448199 -1.48026,0.705093 -2.199947,0.5181 z m 13.116784,-29.53257 c 0.371072,-1.333592 0.131722,-5.857161 -0.454148,-8.583101 -0.417108,-1.940726 -1.09298,-3.537048 -1.642991,-3.880535 -0.353097,-0.220512 -0.498512,-0.204444 -0.735651,0.08129 -0.24071,0.290039 -0.222655,0.707907 0.0973,2.251693 0.216071,1.042561 0.392372,2.266199 0.391782,2.719196 -5.81e-4,0.452997 0.0952,0.922813 0.21286,1.044038 0.117665,0.121225 0.271974,0.951235 0.342907,1.84447 0.384311,4.839457 0.50174,5.318437 1.267718,5.170923 0.197546,-0.03805 0.431649,-0.329631 0.520228,-0.647974 z"
     id="path4438"
     inkscape:connector-curvature="0" />
  <path
     style="opacity:1;fill:#34cb79;fill-opacity:1;fill-rule:nonzero;stroke:#34cb79;stroke-width:0.13920517;stroke-linecap:square;stroke-linejoin:miter;stroke-miterlimit:4;stroke-dasharray:none;stroke-dashoffset:0;stroke-opacity:1;paint-order:markers fill stroke"
     d="m 44.458753,14.175084 c -1.842163,-0.506279 -4.176156,-2.123748 -4.176156,-2.894096 0,-0.176558 -0.104404,-0.321015 -0.232009,-0.321015 -0.127605,0 -0.232008,-0.254849 -0.232008,-0.56633 0,-0.311481 -0.104404,-0.6308539 -0.232009,-0.7097189 -0.302618,-0.187028 -0.302618,-3.989126 0,-4.1761544 0.127605,-0.078865 0.232009,-0.3459192 0.232009,-0.5934549 0,-0.5440538 2.51723,-3.2346882 3.02622,-3.2346882 0.198608,0 0.467692,-0.1065854 0.597963,-0.2368577 0.130273,-0.1302713 0.920993,-0.3007432 1.757157,-0.378825 2.158278,-0.20154295 3.875462,0.3711156 5.285198,1.7625456 1.012604,0.9994559 1.200935,1.293935 1.833039,2.8662034 0.587224,1.4606286 0.184468,4.2935032 -0.798336,5.6152921 -1.298304,1.746109 -2.300283,2.414001 -4.321701,2.880729 -1.264605,0.291986 -1.634033,0.290148 -2.739367,-0.01364 z"
     id="path4440"
     inkscape:connector-curvature="0" />
  <path
     style="opacity:1;fill:#322153;fill-opacity:1;fill-rule:nonzero;stroke:#34cb79;stroke-width:0.13920517;stroke-linecap:square;stroke-linejoin:miter;stroke-miterlimit:4;stroke-dasharray:none;stroke-dashoffset:0;stroke-opacity:1;paint-order:markers fill stroke"
     d="M 13.717608,14.103873 C 11.710196,13.507675 10.350612,12.480613 9.6883909,11.060105 9.5139966,10.686021 9.2738667,10.190302 9.1547707,9.9585091 8.8582739,9.3814518 8.8802244,5.6121759 9.1818378,5.3105626 9.3158221,5.1765772 9.4254462,4.9320218 9.4254462,4.7671064 c 0,-0.6546647 2.4335138,-3.0874798 3.0883678,-3.0874798 0.164426,0 0.425772,-0.1268132 0.580767,-0.2818069 0.174241,-0.1742424 1.016181,-0.284939 2.205762,-0.2900108 1.600238,-0.00681 2.116907,0.089172 3.070718,0.5705087 2.120776,1.0702477 3.1797,2.4995619 3.68421,4.9728666 0.261617,1.2825476 0.24007,1.5117378 -0.284144,3.0222939 -0.429604,1.2379349 -0.828062,1.8891579 -1.642275,2.6840689 -1.196643,1.168273 -1.733277,1.463914 -3.323865,1.831167 -1.292722,0.298478 -1.848128,0.283215 -3.087381,-0.08484 z"
     id="path4442"
     inkscape:connector-curvature="0" />
</svg>
