<?xml version="1.0" encoding="UTF-8" standalone="no"?>
<svg
   xmlns:dc="http://purl.org/dc/elements/1.1/"
   xmlns:cc="http://creativecommons.org/ns#"
   xmlns:rdf="http://www.w3.org/1999/02/22-rdf-syntax-ns#"
   xmlns:svg="http://www.w3.org/2000/svg"
   xmlns="http://www.w3.org/2000/svg"
   xmlns:sodipodi="http://sodipodi.sourceforge.net/DTD/sodipodi-0.dtd"
   xmlns:inkscape="http://www.inkscape.org/namespaces/inkscape"
   width="64"
   height="64"
   viewBox="0 0 64 64"
   fill="none"
   id="svg3336"
   version="1.1"
   inkscape:version="0.91 r13725"
   sodipodi:docname="neurologia.svg">
  <metadata
     id="metadata3356">
    <rdf:RDF>
      <cc:Work
         rdf:about="">
        <dc:format>image/svg+xml</dc:format>
        <dc:type
           rdf:resource="http://purl.org/dc/dcmitype/StillImage" />
        <dc:title></dc:title>
      </cc:Work>
    </rdf:RDF>
  </metadata>
  <defs
     id="defs3354" />
  <sodipodi:namedview
     pagecolor="#ffffff"
     bordercolor="#666666"
     borderopacity="1"
     objecttolerance="10"
     gridtolerance="10"
     guidetolerance="10"
     inkscape:pageopacity="0"
     inkscape:pageshadow="2"
     inkscape:window-width="1366"
     inkscape:window-height="705"
     id="namedview3352"
     showgrid="false"
     inkscape:zoom="3.671875"
     inkscape:cx="37.554535"
     inkscape:cy="13.363811"
     inkscape:window-x="-8"
     inkscape:window-y="-8"
     inkscape:window-maximized="1"
     inkscape:current-layer="svg3336" />
  <path
     style="opacity:1;fill:#34cb79;fill-opacity:1;fill-rule:nonzero;stroke:#34cb79;stroke-width:0.09322256;stroke-linecap:square;stroke-linejoin:miter;stroke-miterlimit:4;stroke-dasharray:none;stroke-dashoffset:0;stroke-opacity:1;paint-order:markers fill stroke"
     d="m 34.517531,36.951062 c 0.03328,-13.619564 0.101333,-20.043675 0.216838,-20.470119 0.266783,-0.984964 0.730608,-2.156746 0.942272,-2.380505 0.106818,-0.112921 0.194213,-0.26524 0.194213,-0.338486 0,-0.07325 0.0897,-0.225565 0.199328,-0.338487 0.10963,-0.112921 0.368526,-0.450021 0.575324,-0.74911 1.709257,-2.472075 6.135566,-4.1181345 9.128016,-3.3945335 4.101764,0.9918435 6.386191,3.0844945 7.639672,6.9983275 0.10112,0.315733 0.185954,1.344821 0.188521,2.286861 l 0.0047,1.7128 0.493335,0.07513 c 0.271334,0.04132 0.929614,0.116817 1.462843,0.16777 2.457374,0.234816 4.801062,1.665094 6.267887,3.825091 0.334861,0.493104 0.608837,0.968179 0.608837,1.055721 0,0.08754 0.139834,0.408133 0.310742,0.71242 0.170908,0.304288 0.310742,0.756748 0.310742,1.005468 0,0.248719 0.06992,0.495428 0.155371,0.548242 0.08744,0.05404 0.15537,0.801307 0.15537,1.70908 0,0.907774 -0.06793,1.655041 -0.15537,1.70908 -0.08545,0.05281 -0.155371,0.267639 -0.155371,0.477391 0,0.209751 -0.06384,0.502771 -0.141867,0.651157 -0.07803,0.148385 -0.330907,0.677998 -0.561953,1.176921 -0.542076,1.170561 -1.677045,2.528212 -2.685948,3.212932 -0.438478,0.297587 -0.799037,0.627411 -0.80124,0.732945 -0.0022,0.105533 0.200079,0.525034 0.449517,0.932226 0.430243,0.70234 0.673726,1.275657 1.077922,2.538143 0.46047,1.438246 0.06557,4.165621 -0.836953,5.78041 -0.856542,1.532526 -3.275178,3.530814 -4.273532,3.530814 -0.15779,0 -0.330101,0.06992 -0.382915,0.15537 -0.05281,0.08545 -0.206546,0.155372 -0.341625,0.155372 -0.297835,0 -0.656573,0.442271 -0.663345,0.817806 -0.0027,0.150703 -0.06721,0.395412 -0.143308,0.543798 -0.0761,0.148385 -0.302298,0.612496 -0.502658,1.031361 -0.643845,1.346002 -2.432564,2.921875 -3.864732,3.404856 -1.503265,0.506959 -2.329848,0.561537 -8.585989,0.566928 l -6.333111,0.0055 0.04851,-19.848636 z m 13.70245,15.794024 c 1.176143,-0.552853 2.255741,-2.018599 2.255741,-3.062568 0,-0.55458 -0.571875,-1.117479 -1.135298,-1.117479 -0.511152,0 -0.990249,0.447265 -1.146666,1.070479 -0.163492,0.651407 -0.767227,1.129531 -1.493868,1.183061 -0.358731,0.02642 -0.708016,0.05457 -0.776187,0.06254 -0.2166,0.02532 -0.885964,0.827635 -0.885964,1.061942 0,0.123876 0.144595,0.428293 0.321322,0.676483 0.29296,0.411423 0.402821,0.451254 1.244661,0.451254 0.613545,0 1.155823,-0.10928 1.616259,-0.32571 z m 5.927962,-6.083899 c 0.477785,-0.20907 1.276117,-0.711849 1.537818,-0.968495 0.349639,-0.342888 0.849427,-1.15047 0.849427,-1.372549 0,-0.129231 0.07691,-0.260602 0.170908,-0.291935 0.106441,-0.03548 0.170908,-0.555603 0.170908,-1.378898 0,-1.071367 -0.06471,-1.438502 -0.341429,-1.936957 -0.50737,-0.913946 -0.935162,-1.314199 -1.404621,-1.314199 -0.443547,0 -1.237072,0.662755 -1.237072,1.033206 0,0.248087 0.322312,0.861254 0.53233,1.012705 0.07915,0.05707 0.149065,0.548161 0.155372,1.091302 0.0099,0.849309 -0.0429,1.044874 -0.37696,1.397241 -0.213635,0.225343 -0.710716,0.558865 -1.104623,0.741161 -0.838798,0.38819 -1.169929,0.928485 -0.890536,1.453058 0.386615,0.72588 1.070181,0.914313 1.938478,0.53436 z m -11.977504,-4.847721 0.381365,-0.381365 0,-5.222203 c 0,-3.262347 -0.05965,-5.333653 -0.158931,-5.519169 -0.408213,-0.762751 -1.544295,-0.755802 -1.941277,0.01187 -0.34095,0.659326 -0.340433,10.207196 5.91e-4,10.86666 0.36339,0.702719 1.148198,0.814257 1.718254,0.244201 l -2e-6,5e-6 z m 15.195305,-8.042208 c 0.725283,-0.5095 1.452025,-1.351533 1.848414,-2.14165 0.294109,-0.58624 0.350763,-0.950124 0.350763,-2.252879 0,-1.346367 -0.05127,-1.654087 -0.384206,-2.305898 -0.615612,-1.205235 -2.16654,-2.588285 -2.902455,-2.588285 -0.115052,0 -0.209185,-0.06992 -0.209185,-0.155372 0,-0.08914 -0.474983,-0.155371 -1.114205,-0.155371 -1.296432,0 -1.682471,0.231722 -1.682471,1.009912 0,0.656255 0.348569,0.934469 1.476023,1.178097 1.536117,0.331936 2.274237,0.99291 2.68543,2.40476 0.276801,0.950413 -0.180156,2.101386 -1.204057,3.032747 -0.641376,0.58341 -0.782204,0.80499 -0.782204,1.230733 0,1.044658 0.9597,1.416502 1.918153,0.743206 z M 49.532401,19.671985 c 0.528534,-0.282863 0.666573,-0.932353 0.421464,-1.983043 -0.685165,-2.937039 -3.058279,-4.964699 -5.650547,-4.827998 -0.807633,0.04259 -0.905484,0.08822 -1.17253,0.546726 -0.275577,0.47316 -0.277178,0.524264 -0.02957,0.943438 0.262744,0.444789 1.162221,0.809182 1.997409,0.809182 0.201945,0 0.453573,0.104105 0.559173,0.231346 0.1056,0.12724 0.247124,0.197277 0.314497,0.155638 0.170548,-0.105405 1.118793,0.870435 1.375536,1.415567 0.11665,0.24768 0.273852,0.571733 0.349336,0.720118 0.07549,0.148385 0.137244,0.537224 0.137244,0.864086 0,1.005905 0.85812,1.574422 1.697985,1.12494 z"
     id="path4421"
     inkscape:connector-curvature="0" />
  <path
     inkscape:connector-curvature="0"
     id="path4423"
     d="M 29.762799,36.951062 C 29.729518,23.331498 29.661466,16.907387 29.545961,16.480943 29.279179,15.495979 28.815354,14.324197 28.60369,14.100438 c -0.106818,-0.112921 -0.194214,-0.26524 -0.194214,-0.338486 0,-0.07325 -0.0897,-0.225565 -0.199328,-0.338487 -0.109629,-0.112921 -0.368525,-0.450021 -0.575323,-0.74911 -1.709258,-2.472075 -6.135566,-4.1181345 -9.128016,-3.3945335 -4.101765,0.9918435 -6.386191,3.0844945 -7.639672,6.9983275 -0.101121,0.315733 -0.185955,1.344821 -0.188521,2.286861 l -0.0047,1.7128 -0.493336,0.07513 c -0.2713332,0.04132 -0.9296132,0.116817 -1.4628428,0.16777 -2.4573735,0.234816 -4.8010614,1.665094 -6.267887,3.825091 -0.3348603,0.493104 -0.6088369,0.968179 -0.6088369,1.055721 0,0.08754 -0.1398335,0.408133 -0.3107414,0.71242 -0.1709079,0.304288 -0.3107422,0.756748 -0.3107422,1.005468 0,0.248719 -0.069918,0.495428 -0.1553711,0.548242 -0.0874375,0.05404 -0.15537037,0.801307 -0.15537037,1.70908 0,0.907774 0.0679336,1.655041 0.15537037,1.70908 0.085454,0.05281 0.1553711,0.267639 0.1553711,0.477391 0,0.209751 0.063843,0.502771 0.1418675,0.651157 0.078027,0.148385 0.3309061,0.677998 0.5619522,1.176921 0.5420763,1.170561 1.6770454,2.528212 2.6859483,3.212932 0.4384784,0.297587 0.7990373,0.627411 0.8012399,0.732945 0.00218,0.105533 -0.200079,0.525034 -0.4495172,0.932226 -0.4302425,0.70234 -0.6737256,1.275657 -1.0779217,2.538143 -0.4604697,1.438246 -0.06557,4.165621 0.8369534,5.78041 0.8565412,1.532526 3.2751773,3.530814 4.2735319,3.530814 0.1577899,0 0.3301009,0.06992 0.3829148,0.15537 0.052814,0.08545 0.2065456,0.155372 0.3416246,0.155372 0.2978356,0 0.6565726,0.442271 0.6633456,0.817806 0.0027,0.150703 0.06721,0.395412 0.143308,0.543798 0.0761,0.148385 0.302297,0.612496 0.502657,1.031361 0.643845,1.346002 2.432564,2.921875 3.864732,3.404856 1.503265,0.506959 2.329848,0.561537 8.58599,0.566928 l 6.33311,0.0055 -0.0485,-19.848636 z m -13.70245,15.794024 c -1.176142,-0.552853 -2.25574,-2.018599 -2.25574,-3.062568 0,-0.55458 0.571875,-1.117479 1.135298,-1.117479 0.511152,0 0.990249,0.447265 1.146665,1.070479 0.163493,0.651407 0.767227,1.129531 1.493869,1.183061 0.358731,0.02642 0.708016,0.05457 0.776186,0.06254 0.216601,0.02532 0.885964,0.827635 0.885964,1.061942 0,0.123876 -0.144595,0.428293 -0.321321,0.676483 -0.292961,0.411423 -0.402822,0.451254 -1.244661,0.451254 -0.613545,0 -1.155824,-0.10928 -1.61626,-0.32571 z M 10.132388,46.661187 C 9.6546031,46.452117 8.8562701,45.949338 8.5945692,45.692692 8.2449305,45.349804 7.7451425,44.542222 7.7451425,44.320143 c 0,-0.129231 -0.076905,-0.260602 -0.1709079,-0.291935 -0.1064412,-0.03548 -0.1709079,-0.555603 -0.1709079,-1.378898 0,-1.071367 0.064714,-1.438502 0.3414293,-1.936957 0.5073697,-0.913946 0.9351619,-1.314199 1.4046211,-1.314199 0.4435468,0 1.2370709,0.662755 1.2370709,1.033206 0,0.248087 -0.322312,0.861254 -0.5323299,1.012705 -0.079148,0.05707 -0.1490642,0.548161 -0.1553711,1.091302 -0.00987,0.849309 0.042898,1.044874 0.37696,1.397241 0.213635,0.225343 0.710716,0.558865 1.104623,0.741161 0.838798,0.38819 1.169929,0.928485 0.890535,1.453058 -0.386614,0.72588 -1.070181,0.914313 -1.938477,0.53436 z m 11.977503,-4.847721 -0.381365,-0.381365 0,-5.222203 c 0,-3.262347 0.05965,-5.333653 0.158932,-5.519169 0.408212,-0.762751 1.544295,-0.755802 1.941276,0.01187 0.34095,0.659326 0.340433,10.207196 -5.9e-4,10.86666 -0.36339,0.702719 -1.148199,0.814257 -1.718254,0.244201 l 1e-6,5e-6 z M 6.9145871,33.771258 c -0.7252833,-0.5095 -1.4520254,-1.351533 -1.8484148,-2.14165 -0.2941082,-0.58624 -0.3507626,-0.950124 -0.3507626,-2.252879 0,-1.346367 0.051273,-1.654087 0.3842058,-2.305898 0.6156125,-1.205235 2.1665401,-2.588285 2.9024548,-2.588285 0.1150523,0 0.2091856,-0.06992 0.2091856,-0.155372 0,-0.08914 0.4749825,-0.155371 1.1142048,-0.155371 1.2964323,0 1.6824713,0.231722 1.6824713,1.009912 0,0.656255 -0.34857,0.934469 -1.4760233,1.178097 -1.536117,0.331936 -2.2742375,0.99291 -2.6854295,2.40476 -0.2768013,0.950413 0.1801556,2.101386 1.2040564,3.032747 0.6413755,0.58341 0.7822038,0.80499 0.7822038,1.230733 0,1.044658 -0.9597002,1.416502 -1.9181523,0.743206 z M 14.747929,19.671985 c -0.528534,-0.282863 -0.666572,-0.932353 -0.421463,-1.983043 0.685164,-2.937039 3.058278,-4.964699 5.650547,-4.827998 0.807633,0.04259 0.905484,0.08822 1.172529,0.546726 0.275577,0.47316 0.277179,0.524264 0.02957,0.943438 -0.262744,0.444789 -1.162222,0.809182 -1.997409,0.809182 -0.201945,0 -0.453573,0.104105 -0.559174,0.231346 -0.105599,0.12724 -0.247123,0.197277 -0.314496,0.155638 -0.170549,-0.105405 -1.118793,0.870435 -1.375536,1.415567 -0.116651,0.24768 -0.273853,0.571733 -0.349336,0.720118 -0.07549,0.148385 -0.137244,0.537224 -0.137244,0.864086 0,1.005905 -0.85812,1.574422 -1.697985,1.12494 z"
     style="opacity:1;fill:#322153;fill-opacity:1;fill-rule:nonzero;stroke:#34cb79;stroke-width:0.09322256;stroke-linecap:square;stroke-linejoin:miter;stroke-miterlimit:4;stroke-dasharray:none;stroke-dashoffset:0;stroke-opacity:1;paint-order:markers fill stroke" />
</svg>
