<?xml version="1.0" encoding="UTF-8" standalone="no"?>
<svg
   xmlns:dc="http://purl.org/dc/elements/1.1/"
   xmlns:cc="http://creativecommons.org/ns#"
   xmlns:rdf="http://www.w3.org/1999/02/22-rdf-syntax-ns#"
   xmlns:svg="http://www.w3.org/2000/svg"
   xmlns="http://www.w3.org/2000/svg"
   xmlns:sodipodi="http://sodipodi.sourceforge.net/DTD/sodipodi-0.dtd"
   xmlns:inkscape="http://www.inkscape.org/namespaces/inkscape"
   width="64"
   height="64"
   viewBox="0 0 64 64"
   fill="none"
   id="svg3336"
   version="1.1"
   inkscape:version="0.91 r13725"
   sodipodi:docname="oftalmologia.svg">
  <metadata
     id="metadata3356">
    <rdf:RDF>
      <cc:Work
         rdf:about="">
        <dc:format>image/svg+xml</dc:format>
        <dc:type
           rdf:resource="http://purl.org/dc/dcmitype/StillImage" />
        <dc:title></dc:title>
      </cc:Work>
    </rdf:RDF>
  </metadata>
  <defs
     id="defs3354" />
  <sodipodi:namedview
     pagecolor="#ffffff"
     bordercolor="#666666"
     borderopacity="1"
     objecttolerance="10"
     gridtolerance="10"
     guidetolerance="10"
     inkscape:pageopacity="0"
     inkscape:pageshadow="2"
     inkscape:window-width="1366"
     inkscape:window-height="705"
     id="namedview3352"
     showgrid="false"
     inkscape:zoom="5.1928154"
     inkscape:cx="64.45946"
     inkscape:cy="34.000983"
     inkscape:window-x="-8"
     inkscape:window-y="-8"
     inkscape:window-maximized="1"
     inkscape:current-layer="svg3336" />
  <path
     style="opacity:1;fill:#322153;fill-opacity:1;fill-rule:nonzero;stroke:#322153;stroke-width:0.18677875;stroke-linecap:square;stroke-linejoin:miter;stroke-miterlimit:4;stroke-dasharray:none;stroke-dashoffset:0;stroke-opacity:1;paint-order:markers fill stroke"
     d="m 57.780626,55.329288 c -2.065498,-2.07111 -3.803982,-3.766784 -3.863301,-3.768164 -0.05933,-0.0014 -0.448784,0.240775 -0.865476,0.538119 -0.924515,0.659719 -2.25349,1.337277 -3.165475,1.613859 -0.373724,0.113344 -0.767054,0.253097 -0.87406,0.310563 -0.482063,0.258881 -2.164449,0.407488 -3.912513,0.345599 -1.713959,-0.06068 -1.911949,-0.0943 -3.305706,-0.561308 -3.02792,-1.014564 -5.215795,-2.719548 -7.016722,-5.468054 -0.488854,-0.746069 -1.365163,-2.759855 -1.502499,-3.452788 -0.184809,-0.932454 -0.04048,-0.864825 -1.845546,-0.864825 -1.762844,0 -3.813804,-0.17167 -5.202078,-0.435426 -1.233476,-0.234345 -3.908375,-0.901806 -4.200578,-1.048159 -0.1359,-0.06807 -0.719657,-0.286265 -1.297236,-0.484883 -0.57758,-0.198618 -1.467113,-0.534064 -1.976741,-0.745434 -1.108072,-0.459576 -4.555927,-2.184261 -4.81831,-2.410214 -0.101925,-0.08777 -0.407702,-0.28017 -0.679504,-0.427548 C 12.983078,38.323247 12.449734,37.997094 12.069669,37.745839 11.689605,37.494585 11.133646,37.127744 10.834206,36.930636 10.534764,36.733529 9.6567081,36.094177 8.882969,35.509854 8.1092299,34.92553 7.3308872,34.339373 7.1533199,34.207284 6.0960253,33.420783 2.7025203,30.237744 1.1164505,28.544821 0.52920011,27.91801 0.46783167,27.798976 0.46783167,27.286732 c 0,-0.565205 0.001996,-0.567749 1.94585533,-2.523102 2.2090667,-2.22209 4.8817096,-4.566339 6.5045721,-5.705337 0.3328778,-0.233631 0.8054426,-0.568703 1.0501443,-0.744606 0.9106976,-0.654658 2.1724206,-1.509467 2.5381616,-1.719587 0.207722,-0.119338 0.691758,-0.404239 1.075634,-0.633113 2.054515,-1.224938 5.075122,-2.701958 6.405959,-3.132396 0.373728,-0.120874 0.735101,-0.261746 0.803051,-0.313047 0.06795,-0.0513 0.679505,-0.247408 1.35901,-0.435793 0.679505,-0.188386 1.291059,-0.383416 1.359011,-0.433402 0.229836,-0.169071 3.435274,-0.752476 5.497812,-1.00063 1.251626,-0.15059 5.266762,-0.06373 6.053772,0.130966 0.305777,0.07564 1.355915,0.277484 2.333651,0.448533 0.977727,0.171049 1.839465,0.350103 1.91497,0.397897 0.07549,0.04779 0.721035,0.261964 1.434513,0.475935 2.077186,0.622941 3.716946,1.303803 5.98674,2.48581 1.997952,1.040442 2.799964,1.487943 3.588102,2.002058 0.407701,0.26595 1.019254,0.656826 1.359008,0.86861 0.339754,0.211785 0.867917,0.57687 1.173693,0.811299 0.305776,0.234431 0.694951,0.521184 0.864823,0.637231 1.548578,1.057877 5.077841,4.147354 7.011257,6.137567 1.614203,1.66162 1.636993,1.692915 1.636993,2.247979 0,0.509099 -0.06197,0.628834 -0.648624,1.252696 -1.469407,1.562689 -3.834213,3.796324 -5.065402,4.784427 -0.322761,0.259038 -0.586837,0.54341 -0.586837,0.631937 0,0.08852 0.131068,0.318113 0.291268,0.510189 0.697346,0.836101 1.4229,2.556917 1.927037,4.570392 0.403746,1.612555 0.357446,3.727762 -0.122022,5.574389 -0.206055,0.793591 -0.572103,1.860822 -0.813443,2.371628 -0.394953,0.835929 -1.455816,2.556306 -1.680325,2.724951 -0.04872,0.03661 1.633037,1.787544 3.737278,3.890963 2.10424,2.10342 3.825893,3.874915 3.825893,3.936657 0,0.141077 -1.44344,1.557112 -1.587246,1.557112 -0.05834,0 -1.796024,-1.694545 -3.861515,-3.765657 z m -9.438575,-3.55852 c 2.037265,-0.608923 3.362803,-1.386716 4.76477,-2.795856 1.257337,-1.263763 1.973691,-2.423874 2.562325,-4.149571 0.352411,-1.033178 0.431781,-1.468093 0.484757,-2.656247 0.06106,-1.370169 -0.09345,-2.985266 -0.328494,-3.43303 -0.06106,-0.116373 -0.260584,-0.64272 -0.443331,-1.16966 -0.182738,-0.526939 -0.376799,-0.985607 -0.431254,-1.019261 -0.05444,-0.03365 -0.26543,-0.353067 -0.468835,-0.709804 C 54.05214,35.083464 52.799548,33.763745 51.847054,33.061188 51.04771,32.4716 49.531967,31.737312 48.558713,31.468186 48.156727,31.357029 47.118357,31.24369 46.16892,31.207339 c -2.019935,-0.07734 -3.298593,0.135952 -4.657519,0.7769 -0.495238,0.23358 -0.940002,0.42476 -0.988369,0.424842 -0.04836,8.4e-5 -0.249488,0.139073 -0.446916,0.308867 -0.197435,0.169793 -0.404879,0.308715 -0.460987,0.308715 -0.181422,0 -1.858872,1.649368 -2.324522,2.285607 -1.036528,1.416262 -1.484069,2.491679 -1.979435,4.756535 -0.163606,0.748018 -0.113293,2.502186 0.102763,3.582845 0.182852,0.914583 0.614318,2.317369 0.728383,2.36813 0.05072,0.02256 0.246503,0.346801 0.435111,0.720529 0.188599,0.373729 0.510916,0.914237 0.716236,1.20113 0.455316,0.636183 1.953793,1.998415 2.780873,2.528017 0.840743,0.538352 2.427519,1.19506 3.387426,1.401925 1.033299,0.222681 4.003306,0.161447 4.880087,-0.100613 z M 32.689353,41.568858 c 0.152945,-0.09701 0.484752,-2.56312 0.361446,-2.686424 -0.02934,-0.02934 -0.909491,-0.07383 -1.955891,-0.09884 -1.896406,-0.04535 -3.642195,-0.298509 -4.373474,-0.634197 -0.203851,-0.09357 -0.704214,-0.292093 -1.111917,-0.441148 -1.654636,-0.604937 -3.559803,-1.87651 -5.068545,-3.38292 -3.128859,-3.124028 -4.627923,-6.954886 -4.472494,-11.42946 0.05798,-1.669347 0.436954,-4.036159 0.70226,-4.385897 0.169556,-0.223518 0.679232,-1.776318 0.606812,-1.848738 -0.03896,-0.03896 -0.537738,0.183483 -1.108386,0.494329 -3.191034,1.738236 -6.044485,3.72087 -8.8827359,6.171902 -1.6663727,1.439029 -4.07703,3.770376 -4.07703,3.942896 0,0.306713 2.9138251,3.122192 4.9344851,4.767938 0.2920052,0.237826 0.7049988,0.574572 0.9177629,0.748325 0.4321475,0.352907 1.7038759,1.302889 2.1782659,1.627161 2.550457,1.743395 3.858887,2.538071 5.744906,3.489179 2.221739,1.120409 3.159404,1.529776 4.756535,2.076609 2.629267,0.900222 4.546029,1.335123 6.856823,1.555774 1.482839,0.141593 3.790228,0.16097 3.991177,0.03352 z m -0.630619,-5.075496 c 0.326109,-0.06389 0.902877,-0.150059 1.281707,-0.19151 0.656057,-0.07178 0.701797,-0.100014 0.96281,-0.594245 1.469863,-2.783214 3.882601,-4.966632 6.687789,-6.052157 0.509627,-0.197211 1.224012,-0.432969 1.587528,-0.523908 0.363507,-0.09093 0.676115,-0.182971 0.694679,-0.204513 0.189207,-0.219576 0.490746,-1.057708 0.818425,-2.274872 0.359877,-1.336756 0.395896,-1.63383 0.395552,-3.26211 -3.72e-4,-1.6155 -0.03774,-1.928315 -0.38061,-3.185399 -0.533779,-1.956912 -1.459373,-3.80718 -2.557243,-5.111922 -0.508638,-0.604475 -3.157164,-1.37616 -6.73565,-1.962523 -1.937228,-0.31743 -6.414418,-0.238462 -7.598101,0.134013 -0.203852,0.06414 -0.982194,0.231873 -1.729649,0.372725 -2.095361,0.394854 -3.625213,0.931002 -4.110023,1.44039 -1.033729,1.08614 -2.189291,3.290417 -2.54766,4.859753 -0.11558,0.506144 -0.26206,1.117272 -0.325509,1.35806 -0.204044,0.774345 -0.274664,2.502443 -0.13862,3.39214 0.227599,1.488466 0.618678,3.028985 0.942953,3.714449 0.171559,0.362646 0.366214,0.802146 0.432568,0.976667 0.258975,0.681156 1.456169,2.277187 2.464458,3.285477 1.143954,1.143953 2.510768,2.125052 3.590699,2.577405 0.373728,0.156543 0.735669,0.329593 0.80431,0.384552 0.23446,0.187722 2.004628,0.592549 3.226395,0.737857 0.671009,0.0798 1.24318,0.167761 1.271494,0.195457 0.07889,0.07717 0.31398,0.06109 0.961698,-0.06578 z m 23.628394,-5.383419 c 1.205358,-1.089605 3.835657,-3.723466 3.835747,-3.840955 2e-4,-0.234494 -3.318689,-3.361818 -5.250598,-4.947543 -2.101029,-1.724528 -5.100333,-3.758923 -7.324745,-4.968283 -0.766981,-0.416991 -1.427182,-0.758166 -1.467112,-0.758166 -0.123447,0 0.06242,0.713104 0.329892,1.265626 0.744807,1.538615 1.361403,5.897204 1.008584,7.129442 -0.105519,0.368515 -0.288456,1.251296 -0.72451,3.49627 -0.06496,0.334322 -0.05607,0.339752 0.554901,0.339752 1.881663,0 5.241771,1.240184 6.743223,2.488862 0.144123,0.119852 0.425721,0.351956 0.625788,0.515787 l 0.363761,0.297873 0.448493,-0.324888 c 0.246675,-0.178688 0.63213,-0.490889 0.856576,-0.693777 z"
     id="path4367"
     inkscape:connector-curvature="0" />
  <path
     style="opacity:1;fill:#322153;fill-opacity:1;fill-rule:nonzero;stroke:#322153;stroke-width:0.18677875;stroke-linecap:square;stroke-linejoin:miter;stroke-miterlimit:4;stroke-dasharray:none;stroke-dashoffset:0;stroke-opacity:1;paint-order:markers fill stroke"
     d="m 30.307328,29.681466 c -0.939755,-0.142791 -2.35378,-0.839347 -3.141362,-1.54745 -0.760214,-0.683498 -1.532361,-1.888285 -1.822815,-2.844151 -0.262263,-0.863098 -0.289087,-2.786956 -0.0506,-3.629467 0.210644,-0.744162 1.002407,-2.08008 1.579072,-2.664325 0.676761,-0.685653 1.574425,-1.262492 2.434354,-1.564316 1.079313,-0.378824 3.162892,-0.380794 4.220443,-0.004 3.040329,1.083263 4.720438,4.105032 4.075515,7.330011 -0.435864,2.179587 -2.186799,4.10892 -4.3073,4.746174 -0.749042,0.225102 -2.132913,0.307336 -2.987306,0.177515 z"
     id="path4369"
     inkscape:connector-curvature="0" />
  <path
     style="opacity:1;fill:#34cb79;fill-opacity:1;fill-rule:nonzero;stroke:#34cb79;stroke-width:0.54437619;stroke-linecap:square;stroke-linejoin:miter;stroke-miterlimit:4;stroke-dasharray:none;stroke-dashoffset:0;stroke-opacity:1;paint-order:markers fill stroke"
     d="m 57.765684,55.387167 c -2.144643,-2.120166 -3.855871,-3.745582 -3.918157,-3.721681 -0.06079,0.02334 -0.478516,0.284035 -0.928216,0.579326 -1.63742,1.075184 -3.772753,1.93413 -5.220658,2.100028 -0.954427,0.109356 -2.682704,0.110281 -3.795309,0.002 -1.068719,-0.103983 -2.698255,-0.622589 -3.993298,-1.270886 -3.007806,-1.505713 -5.343836,-4.219394 -6.464221,-7.509264 -0.232345,-0.682254 -0.290229,-1.051996 -0.43765,-2.795535 -0.21755,-2.572951 -0.167738,-3.020237 0.588597,-5.285308 0.779097,-2.333238 1.537788,-3.540347 3.279656,-5.218069 1.412874,-1.360842 2.850108,-2.228234 4.786518,-2.888736 0.592562,-0.202122 1.184199,-0.345214 1.471503,-0.355892 0.264267,-0.0098 1.070162,-0.058 1.790889,-0.10706 2.128248,-0.144873 2.589035,-0.124345 3.712817,0.165403 2.015861,0.519753 3.664043,1.309285 5.06005,2.423924 1.034514,0.826013 2.983708,3.210242 3.496509,4.276901 1.187349,2.46973 1.631704,5.062181 1.27815,7.456929 -0.292465,1.980909 -1.063702,3.987739 -2.184671,5.6847 -0.267562,0.405044 -0.486483,0.783534 -0.486483,0.841088 0,0.05756 1.691504,1.821783 3.75889,3.920506 l 3.758881,3.815861 -0.177466,0.249236 c -0.211545,0.297086 -1.389366,1.400605 -1.494902,1.400605 -0.04065,0 -1.787259,-1.69385 -3.881429,-3.764113 z M 46.836888,51.898753 c 0.959481,-0.06919 1.378995,-0.143143 2.009291,-0.354259 1.710394,-0.572889 2.835275,-1.275659 4.172037,-2.606484 1.413145,-1.406875 2.320095,-2.966425 2.830401,-4.867036 0.308861,-1.150351 0.315775,-4.04318 0.01198,-5.012603 -0.266862,-0.851563 -0.862846,-2.33103 -1.055755,-2.620814 -0.11195,-0.168169 -0.356058,-0.541042 -0.542461,-0.828604 -0.480612,-0.741416 -1.899519,-2.13923 -2.705812,-2.665589 -1.388341,-0.906313 -2.715131,-1.421291 -4.066663,-1.578414 -1.345961,-0.156476 -3.790138,-0.06346 -4.61113,0.175477 -1.906931,0.554996 -3.368064,1.437532 -4.690163,2.832907 -1.24624,1.31531 -1.906904,2.451841 -2.418708,4.160873 -0.454553,1.517869 -0.529842,2.051368 -0.473512,3.355385 0.101005,2.338299 0.508451,3.576422 1.909802,5.803395 0.339265,0.539153 1.504447,1.690483 2.390147,2.361733 1.18646,0.89919 3.231799,1.7216 4.58088,1.841918 1.099006,0.09802 1.327044,0.0982 2.65966,0.0021 z"
     id="path4406"
     inkscape:connector-curvature="0" />
</svg>
