<?xml version="1.0" encoding="UTF-8" standalone="no"?>
<svg
   xmlns:dc="http://purl.org/dc/elements/1.1/"
   xmlns:cc="http://creativecommons.org/ns#"
   xmlns:rdf="http://www.w3.org/1999/02/22-rdf-syntax-ns#"
   xmlns:svg="http://www.w3.org/2000/svg"
   xmlns="http://www.w3.org/2000/svg"
   xmlns:sodipodi="http://sodipodi.sourceforge.net/DTD/sodipodi-0.dtd"
   xmlns:inkscape="http://www.inkscape.org/namespaces/inkscape"
   width="64"
   height="64"
   viewBox="0 0 64 64"
   fill="none"
   id="svg3336"
   version="1.1"
   inkscape:version="0.91 r13725"
   sodipodi:docname="ortopedia.svg">
  <metadata
     id="metadata3356">
    <rdf:RDF>
      <cc:Work
         rdf:about="">
        <dc:format>image/svg+xml</dc:format>
        <dc:type
           rdf:resource="http://purl.org/dc/dcmitype/StillImage" />
        <dc:title></dc:title>
      </cc:Work>
    </rdf:RDF>
  </metadata>
  <defs
     id="defs3354" />
  <sodipodi:namedview
     pagecolor="#ffffff"
     bordercolor="#666666"
     borderopacity="1"
     objecttolerance="10"
     gridtolerance="10"
     guidetolerance="10"
     inkscape:pageopacity="0"
     inkscape:pageshadow="2"
     inkscape:window-width="1366"
     inkscape:window-height="705"
     id="namedview3352"
     showgrid="false"
     inkscape:zoom="5.1928154"
     inkscape:cx="14.612464"
     inkscape:cy="39.962911"
     inkscape:window-x="-8"
     inkscape:window-y="-8"
     inkscape:window-maximized="1"
     inkscape:current-layer="svg3336" />
  <path
     style="opacity:1;fill:#d3e6f8;fill-opacity:1;fill-rule:nonzero;stroke:#d3e6f8;stroke-width:0.89026695;stroke-linecap:square;stroke-linejoin:miter;stroke-miterlimit:4;stroke-dasharray:none;stroke-dashoffset:0;stroke-opacity:1;paint-order:markers fill stroke"
     d="m 13.183034,52.694283 c -1.750321,-0.807825 -2.538881,-2.69991 -1.833649,-4.399686 0.186607,-0.449766 1.955485,-2.361452 5.156152,-5.572424 l 4.872096,-4.887783 0,-2.715671 c 0,-2.348065 0.04962,-2.81294 0.366598,-3.434259 1.118974,-2.193371 4.117987,-2.44698 5.621783,-0.475401 0.461122,0.604563 0.527711,0.873194 0.625522,2.523444 0.134597,2.270935 0.223752,2.366445 2.214375,2.372229 1.586643,0.0046 2.662286,0.391594 3.283463,1.181292 0.966333,1.228494 1.00719,2.981938 0.09606,4.122683 -0.93899,1.175624 -1.439558,1.320709 -4.557793,1.321033 l -2.754372,2.86e-4 -4.887782,4.872097 c -3.210973,3.200666 -5.122657,4.969545 -5.572424,5.156151 -0.899851,0.373346 -1.725998,0.353245 -2.630029,-0.06399 z"
     id="path4523"
     inkscape:connector-curvature="0" />
  <path
     style="opacity:1;fill:#322153;fill-opacity:1;fill-rule:nonzero;stroke:none;stroke-width:0.93099999;stroke-linecap:square;stroke-linejoin:miter;stroke-miterlimit:4;stroke-dasharray:none;stroke-dashoffset:0;stroke-opacity:1;paint-order:markers fill stroke"
     d="M 29.664306,63.617426 C 25.444397,63.280141 21.802166,62.24992 17.878815,60.283844 11.676433,57.1757 6.9156479,52.444688 3.8280156,46.320918 2.2897757,43.270093 1.5065656,40.901818 0.81348856,37.205579 0.41278039,35.06857 0.41018703,29.237389 0.80899414,27.077422 1.8290497,21.552576 3.6242267,17.364013 6.8072275,13.082152 8.2018418,11.206078 11.575568,7.8874473 13.435843,6.561784 20.653197,1.4185794 29.718884,-0.5722721 38.135138,1.1377467 52.883815,4.1343905 63.547601,17.087835 63.547601,32.006608 c 0,13.925633 -8.811642,25.946272 -22.189868,30.270908 -2.50087,0.808429 -5.104556,1.224731 -8.286672,1.324949 -1.417943,0.04465 -2.950978,0.05139 -3.406744,0.01496 l 0,7e-6 z m -13.792563,-8.75181 c 1.415191,-0.457467 1.976023,-0.858927 4.135095,-2.960015 l 2.260551,-2.199846 0.89147,0.451742 c 2.515758,1.274832 5.639052,1.964079 8.899374,1.963911 5.519087,-3.7e-4 10.45641,-2.085156 14.329736,-6.050978 3.088379,-3.162134 4.862551,-6.861278 5.549296,-11.570275 0.492766,-3.378902 -0.195631,-7.567849 -1.809941,-11.013625 l -0.517627,-1.104889 2.13969,-2.209779 c 2.64571,-2.732373 3.045649,-3.46035 3.035053,-5.524449 -0.0092,-1.786053 -0.449211,-2.840766 -1.645129,-3.943124 -1.151552,-1.0614643 -1.94583,-1.358246 -3.691365,-1.3792777 -2.032031,-0.024484 -2.749752,0.3703335 -5.512147,3.0322207 l -2.209781,2.129377 -1.623502,-0.704592 c -3.347384,-1.452748 -6.82434,-2.018771 -10.04934,-1.635957 -4.836754,0.574131 -8.53705,2.32311 -12.021378,5.682009 -4.029613,3.884559 -6.045664,8.657668 -6.045664,14.313431 0,3.163592 0.55194,5.713994 1.837802,8.492103 l 0.564782,1.220218 -2.193253,2.253776 c -2.094869,2.152678 -2.4960693,2.713481 -2.9534227,4.12832 -0.5279614,1.633268 0.081656,3.801371 1.4549897,5.17471 1.36951,1.369509 3.545997,1.98148 5.174711,1.454989 z"
     id="path4519"
     inkscape:connector-curvature="0" />
  <path
     style="opacity:1;fill:#d3e6f8;fill-opacity:1;fill-rule:nonzero;stroke:#d3e6f8;stroke-width:0.89026695;stroke-linecap:square;stroke-linejoin:miter;stroke-miterlimit:4;stroke-dasharray:none;stroke-dashoffset:0;stroke-opacity:1;paint-order:markers fill stroke"
     d="m 38.043053,34.095306 c -1.509719,-0.696781 -2.117705,-1.853427 -2.117705,-4.028767 0,-0.876236 -0.08673,-1.528997 -0.220979,-1.663249 -0.136419,-0.13642 -0.806606,-0.220978 -1.751414,-0.220978 -1.858549,0 -2.850878,-0.403119 -3.599632,-1.462298 -1.376742,-1.947522 -0.394864,-4.498912 1.981133,-5.14793 0.405127,-0.110663 1.814469,-0.201667 3.131876,-0.202232 l 2.395282,-0.001 4.694427,-4.70842 c 2.581935,-2.589631 5.001875,-4.868465 5.377646,-5.064077 1.430324,-0.744573 3.429856,-0.21343 4.332741,1.150921 0.624293,0.943371 0.769762,2.411561 0.326686,3.297191 -0.172969,0.345731 -2.454529,2.783139 -5.070137,5.416459 l -4.75565,4.787856 -0.06744,2.854298 c -0.07164,3.032031 -0.194906,3.52246 -1.09699,4.364732 -0.552256,0.515639 -1.649077,0.976749 -2.310922,0.971524 -0.281777,-0.0022 -0.843789,-0.157026 -1.248916,-0.344003 z"
     id="path4525"
     inkscape:connector-curvature="0" />
  <path
     style="opacity:1;fill:#34cb79;fill-opacity:1;fill-rule:nonzero;stroke:#34cb79;stroke-width:0.60339254;stroke-linecap:square;stroke-linejoin:miter;stroke-miterlimit:4;stroke-dasharray:none;stroke-dashoffset:0;stroke-opacity:1;paint-order:markers fill stroke"
     d="m 12.618131,54.515228 c -2.071562,-0.818447 -3.4975604,-3.047535 -3.3572263,-5.247937 0.1080118,-1.693598 0.6790125,-2.60926 3.1363433,-5.029467 1.191794,-1.17379 2.166899,-2.209266 2.166899,-2.30106 0,-0.09179 -0.241791,-0.675946 -0.53731,-1.298116 -0.722543,-1.521193 -1.212425,-3.028339 -1.587852,-4.88511 -0.436051,-2.156602 -0.296686,-6.495775 0.275563,-8.57975 1.583545,-5.766851 5.256263,-10.281078 10.412495,-12.798251 3.299596,-1.610802 5.210116,-2.065318 8.747042,-2.080939 3.304923,-0.01459 5.871759,0.532666 8.632699,1.840535 l 1.358841,0.643688 2.324124,-2.303077 c 2.43885,-2.416761 2.832478,-2.6935561 4.386689,-3.084669 0.784813,-0.1974964 1.100582,-0.1980439 1.749409,-0.00307 2.321811,0.697841 3.498874,1.78341 4.19552,3.869405 0.403728,1.208894 0.418916,1.384941 0.195938,2.270967 -0.387737,1.540712 -0.667382,1.938549 -3.08843,4.393762 l -2.295989,2.328389 0.641665,1.354576 c 1.306694,2.758479 1.859767,5.345599 1.844577,8.628434 -0.01194,2.580297 -0.253878,4.110028 -0.994263,6.286549 -2.352021,6.914264 -8.472468,12.084163 -15.671325,13.237453 -0.906603,0.145243 -2.364623,0.190821 -4.051263,0.126642 -3.009818,-0.114529 -4.509226,-0.452169 -7.273555,-1.637881 l -1.76328,-0.756332 -2.168889,2.195652 c -1.347221,1.363845 -2.506514,2.365682 -3.060091,2.644463 -1.214604,0.611673 -2.946319,0.687664 -4.218331,0.185109 z m 3.121615,-1.508819 c 0.626834,-0.182002 1.620968,-1.073994 5.746568,-5.156153 l 4.98861,-4.936081 2.653544,-0.004 c 3.235546,-0.005 3.907252,-0.228493 4.76894,-1.58723 0.94284,-1.486707 0.687622,-3.293309 -0.628491,-4.44887 -0.791808,-0.695217 -1.665651,-0.954235 -3.236314,-0.959284 -0.658331,-0.0021 -1.321053,-0.08229 -1.472717,-0.178168 -0.200723,-0.12689 -0.304825,-0.664813 -0.382596,-1.976977 -0.08725,-1.472009 -0.186875,-1.924747 -0.543169,-2.468279 -1.392666,-2.124526 -4.416536,-2.181584 -5.822145,-0.109854 -0.510937,0.753075 -0.529124,0.860891 -0.618491,3.666394 l -0.09208,2.890504 -4.894922,4.935798 c -4.406692,4.443492 -4.918783,5.02308 -5.13415,5.810871 -0.803035,2.93742 1.716531,5.378159 4.667407,4.521382 z M 35.535488,50.00842 c 9.260531,-1.948013 15.653506,-10.60206 14.590098,-19.750335 -0.23992,-2.063984 -0.878732,-4.356401 -1.626039,-5.835144 l -0.457393,-0.90507 -1.704496,1.749379 -1.704495,1.749379 -0.09865,2.654509 c -0.06922,1.862719 -0.188211,2.861714 -0.398905,3.349169 -0.403485,0.933483 -1.459914,2.073198 -2.470854,2.66565 -0.708345,0.415116 -1.044805,0.486142 -2.317258,0.489161 -1.664948,0.0039 -2.221003,-0.208139 -3.44507,-1.31401 -1.13267,-1.023299 -1.81022,-2.526892 -1.815766,-4.029471 l -0.0028,-0.757419 -1.197952,-0.09616 c -2.112345,-0.169557 -3.604792,-1.166973 -4.615806,-3.084783 -0.466385,-0.884695 -0.475035,-3.337196 -0.01481,-4.200374 0.535513,-1.004393 1.603905,-2.05984 2.594291,-2.562859 0.836727,-0.424974 1.202655,-0.482843 3.56532,-0.563829 l 2.632893,-0.09025 1.772337,-1.70455 1.772335,-1.704551 -0.906412,-0.45807 c -2.643469,-1.335924 -6.450681,-1.989705 -9.461678,-1.624778 -4.484808,0.543551 -7.669212,2.045168 -10.916726,5.147825 -2.354902,2.24986 -4.140595,5.276258 -5.014167,8.498027 -0.424109,1.564131 -0.58618,5.711372 -0.291187,7.451222 0.369482,2.179188 1.57231,5.439158 2.006879,5.439158 0.08239,0 0.868228,-0.740654 1.746308,-1.645897 l 1.596508,-1.645897 0,-1.819099 c 0,-1.996974 0.255075,-3.711718 0.672092,-4.51814 1.660692,-3.21142 6.042577,-3.878136 8.386793,-1.276071 0.993602,1.102889 1.272895,1.763827 1.387895,3.284404 l 0.102832,1.359658 0.873015,0 c 4.656424,0 7.078205,5.416025 3.897643,8.71661 -1.249746,1.296908 -1.80768,1.476801 -4.926641,1.588479 l -2.772974,0.09929 -1.696348,1.646158 c -0.932991,0.905387 -1.667933,1.734055 -1.633207,1.841483 0.129237,0.399794 2.710816,1.418012 4.732167,1.866448 1.46096,0.324116 5.600876,0.318764 7.160219,-0.0093 l 0,10e-6 z m 5.754621,-16.040878 c 1.23437,-0.779223 1.503265,-1.586132 1.590365,-4.772414 l 0.0755,-2.762225 4.560796,-4.603707 c 2.508439,-2.53204 4.759132,-4.893741 5.001541,-5.248227 0.361535,-0.528688 0.440744,-0.876182 0.440744,-1.933556 0,-1.450448 -0.318197,-2.077904 -1.517728,-2.992833 -0.579149,-0.441738 -0.828876,-0.505985 -1.966756,-0.505985 -1.072494,0 -1.417539,0.07807 -1.94789,0.440743 -0.354485,0.242409 -2.716187,2.492383 -5.248226,4.999942 l -4.603707,4.559198 -2.776842,0.08074 c -2.48196,0.07216 -2.858058,0.126378 -3.541622,0.510561 -2.042404,1.147897 -2.440866,3.952353 -0.785522,5.528678 0.838131,0.798124 1.780826,1.098011 3.451593,1.098011 0.747597,0 1.368476,0.0916 1.497858,0.220978 0.132015,0.132015 0.222606,0.78069 0.225021,1.611298 0.0029,0.977545 0.110513,1.624906 0.362659,2.180463 0.353179,0.778175 0.445874,0.895979 1.242785,1.579462 0.896736,0.769099 2.728617,0.773228 3.939422,0.0089 l 0,4e-6 z"
     id="path4521"
     inkscape:connector-curvature="0" />
</svg>
