<?xml version="1.0" encoding="UTF-8" standalone="no"?>
<svg
   xmlns:dc="http://purl.org/dc/elements/1.1/"
   xmlns:cc="http://creativecommons.org/ns#"
   xmlns:rdf="http://www.w3.org/1999/02/22-rdf-syntax-ns#"
   xmlns:svg="http://www.w3.org/2000/svg"
   xmlns="http://www.w3.org/2000/svg"
   xmlns:sodipodi="http://sodipodi.sourceforge.net/DTD/sodipodi-0.dtd"
   xmlns:inkscape="http://www.inkscape.org/namespaces/inkscape"
   width="64"
   height="64"
   viewBox="0 0 64 64"
   fill="none"
   id="svg3336"
   version="1.1"
   inkscape:version="0.91 r13725"
   sodipodi:docname="pediatria.svg">
  <metadata
     id="metadata3356">
    <rdf:RDF>
      <cc:Work
         rdf:about="">
        <dc:format>image/svg+xml</dc:format>
        <dc:type
           rdf:resource="http://purl.org/dc/dcmitype/StillImage" />
        <dc:title></dc:title>
      </cc:Work>
    </rdf:RDF>
  </metadata>
  <defs
     id="defs3354" />
  <sodipodi:namedview
     pagecolor="#ffffff"
     bordercolor="#666666"
     borderopacity="1"
     objecttolerance="10"
     gridtolerance="10"
     guidetolerance="10"
     inkscape:pageopacity="0"
     inkscape:pageshadow="2"
     inkscape:window-width="1366"
     inkscape:window-height="705"
     id="namedview3352"
     showgrid="false"
     inkscape:zoom="2.5964077"
     inkscape:cx="-33.81482"
     inkscape:cy="17.110737"
     inkscape:window-x="-8"
     inkscape:window-y="-8"
     inkscape:window-maximized="1"
     inkscape:current-layer="svg3336" />
  <path
     style="opacity:1;fill:#34cb79;fill-opacity:1;fill-rule:nonzero;stroke:#34cb79;stroke-width:0.12952664;stroke-linecap:square;stroke-linejoin:miter;stroke-miterlimit:4;stroke-dasharray:none;stroke-dashoffset:0;stroke-opacity:1;paint-order:markers fill stroke"
     d="m 26.336472,63.17754 c -2.656928,-0.460044 -5.225233,-1.459903 -7.406584,-2.883431 -4.177041,-2.725899 -7.030343,-6.65394 -8.413589,-11.5827 L 9.9407367,46.66057 9.9351804,32.196761 9.9296241,17.732952 10.527573,15.592807 C 12.320672,9.1750464 16.711087,4.3722192 22.902131,2.0558521 l 1.216321,-0.4550841 0.55444,0.5544408 c 0.800863,0.8008616 0.456816,1.4076078 -1.168919,2.0614535 -4.44986,1.7896679 -7.518644,4.5558215 -9.486631,8.5511017 -1.779003,3.611608 -1.713059,2.867881 -1.713059,19.321058 0,11.221775 0.06421,14.819895 0.27935,15.651137 1.569347,6.063842 5.580561,10.440317 11.506691,12.554499 1.352717,0.482589 2.064755,0.585877 4.632846,0.672038 3.608981,0.121084 5.604597,-0.274734 8.407051,-1.667493 1.688462,-0.839128 4.209617,-2.661423 4.209617,-3.042719 0,-0.105458 -1.187335,-0.219019 -2.638524,-0.252358 -3.348198,-0.07692 -3.182689,0.176189 -3.186994,-4.873705 -0.0031,-3.678314 0.0047,-3.741564 0.526701,-4.263585 0.514018,-0.51402 0.623888,-0.529883 3.669921,-0.529883 l 3.14004,0 0,-3.140039 c 0,-3.046033 0.01587,-3.155903 0.529882,-3.669921 0.445723,-0.445725 0.737158,-0.529883 1.834961,-0.529883 l 1.305079,0 0,-10.537351 c 0,-9.927326 -0.02565,-10.636563 -0.443166,-12.251063 C 45.280383,13.125127 44.001959,10.824053 41.782984,8.4782308 39.993181,6.5861107 37.914609,5.2853626 34.37778,3.8441309 33.596889,3.525923 33.541135,2.466855 34.27979,1.9828678 c 0.448219,-0.2936837 0.6084,-0.2830524 1.673052,0.1110458 4.529631,1.676713 7.911961,4.5659257 10.600188,9.0547674 0.657791,1.098388 1.513126,3.572295 1.921794,5.55845 0.381921,1.856166 0.420733,2.976352 0.420733,12.142928 l 0,10.098129 1.534679,0.08672 c 2.121949,0.1199 2.135243,0.145458 2.135243,4.104943 l 0,3.196905 3.03648,0 c 2.925955,0 3.745104,0.145279 4.138149,0.73392 0.08723,0.130643 0.160091,2.043943 0.161909,4.251779 0.0029,3.617276 -0.03574,4.049581 -0.391479,4.371524 -0.330835,0.299401 -0.925319,0.357275 -3.669922,0.357275 l -3.275137,0 0,3.312647 c 0,2.935075 -0.045,3.35337 -0.394784,3.669922 -0.337372,0.305317 -0.974956,0.357275 -4.384233,0.357275 -3.102105,0 -4.082655,-0.06807 -4.408496,-0.306026 -0.362612,-0.264811 -0.428923,-0.629584 -0.492382,-2.708541 l -0.07334,-2.402518 -0.574296,0.582918 c -1.510213,1.532885 -4.975994,3.366165 -7.91414,4.186316 -1.920172,0.535992 -6.09056,0.762745 -7.987476,0.434296 z M 50.190963,57.8764 c 0,-3.046031 0.01587,-3.155903 0.529882,-3.669921 0.514018,-0.51402 0.623889,-0.529882 3.669922,-0.529882 l 3.140038,0 0,-2.482594 0,-2.482594 -3.319673,0 c -2.821528,0 -3.36413,-0.05346 -3.615951,-0.356251 -0.215265,-0.258834 -0.315192,-1.262338 -0.365445,-3.669921 l -0.06917,-3.313672 -2.467396,0 -2.467399,0 0,3.275138 c 0,2.744602 -0.05787,3.339086 -0.357275,3.669921 -0.316553,0.349786 -0.734846,0.394785 -3.669922,0.394785 l -3.312646,0 0,2.467398 0,2.467396 3.363958,0.06917 c 3.035432,0.06241 3.393839,0.11009 3.669921,0.488212 0.231396,0.316918 0.305964,1.198193 0.305964,3.615953 l 0,3.196904 2.482595,0 2.482594,0 0,-3.140038 z"
     id="path4455"
     inkscape:connector-curvature="0" />
  <path
     style="opacity:1;fill:#34cb79;fill-opacity:1;fill-rule:nonzero;stroke:#34cb79;stroke-width:0.12952664;stroke-linecap:square;stroke-linejoin:miter;stroke-miterlimit:4;stroke-dasharray:none;stroke-dashoffset:0;stroke-opacity:1;paint-order:markers fill stroke"
     d="m 28.646364,2.9021514 c -0.333945,-0.3339447 -0.333945,-1.3067248 0,-1.6406705 0.590383,-0.59038255 1.899724,8.408e-4 1.899724,0.8578448 0,0.7916109 -1.339123,1.3434277 -1.899724,0.7828257 z"
     id="path4457"
     inkscape:connector-curvature="0" />
  <path
     style="opacity:1;fill:#ffcebf;fill-opacity:1;fill-rule:nonzero;stroke:#322153;stroke-width:0.52183169;stroke-linecap:square;stroke-linejoin:miter;stroke-miterlimit:4;stroke-dasharray:none;stroke-dashoffset:0;stroke-opacity:1;paint-order:markers fill stroke"
     d="m 23.915536,28.405372 c -1.069245,-0.708238 -2.528867,-2.390886 -3.182991,-3.669342 -0.360763,-0.705095 -1.073926,-3.10274 -1.073926,-3.610523 0,-0.128766 0.441142,-0.08572 1.099531,0.107274 0.792522,0.232321 1.802162,0.298423 3.615953,0.236738 2.34389,-0.07972 2.612094,-0.134847 3.911874,-0.804153 2.875161,-1.480532 5.061173,-4.284935 5.908938,-7.580485 l 0.303711,-1.180628 1.50319,1.527325 c 0.917932,0.93267 1.769254,2.059765 2.186556,2.89486 0.659412,1.319601 0.683366,1.463491 0.683366,4.104986 0,2.613274 -0.02955,2.796589 -0.651476,4.041169 -0.77906,1.559038 -2.061582,3.065176 -3.386052,3.976436 l -0.968493,0.666341 -0.665915,-0.807871 c -0.923583,-1.120466 -2.095305,-1.605081 -3.894847,-1.61088 -1.71207,-0.0055 -2.071829,0.145625 -3.397135,1.427199 l -0.982702,0.950275 -1.009582,-0.668721 z"
     id="path4465"
     inkscape:connector-curvature="0" />
  <path
     style="opacity:1;fill:#ffd396;fill-opacity:1;fill-rule:nonzero;stroke:#322153;stroke-width:0.68998361;stroke-linecap:square;stroke-linejoin:miter;stroke-miterlimit:4;stroke-dasharray:none;stroke-dashoffset:0;stroke-opacity:1;paint-order:markers fill stroke"
     d="m 21.413914,18.689633 -1.37493,-0.448422 0.127703,-0.786943 c 0.180653,-1.113236 1.959824,-3.612484 3.346373,-4.700739 0.645794,-0.506861 1.718483,-1.131643 2.383755,-1.388403 1.336952,-0.515996 3.843522,-0.789355 5.091393,-0.555254 l 0.805784,0.151167 -0.141926,1.22718 c -0.560565,4.846951 -5.56569,8.025298 -10.238152,6.501414 z"
     id="path4467"
     inkscape:connector-curvature="0" />
  <path
     style="opacity:1;fill:#322153;fill-opacity:1;fill-rule:nonzero;stroke:none;stroke-width:0.23108852;stroke-linecap:square;stroke-linejoin:miter;stroke-miterlimit:4;stroke-dasharray:none;stroke-dashoffset:0;stroke-opacity:1;paint-order:markers fill stroke"
     d="m 27.5238,35.846325 c -1.431052,-0.61986 -2.806411,-2.395106 -2.806411,-3.622385 0,-0.426319 -0.267806,-0.679479 -1.372026,-1.296996 -0.790573,-0.442113 -1.934971,-1.369069 -2.700382,-2.187296 -2.273715,-2.430609 -3.331237,-5.110328 -3.319214,-8.410763 0.02794,-7.670562 7.182369,-13.3695604 14.747218,-11.7471911 3.333111,0.7148242 6.529289,3.1811501 8.082577,6.2369091 2.178198,4.28513 1.734677,9.101287 -1.204533,13.07995 -0.862638,1.167709 -3.13706,3.02158 -4.141356,3.375603 -0.404962,0.142751 -0.593664,0.36063 -0.593664,0.685459 0,0.261905 -0.246078,0.970006 -0.546841,1.573559 -0.544943,1.093556 -1.544761,1.973815 -2.759348,2.429382 -0.86308,0.323726 -2.500032,0.267533 -3.38602,-0.116231 z m 3.019904,-2.137187 c 0.906601,-0.468822 1.297651,-1.152271 1.297651,-2.267949 0,-1.115677 -0.39105,-1.799127 -1.297651,-2.267949 -0.876525,-0.453268 -1.69051,-0.401623 -2.508957,0.159186 -1.665685,1.141345 -1.561928,3.20119 0.215851,4.285229 0.814754,0.496813 1.459541,0.522536 2.293106,0.09148 z m -3.13989,-6.610087 c 1.909251,-0.867209 4.763281,-0.15288 5.802627,1.452325 0.258431,0.39913 0.526078,0.726893 0.594771,0.728363 0.0687,0.0015 0.57823,-0.297602 1.132304,-0.664606 1.378983,-0.9134 2.618205,-2.376084 3.445737,-4.067086 0.668774,-1.366592 0.694006,-1.516259 0.694006,-4.116623 0,-2.610746 -0.02299,-2.745481 -0.707304,-4.144489 -0.761488,-1.556787 -2.396376,-3.494985 -3.479508,-4.12504 -0.621668,-0.361622 -0.670438,-0.363315 -0.670438,-0.02327 0,0.904382 -0.987712,3.55192 -1.769736,4.743732 -1.05283,1.604522 -2.933087,3.16124 -4.746588,3.929838 -1.211907,0.513629 -1.638761,0.577857 -3.845807,0.578661 -1.891739,6.73e-4 -2.683153,-0.08836 -3.325282,-0.374157 -0.463478,-0.206283 -0.893341,-0.324408 -0.95525,-0.262497 -0.24064,0.24064 0.420918,2.873095 1.036041,4.122589 0.709548,1.441299 2.488442,3.365427 3.67347,3.973383 l 0.755255,0.387468 0.745071,-0.870448 c 0.409789,-0.478746 1.139074,-1.049408 1.620631,-1.268139 z m -1.530258,-8.087384 c 3.274784,-0.840327 5.690034,-3.617161 5.918882,-6.804991 l 0.102267,-1.424601 -0.836218,-0.138137 c -2.172382,-0.358864 -4.744022,0.123182 -6.665965,1.249517 -1.97787,1.159108 -4.044103,3.805467 -4.505077,5.769942 -0.126114,0.537443 -0.05596,0.607781 0.99791,1.000626 2.108401,0.785932 3.029899,0.850154 4.988199,0.347644 z"
     id="path4459"
     inkscape:connector-curvature="0" />
  <path
     style="opacity:1;fill:#322153;fill-opacity:1;fill-rule:nonzero;stroke:#322153;stroke-width:0.52183169;stroke-linecap:square;stroke-linejoin:miter;stroke-miterlimit:4;stroke-dasharray:none;stroke-dashoffset:0;stroke-opacity:1;paint-order:markers fill stroke"
     d="m 45.441652,57.595854 c 0,-2.780807 -0.04997,-3.248936 -0.377786,-3.539074 -0.286695,-0.253745 -1.171573,-0.371808 -3.669922,-0.489656 l -3.292135,-0.15529 0,-2.242274 0,-2.242274 3.229757,0 c 4.293941,0 4.110086,0.185299 4.110086,-4.142383 l 0,-3.19746 2.242274,0 2.242274,0 0.155291,3.292135 c 0.117847,2.498349 0.235911,3.383226 0.489655,3.669922 0.290138,0.327815 0.758267,0.377786 3.539074,0.377786 l 3.204708,0 0,2.239527 0,2.239525 -3.137462,0.09439 c -4.198061,0.126298 -4.036073,-0.03569 -4.162371,4.162371 l -0.09439,3.137462 -2.239525,0 -2.239527,0 0,-3.204708 z"
     id="path4461"
     inkscape:connector-curvature="0" />
  <path
     style="opacity:1;fill:#e6ffff;fill-opacity:1;fill-rule:nonzero;stroke:#322153;stroke-width:0.14211585;stroke-linecap:square;stroke-linejoin:miter;stroke-miterlimit:4;stroke-dasharray:none;stroke-dashoffset:0;stroke-opacity:1;paint-order:markers fill stroke"
     d="m 28.217997,33.448829 c -1.675664,-1.13958 -1.708534,-2.944232 -0.0737,-4.045949 0.713988,-0.481157 1.151373,-0.566218 1.844169,-0.35865 1.294617,0.387876 1.961367,1.473724 1.754005,2.856516 -0.119235,0.795112 -0.534154,1.346654 -1.311356,1.743153 -0.83406,0.425505 -1.37009,0.378258 -2.213122,-0.19507 z"
     id="path4469"
     inkscape:connector-curvature="0" />
</svg>
