<?xml version="1.0" encoding="UTF-8" standalone="no"?>
<svg
   xmlns:dc="http://purl.org/dc/elements/1.1/"
   xmlns:cc="http://creativecommons.org/ns#"
   xmlns:rdf="http://www.w3.org/1999/02/22-rdf-syntax-ns#"
   xmlns:svg="http://www.w3.org/2000/svg"
   xmlns="http://www.w3.org/2000/svg"
   xmlns:sodipodi="http://sodipodi.sourceforge.net/DTD/sodipodi-0.dtd"
   xmlns:inkscape="http://www.inkscape.org/namespaces/inkscape"
   width="64"
   height="64"
   viewBox="0 0 64 64"
   fill="none"
   id="svg3336"
   version="1.1"
   inkscape:version="0.91 r13725"
   sodipodi:docname="psiquiatria.svg">
  <metadata
     id="metadata3356">
    <rdf:RDF>
      <cc:Work
         rdf:about="">
        <dc:format>image/svg+xml</dc:format>
        <dc:type
           rdf:resource="http://purl.org/dc/dcmitype/StillImage" />
        <dc:title></dc:title>
      </cc:Work>
    </rdf:RDF>
  </metadata>
  <defs
     id="defs3354" />
  <sodipodi:namedview
     pagecolor="#ffffff"
     bordercolor="#666666"
     borderopacity="1"
     objecttolerance="10"
     gridtolerance="10"
     guidetolerance="10"
     inkscape:pageopacity="0"
     inkscape:pageshadow="2"
     inkscape:window-width="1366"
     inkscape:window-height="705"
     id="namedview3352"
     showgrid="false"
     inkscape:zoom="2.5964077"
     inkscape:cx="-62.16688"
     inkscape:cy="42.161896"
     inkscape:window-x="-8"
     inkscape:window-y="-8"
     inkscape:window-maximized="1"
     inkscape:current-layer="svg3336" />
  <path
     style="opacity:1;fill:#322153;fill-opacity:1;fill-rule:nonzero;stroke:#322153;stroke-width:0.11585959;stroke-linecap:square;stroke-linejoin:miter;stroke-miterlimit:4;stroke-dasharray:none;stroke-dashoffset:0;stroke-opacity:1;paint-order:markers fill stroke"
     d="m 25.605399,59.91866 0,-3.58346 -1.67767,0.865137 c -1.939392,1.000099 -3.451782,1.346131 -4.897616,1.12056 C 16.904834,57.989326 14.993295,56.56562 14.020631,54.589858 13.524056,53.58117 13.419953,53.117783 13.291139,51.342702 13.13349,49.170253 12.828068,47.741834 12.161371,46.058918 11.748182,45.015923 10.715832,43.143707 10.316965,42.713999 9.2014557,41.512237 8.1621957,40.156104 8.1621957,39.902231 c 0,-0.170541 0.422005,-0.771815 0.93779,-1.336165 1.1656663,-1.275425 2.8498913,-3.782095 3.6013913,-5.360034 0.312621,-0.656416 1.036253,-2.556807 1.60807,-4.223091 0.904238,-2.634962 1.603373,-4.215984 2.497295,-5.647381 0.207584,-0.332394 0.148683,-0.470217 -0.530887,-1.24225 -0.420407,-0.477608 -0.991139,-1.333063 -1.268294,-1.901012 -0.451922,-0.926087 -0.503917,-1.231561 -0.503917,-2.960568 0,-1.73353 0.05131,-2.033125 0.508916,-2.971136 0.279905,-0.573761 0.960035,-1.494319 1.5114,-2.045685 0.839949,-0.839949 1.002482,-1.108794 1.002482,-1.658197 0,-0.9550169 0.639754,-2.512497 1.393979,-3.3936394 1.184921,-1.3843131 3.455028,-2.3736839 4.969966,-2.1660385 0.725304,0.099414 0.796802,0.068036 1.151058,-0.5051632 0.630649,-1.0204116 2.164304,-2.3147152 3.46448,-2.9237918 1.142773,-0.5353397 1.375153,-0.57689815 3.250499,-0.5813146 1.815307,-0.004272 2.126607,0.0453269 3.075572,0.4900478 l 1.055832,0.4948043 1.055715,-0.4878571 c 0.936843,-0.4329261 1.284199,-0.4886393 3.084974,-0.49480422 1.975471,-0.00676 2.065514,0.0110011 3.396833,0.67013382 1.341895,0.6643679 2.688766,1.798593 3.236128,2.7252056 0.222397,0.3764867 0.515494,0.5129769 1.499104,0.6981044 2.992084,0.5631466 4.995645,2.8378828 5.103157,5.7938489 0.04005,1.101083 0.119055,1.355365 0.611513,1.968164 0.727821,0.905675 1.188453,1.994751 1.433002,3.388049 0.47528,2.707877 -1.010223,5.626979 -3.60715,7.088274 -0.567915,0.319567 -1.055942,0.597788 -1.084503,0.618268 -0.02856,0.02048 0.270241,0.688649 0.664002,1.484815 0.774016,1.565026 1.339196,3.195108 1.711479,4.936217 0.356463,1.667111 0.312864,6.85082 -0.07103,8.446183 -0.874924,3.635878 -1.730262,5.354184 -4.795084,9.632961 -3.09962,4.32736 -3.057619,4.185319 -3.057619,10.340097 l 0,4.722846 -9.731471,0 -9.731472,0 0,-3.583462 z m 17.626816,-2.007687 c 0,-2.065263 0.09131,-4.192874 0.202907,-4.728026 0.320259,-1.535742 1.111257,-2.970216 3.262122,-5.915851 3.765859,-5.157398 4.698853,-7.72099 4.683034,-12.867582 -0.011,-3.578209 -0.380793,-5.305635 -1.739301,-8.12486 l -0.906899,-1.88203 -4.161863,0 c -3.850161,0 -4.221402,0.02882 -4.956877,0.384861 -1.032962,0.500049 -1.70789,1.606001 -1.70789,2.798589 l 0,0.856028 -0.939454,0 -0.939452,0 0.07745,-1.147579 c 0.126937,-1.88075 1.069864,-3.335627 2.719517,-4.196053 0.786854,-0.410405 1.058297,-0.436353 5.691993,-0.544112 4.368953,-0.1016 4.950095,-0.151578 5.691992,-0.489508 1.899286,-0.865109 3.129566,-2.551654 3.270731,-4.483721 0.18952,-2.593855 -1.701812,-5.018765 -4.251911,-5.451454 l -0.76314,-0.129486 -0.0555,-0.959677 c -0.0355,-0.613836 0.01792,-0.959677 0.148209,-0.959677 0.371163,0 1.921654,0.388695 2.24586,0.563018 0.467839,0.251554 0.507426,0.223592 0.507426,-0.358417 0,-1.0371382 -1.087868,-2.465394 -2.324967,-3.052436 C 47.906124,6.7104704 46.947786,6.6785464 45.802788,7.1169547 L 44.792918,7.5036239 44.292923,6.9051997 C 44.017926,6.5760665 43.790705,6.2434695 43.787988,6.1660953 c -0.0027,-0.077374 0.28425,-0.278585 0.637705,-0.4471357 0.353454,-0.1685506 0.642645,-0.3632549 0.642645,-0.4326761 0,-0.069421 -0.359343,-0.4574511 -0.798541,-0.8622888 -1.189765,-1.0966866 -2.680474,-1.6976663 -4.211,-1.6976663 -0.992996,0 -2.334966,0.3323726 -2.334966,0.5783129 0,0.084128 0.28219,0.5226497 0.62709,0.9744925 0.731434,0.9582318 1.376844,2.5743679 1.523882,3.8158704 l 0.103531,0.874155 -0.905339,0 -0.905339,0 -0.298924,-1.2737138 C 37.346486,5.4701547 35.927844,3.8464656 33.838613,3.0828253 31.605326,2.2665308 29.12312,2.8601521 27.328871,4.6396342 26.407668,5.5532568 25.901205,6.519905 25.613628,7.9133864 l -0.217882,1.0557728 -0.870858,0 -0.870859,0 0.07969,-1.101676 c 0.07373,-1.0193538 0.05112,-1.101676 -0.302718,-1.101676 -0.210323,0 -0.834963,0.169323 -1.388087,0.3762734 -1.094647,0.40956 -1.955097,1.2378318 -2.405321,2.3153692 -0.340293,0.8144372 -0.343856,0.9806112 -0.02102,0.9806112 0.275835,0 0.473971,0.54361 0.477939,1.311286 0.0019,0.3743 -0.11021,0.51332 -0.491228,0.60895 -1.008476,0.253111 -2.166118,1.294003 -2.867462,2.578274 -0.574063,1.0512 -0.563444,3.516868 0.01995,4.631344 0.551737,1.054009 1.560091,2.024521 2.583029,2.486096 0.769119,0.347045 1.321903,0.394696 5.80757,0.500616 5.558154,0.131245 5.720418,0.165306 7.030883,1.475771 1.02073,1.020728 1.327232,1.68738 1.453915,3.162318 l 0.106452,1.239386 -0.944693,0 -0.944695,0 0,-0.797379 c 0,-1.163831 -0.662921,-2.299859 -1.645172,-2.819287 -0.764265,-0.404152 -0.982628,-0.423295 -4.947859,-0.433758 -3.783794,-0.01 -5.110202,-0.105389 -6.178894,-0.444441 -0.308622,-0.09791 -0.478504,0.04252 -0.924827,0.764462 -0.845618,1.367826 -1.24134,2.308183 -2.265248,5.382917 -1.308044,3.927979 -2.589626,6.368013 -4.65852,8.869462 -0.835643,1.010354 -0.822203,1.08822 0.432846,2.507758 0.771519,0.872633 1.897903,2.935573 2.510053,4.597082 0.53099,1.441228 0.752265,2.554956 0.983428,4.949825 0.12933,1.339862 0.334278,2.382959 0.564389,2.872499 0.741276,1.576998 2.500674,2.643599 4.360714,2.643599 0.916833,0 1.310991,-0.132106 3.041283,-1.019313 1.093363,-0.560624 2.409614,-1.253713 2.925002,-1.540202 1.657129,-0.921148 2.512059,-1.343384 2.577783,-1.273121 0.280736,0.300128 0.843533,1.536319 0.719422,1.580224 -0.08623,0.0305 -0.487286,0.242472 -0.891234,0.471035 l -0.73445,0.41557 -0.05014,3.253481 -0.05014,3.25348 7.807777,0 7.807774,0 0,-3.755022 z"
     id="path4538"
     inkscape:connector-curvature="0" />
  <path
     style="opacity:1;fill:#34cb79;fill-opacity:1;fill-rule:nonzero;stroke:#34cb79;stroke-width:0.11585959;stroke-linecap:square;stroke-linejoin:miter;stroke-miterlimit:4;stroke-dasharray:none;stroke-dashoffset:0;stroke-opacity:1;paint-order:markers fill stroke"
     d="m 31.840738,50.236106 c -0.462647,-1.958335 -0.360652,-1.898084 -1.761601,-1.04061 l -1.226849,0.750916 -1.990129,-1.99013 -1.99013,-1.99013 0.727932,-1.18368 c 0.400363,-0.651023 0.682544,-1.229187 0.627069,-1.284809 -0.05547,-0.05562 -0.651821,-0.231176 -1.325214,-0.390124 l -1.224349,-0.288996 -0.05039,-2.843692 -0.05039,-2.843694 1.381582,-0.325708 c 0.759869,-0.179139 1.381581,-0.361467 1.381581,-0.405173 0,-0.04371 -0.320025,-0.606236 -0.711166,-1.25007 l -0.711167,-1.170604 1.95355,-1.947493 c 1.074453,-1.071121 2.009744,-1.947493 2.078425,-1.947493 0.06868,0 0.631242,0.296774 1.250136,0.659498 0.618893,0.362724 1.148877,0.631258 1.177739,0.596741 0.02886,-0.03452 0.196828,-0.661792 0.373256,-1.393948 l 0.320777,-1.331192 2.810559,0 2.810559,0 0.32465,1.377095 c 0.178558,0.757402 0.371513,1.376883 0.428788,1.376623 0.05727,-2.57e-4 0.583372,-0.28945 1.169105,-0.642645 0.585733,-0.353194 1.124276,-0.642172 1.196763,-0.642172 0.207337,0 3.889294,3.748246 3.889294,3.959315 0,0.103944 -0.287076,0.639599 -0.637945,1.190348 -0.350871,0.550749 -0.64006,1.056284 -0.642644,1.123412 -0.0026,0.06712 0.617012,0.268619 1.376882,0.447758 l 1.381581,0.325708 -0.05039,2.842305 -0.05039,2.842304 -1.285289,0.301502 c -0.706909,0.165827 -1.267421,0.391417 -1.245582,0.501312 0.02183,0.109894 0.290372,0.624937 0.596741,1.144541 0.306369,0.519603 0.557036,1.024683 0.557036,1.1224 0,0.09772 -0.866421,1.044089 -1.925381,2.103049 l -1.925382,1.925379 -1.200331,-0.734683 -1.200332,-0.734685 -0.179315,0.471637 c -0.09862,0.259399 -0.179316,0.559952 -0.179316,0.667894 0,0.107943 -0.0957,0.515693 -0.212676,0.906111 l -0.212676,0.70985 -2.798619,0 -2.79862,0 -0.227732,-0.963967 z m 4.759591,-5.398321 c 3.612763,-1.166793 4.669023,-5.853893 1.935268,-8.587649 -1.478497,-1.478497 -3.527804,-1.927813 -5.473088,-1.199989 -3.547932,1.327451 -4.53959,5.866211 -1.865255,8.537158 1.456733,1.454888 3.386952,1.901614 5.403075,1.25048 z"
     id="path4540"
     inkscape:connector-curvature="0" />
  <path
     style="opacity:1;fill:#34cb79;fill-opacity:1;fill-rule:nonzero;stroke:#34cb79;stroke-width:0.49770963;stroke-linecap:square;stroke-linejoin:miter;stroke-miterlimit:4;stroke-dasharray:none;stroke-dashoffset:0;stroke-opacity:1;paint-order:markers fill stroke"
     d="m 47.22294,22.173104 c -1.404171,-0.330818 -2.464352,-1.086296 -3.319921,-2.365749 -0.166968,-0.249691 -0.303578,-0.50758 -0.303578,-0.573086 0,-0.0655 0.419662,-0.174773 0.932581,-0.242815 0.883382,-0.117184 0.969876,-0.09002 1.639518,0.514965 0.388816,0.351271 1.016845,0.724245 1.395621,0.82883 2.088292,0.576606 4.208973,-1.445674 3.835313,-3.657351 -0.151557,-0.897059 -1.18751,-2.109477 -2.04396,-2.392132 -1.518738,-0.501229 -3.258179,0.206693 -3.912937,1.592494 -0.324493,0.686792 -0.438347,0.7701 -1.210789,0.885934 -0.468938,0.07032 -0.895501,0.08497 -0.947916,0.03256 -0.05241,-0.05241 0.04826,-0.551746 0.223742,-1.109623 0.665689,-2.116398 2.446051,-3.407821 4.702624,-3.411148 2.117232,-0.0031 3.644324,0.942486 4.574983,2.832922 0.530195,1.07698 0.583162,1.326937 0.500195,2.360522 -0.05104,0.635797 -0.236708,1.44145 -0.412604,1.790341 -0.429765,0.852438 -1.511604,1.968398 -2.29909,2.371604 -0.513697,0.263021 -2.468824,0.801466 -2.625518,0.723071 -0.02027,-0.01015 -0.347995,-0.09174 -0.728264,-0.181336 z"
     id="path4542"
     inkscape:connector-curvature="0" />
  <path
     style="opacity:1;fill:#34cb79;fill-opacity:1;fill-rule:nonzero;stroke:#34cb79;stroke-width:0.49770963;stroke-linecap:square;stroke-linejoin:miter;stroke-miterlimit:4;stroke-dasharray:none;stroke-dashoffset:0;stroke-opacity:1;paint-order:markers fill stroke"
     d="m 33.894306,11.402027 c -0.16943,-0.790141 -0.148185,-0.915328 0.22591,-1.331192 2.110724,-2.3463892 -0.125193,-5.9664345 -3.177513,-5.14453 -1.517319,0.4085714 -2.248354,1.443287 -2.240092,3.1706531 0.0051,1.0491759 -0.03117,1.1413826 -0.673794,1.717027 L 27.34972,10.422296 27.042015,9.7416311 c -1.051589,-2.3261909 0.441325,-5.5652255 3.018781,-6.549565 1.057908,-0.4040186 2.846774,-0.3231533 3.881243,0.1754506 2.530464,1.2196586 3.572396,4.3084432 2.307335,6.8400523 -0.503072,1.006737 -1.522151,2.066618 -1.987058,2.066618 -0.09955,0 -0.265151,-0.392472 -0.36801,-0.87216 z"
     id="path4544"
     inkscape:connector-curvature="0" />
  <path
     style="opacity:1;fill:#34cb79;fill-opacity:1;fill-rule:nonzero;stroke:#34cb79;stroke-width:0.49770963;stroke-linecap:square;stroke-linejoin:miter;stroke-miterlimit:4;stroke-dasharray:none;stroke-dashoffset:0;stroke-opacity:1;paint-order:markers fill stroke"
     d="m 30.562942,12.889875 c -0.596329,-0.19437 -1.652515,-0.675911 -1.652515,-0.753421 0,-0.04508 0.309847,-0.360385 0.688548,-0.700679 0.677251,-0.608565 0.958651,-0.652293 1.684496,-0.26176 0.143824,0.07738 0.358271,0.521831 0.476551,0.98766 l 0.215052,0.846963 -0.568356,-0.01449 c -0.312597,-0.008 -0.692296,-0.05489 -0.843776,-0.104267 z"
     id="path4546"
     inkscape:connector-curvature="0" />
  <path
     style="opacity:1;fill:#34cb79;fill-opacity:1;fill-rule:nonzero;stroke:#34cb79;stroke-width:0.49770963;stroke-linecap:square;stroke-linejoin:miter;stroke-miterlimit:4;stroke-dasharray:none;stroke-dashoffset:0;stroke-opacity:1;paint-order:markers fill stroke"
     d="m 20.527361,22.185573 c -3.832539,-0.777857 -5.399587,-5.299547 -2.863454,-8.262448 1.347636,-1.574409 3.989895,-2.142426 5.911319,-1.270777 l 0.815824,0.370096 -0.590179,0.589838 c -0.563462,0.563138 -0.654979,0.589839 -2.02166,0.589839 -1.223461,0 -1.530141,0.0667 -2.110399,0.459031 -0.922168,0.623499 -1.480658,1.798112 -1.360751,2.861924 0.258048,2.289397 2.686927,3.588118 4.647312,2.484917 1.110714,-0.625051 1.590614,-1.49828 1.582644,-2.879792 -0.0062,-1.078447 0.03169,-1.182803 0.626364,-1.72394 0.348143,-0.316803 0.702398,-0.533106 0.787234,-0.480674 0.305552,0.188841 0.616095,1.771057 0.5335,2.718169 -0.260744,2.989917 -3.067369,5.130452 -5.957754,4.543817 z"
     id="path4548"
     inkscape:connector-curvature="0" />
  <path
     style="opacity:1;fill:#34cb79;fill-opacity:1;fill-rule:nonzero;stroke:#34cb79;stroke-width:0.49770963;stroke-linecap:square;stroke-linejoin:miter;stroke-miterlimit:4;stroke-dasharray:none;stroke-dashoffset:0;stroke-opacity:1;paint-order:markers fill stroke"
     d="m 37.281951,17.275096 c -0.187918,-0.249129 -0.723093,-0.619395 -1.189278,-0.822812 -0.466184,-0.203418 -0.86799,-0.386403 -0.8929,-0.406634 -0.02491,-0.02023 -0.16475,-0.433713 -0.310755,-0.91885 l -0.265464,-0.882068 0.963524,0.09944 c 1.456053,0.150277 2.643977,0.911002 3.599353,2.304958 0.494365,0.721312 0.380525,0.875513 -0.732348,0.991998 -0.722025,0.07557 -0.875075,0.02778 -1.172132,-0.366037 z"
     id="path4550"
     inkscape:connector-curvature="0" />
  <path
     style="opacity:1;fill:#34cb79;fill-opacity:1;fill-rule:nonzero;stroke:#34cb79;stroke-width:0.49770963;stroke-linecap:square;stroke-linejoin:miter;stroke-miterlimit:4;stroke-dasharray:none;stroke-dashoffset:0;stroke-opacity:1;paint-order:markers fill stroke"
     d="m 33.165238,24.042817 c -1.891706,-0.653327 -3.145158,-2.353001 -3.297192,-4.470974 -0.0803,-1.118604 -0.03192,-1.356354 0.492952,-2.422515 0.359296,-0.729832 0.860175,-1.402511 1.309013,-1.757997 l 0.727026,-0.575815 0.161236,0.427753 c 0.410912,1.090138 0.41477,1.543381 0.01621,1.904077 -0.498788,0.451397 -0.909861,1.436066 -0.909861,2.179446 0,0.747451 0.691394,2.100231 1.299499,2.542597 1.038954,0.755787 2.785606,0.756471 3.827046,0.0015 0.260503,-0.188855 0.638893,-0.683535 0.840866,-1.099299 0.381682,-0.78569 0.692392,-0.962554 1.698417,-0.966781 0.727099,-0.0031 0.748954,0.195372 0.165996,1.507062 -0.570142,1.282851 -1.823515,2.421747 -3.073784,2.793037 -1.249017,0.370918 -2.047716,0.355692 -3.25742,-0.0621 z"
     id="path4552"
     inkscape:connector-curvature="0" />
  <path
     style="opacity:1;fill:#322153;fill-opacity:1;fill-rule:nonzero;stroke:#322153;stroke-width:0.30701628;stroke-linecap:square;stroke-linejoin:miter;stroke-miterlimit:4;stroke-dasharray:none;stroke-dashoffset:0;stroke-opacity:1;paint-order:markers fill stroke"
     d="m 34.004043,22.151667 c -0.813655,-0.216047 -1.955105,-1.441185 -2.005836,-2.152894 -0.09535,-1.337708 0.08094,-2.015501 0.697142,-2.680396 0.47325,-0.510645 0.481458,-0.55679 0.258721,-1.454591 -0.522952,-2.107893 -1.302275,-4.776868 -1.429067,-4.89417 -0.07469,-0.06911 -0.400077,-0.181289 -0.723077,-0.249301 -0.627313,-0.132092 -0.550369,-0.186394 -3.267029,2.305663 -0.505795,0.463979 -1.428713,1.290236 -2.050928,1.836128 l -1.1313,0.992529 -0.01696,1.193482 c -0.02824,1.986851 -1.053352,3.119349 -2.824805,3.120729 -1.088791,8.47e-4 -1.792448,-0.348798 -2.45799,-1.221367 -0.426689,-0.559417 -0.509909,-0.844334 -0.498207,-1.705672 0.01576,-1.159927 0.343763,-1.804674 1.245225,-2.447695 0.474349,-0.338359 0.818362,-0.408379 2.006383,-0.408379 1.272884,0 1.490361,-0.05153 1.93701,-0.459032 0.276727,-0.252467 0.87087,-0.783211 1.320319,-1.17943 0.449448,-0.396219 1.498841,-1.341755 2.331984,-2.101191 l 1.514804,-1.3807923 0,-1.0752457 c 0,-1.5937365 0.661713,-2.6026594 2.001235,-3.0513142 0.877107,-0.2937748 1.259068,-0.2634571 2.156962,0.1712057 1.735923,0.8403458 2.22095,3.3457031 0.891776,4.6063727 -0.547161,0.5189608 -0.552294,0.6153418 -0.114727,2.1544728 0.18971,0.667303 0.528693,1.884402 0.753296,2.704665 0.395392,1.444004 0.430048,1.497883 1.090803,1.69585 0.37534,0.112455 0.971334,0.49336 1.32443,0.846456 l 0.641994,0.641994 1.089593,-0.174143 c 0.599275,-0.09578 2.20504,-0.348266 3.568364,-0.561082 3.16965,-0.494787 3.008961,-0.436656 3.280159,-1.186638 0.325242,-0.899442 1.30591,-1.596197 2.39373,-1.700723 2.33286,-0.224158 3.97718,2.127609 2.921462,4.178378 -0.848713,1.648653 -2.659428,2.160319 -4.201068,1.187124 -0.406766,-0.25678 -0.785779,-0.587283 -0.842253,-0.734451 -0.118845,-0.309704 -0.700234,-0.336667 -2.098409,-0.09732 -0.547025,0.09364 -1.531657,0.2557 -2.188072,0.360124 -3.88765,0.618456 -3.823589,0.601306 -3.937212,1.054019 -0.19451,0.77499 -1.146847,1.662653 -2.01955,1.882402 -0.44875,0.112996 -0.84129,0.196909 -0.872312,0.186471 -0.03102,-0.01044 -0.366984,-0.101445 -0.746585,-0.20224 z m 1.82973,-2.289583 c 0.356971,-0.544805 0.09599,-1.272891 -0.541313,-1.51016 -1.271306,-0.47331 -2.091871,1.320161 -0.884896,1.934074 0.54229,0.275829 1.070612,0.118796 1.426209,-0.423914 z m -13.790405,-1.6692 c 0.111116,-0.0742 0.305452,-0.331124 0.43186,-0.570955 0.196173,-0.372197 0.177372,-0.506648 -0.12838,-0.918063 -0.685458,-0.922343 -1.943807,-0.565925 -1.943807,0.550569 0,0.84354 0.959959,1.392744 1.640327,0.938449 z m 27.057299,-0.261326 c 0.478602,-0.513717 0.472584,-0.847046 -0.02485,-1.376542 -0.748466,-0.796704 -1.804121,-0.335703 -1.804121,0.787853 0,0.988182 1.120723,1.348907 1.828973,0.588689 z M 32.6963,8.502606 c 0.377011,-0.575391 0.131575,-1.2657282 -0.562425,-1.5819361 -1.007328,-0.4589691 -1.89532,0.9289533 -1.163778,1.8189735 0.103756,0.1262337 0.465816,0.2295158 0.804577,0.2295158 0.457025,0 0.694796,-0.1203661 0.921626,-0.4665532 z"
     id="path4554"
     inkscape:connector-curvature="0" />
  <path
     style="opacity:1;fill:#322153;fill-opacity:1;fill-rule:nonzero;stroke:none;stroke-width:0.12151404;stroke-linecap:square;stroke-linejoin:miter;stroke-miterlimit:4;stroke-dasharray:none;stroke-dashoffset:0;stroke-opacity:1;paint-order:markers fill stroke"
     d="m 26.707076,18.333405 0,-0.918062 0.918063,0 0.918064,0 0,0.918062 0,0.918064 -0.918064,0 -0.918063,0 0,-0.918064 z"
     id="path4556"
     inkscape:connector-curvature="0" />
  <path
     style="opacity:1;fill:#322153;fill-opacity:1;fill-rule:nonzero;stroke:none;stroke-width:0.12151404;stroke-linecap:square;stroke-linejoin:miter;stroke-miterlimit:4;stroke-dasharray:none;stroke-dashoffset:0;stroke-opacity:1;paint-order:markers fill stroke"
     d="m 40.110801,13.192251 0,-0.918064 0.918062,0 0.918064,0 0,0.918064 0,0.918063 -0.918064,0 -0.918062,0 0,-0.918063 z"
     id="path4558"
     inkscape:connector-curvature="0" />
  <path
     style="opacity:1;fill:#322153;fill-opacity:1;fill-rule:nonzero;stroke:#322153;stroke-width:0.49770963;stroke-linecap:square;stroke-linejoin:miter;stroke-miterlimit:4;stroke-dasharray:none;stroke-dashoffset:0;stroke-opacity:1;paint-order:markers fill stroke"
     d="m 33.490021,44.79413 c -2.077665,-0.679073 -3.66153,-2.781539 -3.66153,-4.860415 0,-1.822187 1.125586,-3.605364 2.820685,-4.468586 1.859637,-0.947013 4.43907,-0.512772 5.838561,0.982906 2.327632,2.487612 1.636379,6.451712 -1.394966,7.99966 -0.813062,0.415188 -2.806052,0.606831 -3.60275,0.346435 z m 2.748515,-2.003156 c 0.344435,-0.171876 0.874617,-0.621511 1.178182,-0.999188 0.996927,-1.240319 0.686811,-3.423762 -0.625156,-4.401562 -1.025823,-0.764538 -2.782586,-0.768551 -3.827047,-0.0088 -0.608452,0.442629 -1.299897,1.795251 -1.299897,2.542894 0,1.182718 0.927947,2.556882 2.019739,2.990959 0.702139,0.279158 1.858353,0.222862 2.554179,-0.124362 z"
     id="path4560"
     inkscape:connector-curvature="0" />
  <path
     style="opacity:1;fill:#a8a857;fill-opacity:1;fill-rule:nonzero;stroke:none;stroke-width:0.322;stroke-linecap:square;stroke-linejoin:miter;stroke-miterlimit:4;stroke-dasharray:none;stroke-dashoffset:0;stroke-opacity:1;paint-order:markers fill stroke"
     id="path4562"
     sodipodi:type="arc"
     sodipodi:cx="34.942204"
     sodipodi:cy="19.36165"
     sodipodi:rx="1.101676"
     sodipodi:ry="1.101676"
     sodipodi:start="2.1479244"
     sodipodi:end="2.1475578"
     sodipodi:open="true"
     d="m 34.341108,20.284891 a 1.101676,1.101676 0 0 1 -0.3222,-1.524252 1.101676,1.101676 0 0 1 1.524222,-0.32234 1.101676,1.101676 0 0 1 0.32248,1.524193 1.101676,1.101676 0 0 1 -1.524164,0.32262" />
  <path
     style="opacity:1;fill:#a8a857;fill-opacity:1;fill-rule:nonzero;stroke:none;stroke-width:0.322;stroke-linecap:square;stroke-linejoin:miter;stroke-miterlimit:4;stroke-dasharray:none;stroke-dashoffset:0;stroke-opacity:1;paint-order:markers fill stroke"
     id="path4562-7"
     sodipodi:type="arc"
     sodipodi:cx="48.469601"
     sodipodi:cy="17.243195"
     sodipodi:rx="1.101676"
     sodipodi:ry="1.101676"
     sodipodi:start="2.1479244"
     sodipodi:end="2.1475578"
     sodipodi:open="true"
     d="m 47.868505,18.166436 a 1.101676,1.101676 0 0 1 -0.3222,-1.524253 1.101676,1.101676 0 0 1 1.524222,-0.32234 1.101676,1.101676 0 0 1 0.32248,1.524194 1.101676,1.101676 0 0 1 -1.524164,0.322619" />
  <path
     style="opacity:1;fill:#a8a857;fill-opacity:1;fill-rule:nonzero;stroke:none;stroke-width:0.322;stroke-linecap:square;stroke-linejoin:miter;stroke-miterlimit:4;stroke-dasharray:none;stroke-dashoffset:0;stroke-opacity:1;paint-order:markers fill stroke"
     id="path4562-5"
     sodipodi:type="arc"
     sodipodi:cx="31.850885"
     sodipodi:cy="7.895164"
     sodipodi:rx="1.101676"
     sodipodi:ry="1.101676"
     sodipodi:start="2.1479244"
     sodipodi:end="2.1475578"
     sodipodi:open="true"
     d="M 31.24979,8.8184049 A 1.101676,1.101676 0 0 1 30.927589,7.2941528 1.101676,1.101676 0 0 1 32.451812,6.9718129 1.101676,1.101676 0 0 1 32.774292,8.496006 1.101676,1.101676 0 0 1 31.250128,8.8186252" />
  <path
     style="opacity:1;fill:#a8a857;fill-opacity:1;fill-rule:nonzero;stroke:none;stroke-width:0.322;stroke-linecap:square;stroke-linejoin:miter;stroke-miterlimit:4;stroke-dasharray:none;stroke-dashoffset:0;stroke-opacity:1;paint-order:markers fill stroke"
     id="path4562-2"
     sodipodi:type="arc"
     sodipodi:cx="21.464182"
     sodipodi:cy="17.178278"
     sodipodi:rx="1.101676"
     sodipodi:ry="1.101676"
     sodipodi:start="2.1479244"
     sodipodi:end="2.1475578"
     sodipodi:open="true"
     d="m 20.863086,18.101519 a 1.101676,1.101676 0 0 1 -0.3222,-1.524252 1.101676,1.101676 0 0 1 1.524222,-0.32234 1.101676,1.101676 0 0 1 0.32248,1.524193 1.101676,1.101676 0 0 1 -1.524163,0.322619" />
</svg>
